<?xml version="1.0" encoding="UTF-8" standalone="no"?>
<!-- Created with Inkscape (http://www.inkscape.org/) -->

<svg
   xmlns:dc="http://purl.org/dc/elements/1.1/"
   xmlns:cc="http://creativecommons.org/ns#"
   xmlns:rdf="http://www.w3.org/1999/02/22-rdf-syntax-ns#"
   xmlns:svg="http://www.w3.org/2000/svg"
   xmlns="http://www.w3.org/2000/svg"
   xmlns:sodipodi="http://sodipodi.sourceforge.net/DTD/sodipodi-0.dtd"
   xmlns:inkscape="http://www.inkscape.org/namespaces/inkscape"
   width="201"
   height="141"
   id="svg2"
   version="1.1"
   inkscape:version="0.48.3.1 r9886"
   sodipodi:docname="flow_Re_z_squared_at_infinity.svg">
  <sodipodi:namedview
     id="base"
     pagecolor="#ffffff"
     bordercolor="#666666"
     borderopacity="1.0"
     inkscape:pageopacity="0.0"
     inkscape:pageshadow="2"
     inkscape:zoom="2.8"
     inkscape:cx="14.135682"
     inkscape:cy="81.931911"
     inkscape:document-units="px"
     inkscape:current-layer="layer1"
     showgrid="false"
     inkscape:snap-grids="false"
     inkscape:window-width="1920"
     inkscape:window-height="1021"
     inkscape:window-x="0"
     inkscape:window-y="27"
     inkscape:window-maximized="1"
     fit-margin-top="0"
     fit-margin-left="0"
     fit-margin-right="0"
     fit-margin-bottom="0" />
  <defs
     id="defs4">
    <marker
       inkscape:stockid="TriangleOutL"
       orient="auto"
       refY="0.0"
       refX="0.0"
       id="TriangleOutL"
       style="overflow:visible">
      <path
         id="path5092"
         d="M 5.77,0.0 L -2.88,5.0 L -2.88,-5.0 L 5.77,0.0 z "
         style="fill-rule:evenodd;stroke:#000000;stroke-width:1.0pt"
         transform="scale(0.8)" />
    </marker>
    <marker
       inkscape:stockid="Arrow2Mstart"
       orient="auto"
       refY="0.0"
       refX="0.0"
       id="Arrow2Mstart"
       style="overflow:visible">
      <path
         id="path5923"
         style="fill-rule:evenodd;stroke-width:0.62500000;stroke-linejoin:round"
         d="M 8.7185878,4.0337352 L -2.2072895,0.016013256 L 8.7185884,-4.0017078 C 6.9730900,-1.6296469 6.9831476,1.6157441 8.7185878,4.0337352 z "
         transform="scale(0.6) translate(0,0)" />
    </marker>
    <marker
       inkscape:stockid="Arrow2Mend"
       orient="auto"
       refY="0"
       refX="0"
       id="Arrow2Mend"
       style="overflow:visible">
      <path
         id="path4154"
         style="fill-rule:evenodd;stroke-width:0.625;stroke-linejoin:round"
         d="M 8.7185878,4.0337352 -2.2072895,0.01601326 8.7185884,-4.0017078 c -1.7454984,2.3720609 -1.7354408,5.6174519 -6e-7,8.035443 z"
         transform="scale(-0.6,-0.6)"
         inkscape:connector-curvature="0" />
    </marker>
    <marker
       inkscape:stockid="Arrow2Mend"
       orient="auto"
       refY="0"
       refX="0"
       id="Arrow2Mend-7"
       style="overflow:visible">
      <path
         inkscape:connector-curvature="0"
         id="path4154-6"
         style="fill-rule:evenodd;stroke-width:0.625;stroke-linejoin:round"
         d="M 8.7185878,4.0337352 -2.2072895,0.01601326 8.7185884,-4.0017078 c -1.7454984,2.3720609 -1.7354408,5.6174519 -6e-7,8.035443 z"
         transform="scale(-0.6,-0.6)" />
    </marker>
    <marker
       inkscape:stockid="Arrow2Mend"
       orient="auto"
       refY="0"
       refX="0"
       id="Arrow2Mend-2"
       style="overflow:visible">
      <path
         inkscape:connector-curvature="0"
         id="path4154-62"
         style="fill-rule:evenodd;stroke-width:0.625;stroke-linejoin:round"
         d="M 8.7185878,4.0337352 -2.2072895,0.01601326 8.7185884,-4.0017078 c -1.7454984,2.3720609 -1.7354408,5.6174519 -6e-7,8.035443 z"
         transform="scale(-0.6,-0.6)" />
    </marker>
    <marker
       inkscape:stockid="Arrow2Mend"
       orient="auto"
       refY="0"
       refX="0"
       id="Arrow2Mend-4"
       style="overflow:visible">
      <path
         inkscape:connector-curvature="0"
         id="path4154-7"
         style="fill-rule:evenodd;stroke-width:0.625;stroke-linejoin:round"
         d="M 8.7185878,4.0337352 -2.2072895,0.01601326 8.7185884,-4.0017078 c -1.7454984,2.3720609 -1.7354408,5.6174519 -6e-7,8.035443 z"
         transform="scale(-0.6,-0.6)" />
    </marker>
    <marker
       inkscape:stockid="Arrow2Mend"
       orient="auto"
       refY="0"
       refX="0"
       id="Arrow2Mend-1"
       style="overflow:visible">
      <path
         inkscape:connector-curvature="0"
         id="path4154-8"
         style="fill-rule:evenodd;stroke-width:0.625;stroke-linejoin:round"
         d="M 8.7185878,4.0337352 -2.2072895,0.01601326 8.7185884,-4.0017078 c -1.7454984,2.3720609 -1.7354408,5.6174519 -6e-7,8.035443 z"
         transform="scale(-0.6,-0.6)" />
    </marker>
    <marker
       inkscape:stockid="Arrow2Mend-1p"
       orient="auto"
       refY="0"
       refX="0"
       id="Arrow2Mend-1p"
       style="overflow:visible">
      <path
         inkscape:connector-curvature="0"
         id="path6893"
         style="fill:#0000ff;fill-rule:evenodd;stroke:#0000ff;stroke-width:0.625;stroke-linejoin:round"
         d="M 8.7185878,4.0337352 -2.2072895,0.01601326 8.7185884,-4.0017078 c -1.7454984,2.3720609 -1.7354408,5.6174519 -6e-7,8.035443 z"
         transform="scale(-0.6,-0.6)" />
    </marker>
    <marker
       inkscape:stockid="Arrow2Mend-1T"
       orient="auto"
       refY="0"
       refX="0"
       id="Arrow2Mend-1T"
       style="overflow:visible">
      <path
         inkscape:connector-curvature="0"
         id="path6896"
         style="fill:#0000ff;fill-rule:evenodd;stroke:#0000ff;stroke-width:0.625;stroke-linejoin:round"
         d="M 8.7185878,4.0337352 -2.2072895,0.01601326 8.7185884,-4.0017078 c -1.7454984,2.3720609 -1.7354408,5.6174519 -6e-7,8.035443 z"
         transform="scale(-0.6,-0.6)" />
    </marker>
    <marker
       inkscape:stockid="Arrow2Mend-10"
       orient="auto"
       refY="0"
       refX="0"
       id="Arrow2Mend-10"
       style="overflow:visible">
      <path
         inkscape:connector-curvature="0"
         id="path6899"
         style="fill:#0000ff;fill-rule:evenodd;stroke:#0000ff;stroke-width:0.625;stroke-linejoin:round"
         d="M 8.7185878,4.0337352 -2.2072895,0.01601326 8.7185884,-4.0017078 c -1.7454984,2.3720609 -1.7354408,5.6174519 -6e-7,8.035443 z"
         transform="scale(-0.6,-0.6)" />
    </marker>
    <marker
       inkscape:stockid="Arrow2Mend-13"
       orient="auto"
       refY="0"
       refX="0"
       id="Arrow2Mend-13"
       style="overflow:visible">
      <path
         inkscape:connector-curvature="0"
         id="path6902"
         style="fill:#0000ff;fill-rule:evenodd;stroke:#0000ff;stroke-width:0.625;stroke-linejoin:round"
         d="M 8.7185878,4.0337352 -2.2072895,0.01601326 8.7185884,-4.0017078 c -1.7454984,2.3720609 -1.7354408,5.6174519 -6e-7,8.035443 z"
         transform="scale(-0.6,-0.6)" />
    </marker>
    <marker
       inkscape:stockid="Arrow2Mend-17"
       orient="auto"
       refY="0"
       refX="0"
       id="Arrow2Mend-17"
       style="overflow:visible">
      <path
         inkscape:connector-curvature="0"
         id="path6905"
         style="fill:#0000ff;fill-rule:evenodd;stroke:#0000ff;stroke-width:0.625;stroke-linejoin:round"
         d="M 8.7185878,4.0337352 -2.2072895,0.01601326 8.7185884,-4.0017078 c -1.7454984,2.3720609 -1.7354408,5.6174519 -6e-7,8.035443 z"
         transform="scale(-0.6,-0.6)" />
    </marker>
    <marker
       inkscape:stockid="Arrow2Mstartz"
       orient="auto"
       refY="0.0"
       refX="0.0"
       id="Arrow2Mstartz"
       style="overflow:visible">
      <path
         id="path3216"
         style="stroke-linejoin:round;stroke:#0000ff;stroke-width:0.62500000;fill:#0000ff;fill-rule:evenodd"
         d="M 8.7185878,4.0337352 L -2.2072895,0.016013256 L 8.7185884,-4.0017078 C 6.9730900,-1.6296469 6.9831476,1.6157441 8.7185878,4.0337352 z "
         transform="scale(0.6) translate(0,0)" />
    </marker>
    <marker
       inkscape:stockid="Arrow2Mend-10"
       orient="auto"
       refY="0"
       refX="0"
       id="Arrow2Mend-10-0"
       style="overflow:visible">
      <path
         inkscape:connector-curvature="0"
         id="path6899-1"
         style="fill:#0000ff;fill-rule:evenodd;stroke:#0000ff;stroke-width:0.625;stroke-linejoin:round"
         d="M 8.7185878,4.0337352 -2.2072895,0.01601326 8.7185884,-4.0017078 c -1.7454984,2.3720609 -1.7354408,5.6174519 -6e-7,8.035443 z"
         transform="scale(-0.6,-0.6)" />
    </marker>
    <marker
       inkscape:stockid="Arrow2Mend-1V"
       orient="auto"
       refY="0"
       refX="0"
       id="Arrow2Mend-1V"
       style="overflow:visible">
      <path
         inkscape:connector-curvature="0"
         id="path6477"
         style="stroke-linejoin:round;stroke:#0000ff;stroke-width:0.625;fill:#0000ff;fill-rule:evenodd"
         d="M 8.7185878,4.0337352 -2.2072895,0.01601326 8.7185884,-4.0017078 c -1.7454984,2.3720609 -1.7354408,5.6174519 -6e-7,8.035443 z"
         transform="scale(-0.6,-0.6)" />
    </marker>
  </defs>
  <metadata
     id="metadata7">
    <rdf:RDF>
      <cc:Work
         rdf:about="">
        <dc:format>image/svg+xml</dc:format>
        <dc:type
           rdf:resource="http://purl.org/dc/dcmitype/StillImage" />
        <dc:title />
      </cc:Work>
    </rdf:RDF>
  </metadata>
  <g
     inkscape:label="Layer 1"
     inkscape:groupmode="layer"
     id="layer1"
     transform="translate(-100,-581.86218)">
    <path
       style="fill:none;stroke:#000000;stroke-width:1px;stroke-linecap:round;stroke-linejoin:round;stroke-opacity:0.58823529"
       d="m 100.5,651.86218 200,0"
       id="path2987"
       inkscape:connector-curvature="0"
       sodipodi:nodetypes="cc" />
    <path
       style="fill:none;stroke:#000000;stroke-width:1px;stroke-linecap:round;stroke-linejoin:round;stroke-opacity:0.58823529"
       d="m 200.5,722.36218 0,-140"
       id="path2989"
       inkscape:connector-curvature="0"
       sodipodi:nodetypes="cc" />
    <path
       style="fill:#0000ff;fill-opacity:1;stroke:#0000ff;stroke-width:0.70359755000000002px;stroke-linecap:round;stroke-linejoin:round;stroke-opacity:1;marker-start:url(#Arrow2Mstartz);marker-mid:none;marker-end:none"
       d="m 140.3518,652.01038 49.50496,0"
       inkscape:connector-curvature="0"
       sodipodi:nodetypes="cc"
       id="path3185" />
    <path
       style="fill:#0000ff;fill-opacity:1;stroke:#0000ff;stroke-width:0.704;stroke-linecap:round;stroke-linejoin:round;stroke-opacity:1;marker-start:none;marker-mid:none;marker-end:url(#TriangleOutL);stroke-miterlimit:4;stroke-dasharray:none"
       d="m 210.24752,651.86218 69.50448,0"
       inkscape:connector-curvature="0"
       sodipodi:nodetypes="cc"
       id="path3187" />
    <path
       style="fill:#0000ff;fill-opacity:1;stroke:#0000ff;stroke-width:1px;stroke-linecap:round;stroke-linejoin:round;stroke-opacity:1;marker-start:url(#Arrow2Mstartz);marker-mid:none;marker-end:none"
       d="m 200.5,642.36218 0,-50"
       id="path3759-8"
       inkscape:connector-curvature="0"
       sodipodi:nodetypes="cc" />
    <path
       style="fill:#0000ff;fill-opacity:1;stroke:#0000ff;stroke-width:1px;stroke-linecap:round;stroke-linejoin:round;stroke-opacity:1;marker-start:url(#Arrow2Mstartz);marker-mid:none;marker-end:none"
       d="m 200.5,662.36218 0,50"
       id="path3759-8-9"
       inkscape:connector-curvature="0"
       sodipodi:nodetypes="cc" />
    <path
       style="fill:none;stroke:#0000ff;stroke-width:1px;stroke-linecap:round;stroke-linejoin:round;stroke-opacity:1;marker-start:none;marker-mid:url(#Arrow2Mend-13);marker-end:none"
       d="m 186.07143,656.79075 c 0,0 -21.71793,1.23344 -40,11.07143 -9.22027,4.96164 -18.90023,10.93616 -12.5,24.64286 4.01159,8.5912 26.66294,5.35369 37.50669,-0.34287 21.88838,-11.49866 23.2076,-25.72856 23.2076,-25.72856"
       id="path7162"
       inkscape:connector-curvature="0"
       sodipodi:nodetypes="csssc" />
    <path
       style="fill:none;stroke:#0000ff;stroke-width:1px;stroke-linecap:round;stroke-linejoin:round;stroke-opacity:1;marker-start:none;marker-mid:url(#Arrow2Mend-13);marker-end:none"
       d="m 187.14286,648.57647 c 0,0 -21.39467,-2.34669 -33.92857,-10.00001 -6.90365,-4.21544 -21.05118,-27.71421 -14.06832,-36.25073 6.58384,-8.04872 32.94397,-5.41091 38.35403,0.17931 14.66528,15.15365 20,32.5 20,32.5"
       id="path7164"
       inkscape:connector-curvature="0"
       sodipodi:nodetypes="csssc" />
    <path
       style="fill:none;stroke:#0000ff;stroke-width:1px;stroke-linecap:round;stroke-linejoin:round;stroke-opacity:1;marker-start:none;marker-mid:url(#Arrow2Mend-13);marker-end:none"
       d="m 211.78572,647.86218 c 0,0 39.44713,-5.74599 52.85714,-20.71428 4.60243,-5.13725 4.85437,-18.92909 -2.60081,-24.95975 -8.21557,-6.64574 -30.01986,-4.26213 -32.39919,-3.25454 -23.226,9.8356 -26.07143,34.64286 -26.07143,34.64286"
       id="path7166"
       inkscape:connector-curvature="0"
       sodipodi:nodetypes="csssc" />
    <path
       style="fill:none;stroke:#0000ff;stroke-width:1px;stroke-linecap:round;stroke-linejoin:round;stroke-opacity:1;marker-start:none;marker-mid:url(#Arrow2Mend-13);marker-end:none"
       d="m 213.92858,656.79075 c 0,0 29.16979,-5.41641 48.92857,16.07143 6.27421,6.82326 5.6425,14.65544 -0.81537,21.32312 -9.40895,9.71466 -21.33224,5.93117 -30.25606,1.89116 C 204.0754,683.53138 205,666.79075 205,666.79075"
       id="path7168"
       inkscape:connector-curvature="0"
       sodipodi:nodetypes="csssc" />
    <text
       xml:space="preserve"
       style="font-size:40px;font-style:normal;font-weight:normal;line-height:125%;letter-spacing:0px;word-spacing:0px;fill:#000000;fill-opacity:1;stroke:none;font-family:Sans"
       x="273.57141"
       y="645.00507"
       id="text7255"
       sodipodi:linespacing="125%"><tspan
         sodipodi:role="line"
         id="tspan7257"
         x="273.57141"
         y="645.00507">$X$</tspan></text>
  </g>
</svg>
