<?xml version="1.0" encoding="UTF-8" standalone="no"?>
<!-- Created with Inkscape (http://www.inkscape.org/) -->

<svg
   xmlns:dc="http://purl.org/dc/elements/1.1/"
   xmlns:cc="http://creativecommons.org/ns#"
   xmlns:rdf="http://www.w3.org/1999/02/22-rdf-syntax-ns#"
   xmlns:svg="http://www.w3.org/2000/svg"
   xmlns="http://www.w3.org/2000/svg"
   xmlns:sodipodi="http://sodipodi.sourceforge.net/DTD/sodipodi-0.dtd"
   xmlns:inkscape="http://www.inkscape.org/namespaces/inkscape"
   width="305.37573"
   height="305.53873"
   id="svg11325"
   version="1.1"
   inkscape:version="0.48.3.1 r9886"
   sodipodi:docname="flow_Re_z_squared_sphere.svg">
  <sodipodi:namedview
     id="base"
     pagecolor="#ffffff"
     bordercolor="#666666"
     borderopacity="1.0"
     inkscape:pageopacity="0.0"
     inkscape:pageshadow="2"
     inkscape:zoom="0.70000001"
     inkscape:cx="330.1327"
     inkscape:cy="13.022871"
     inkscape:document-units="px"
     inkscape:current-layer="layer1"
     showgrid="false"
     showguides="true"
     inkscape:guide-bbox="true"
     inkscape:window-width="1366"
     inkscape:window-height="714"
     inkscape:window-x="0"
     inkscape:window-y="27"
     inkscape:window-maximized="1"
     fit-margin-top="0"
     fit-margin-left="0"
     fit-margin-right="0"
     fit-margin-bottom="0" />
  <defs
     id="defs11327">
    <marker
       inkscape:stockid="Arrow2Mstart"
       orient="auto"
       refY="0"
       refX="0"
       id="Arrow2Mstart"
       style="overflow:visible">
      <path
         id="path4151"
         style="fill-rule:evenodd;stroke-width:0.625;stroke-linejoin:round"
         d="M 8.7185878,4.0337352 -2.2072895,0.01601326 8.7185884,-4.0017078 c -1.7454984,2.3720609 -1.7354408,5.6174519 -6e-7,8.035443 z"
         transform="scale(0.6,0.6)"
         inkscape:connector-curvature="0" />
    </marker>
    <marker
       inkscape:stockid="Arrow2Mend"
       orient="auto"
       refY="0"
       refX="0"
       id="Arrow2Mend"
       style="overflow:visible">
      <path
         id="path4154"
         style="fill-rule:evenodd;stroke-width:0.625;stroke-linejoin:round"
         d="M 8.7185878,4.0337352 -2.2072895,0.01601326 8.7185884,-4.0017078 c -1.7454984,2.3720609 -1.7354408,5.6174519 -6e-7,8.035443 z"
         transform="scale(-0.6,-0.6)"
         inkscape:connector-curvature="0" />
    </marker>
    <marker
       inkscape:stockid="Arrow2Mendr"
       orient="auto"
       refY="0"
       refX="0"
       id="Arrow2Mendr"
       style="overflow:visible">
      <path
         id="path3219"
         style="fill:#0000ff;fill-rule:evenodd;stroke:#0000ff;stroke-width:0.625;stroke-linejoin:round"
         d="M 8.7185878,4.0337352 -2.2072895,0.01601326 8.7185884,-4.0017078 c -1.7454984,2.3720609 -1.7354408,5.6174519 -6e-7,8.035443 z"
         transform="scale(-0.6,-0.6)"
         inkscape:connector-curvature="0" />
    </marker>
    <marker
       inkscape:stockid="Arrow2MstartG"
       orient="auto"
       refY="0"
       refX="0"
       id="Arrow2MstartG"
       style="overflow:visible">
      <path
         id="path3222"
         style="fill:#0000ff;fill-rule:evenodd;stroke:#0000ff;stroke-width:0.625;stroke-linejoin:round"
         d="M 8.7185878,4.0337352 -2.2072895,0.01601326 8.7185884,-4.0017078 c -1.7454984,2.3720609 -1.7354408,5.6174519 -6e-7,8.035443 z"
         transform="scale(0.6,0.6)"
         inkscape:connector-curvature="0" />
    </marker>
    <marker
       inkscape:stockid="Arrow2MendG"
       orient="auto"
       refY="0"
       refX="0"
       id="Arrow2MendG"
       style="overflow:visible">
      <path
         id="path3225"
         style="fill:#0000ff;fill-rule:evenodd;stroke:#0000ff;stroke-width:0.625;stroke-linejoin:round"
         d="M 8.7185878,4.0337352 -2.2072895,0.01601326 8.7185884,-4.0017078 c -1.7454984,2.3720609 -1.7354408,5.6174519 -6e-7,8.035443 z"
         transform="scale(-0.6,-0.6)"
         inkscape:connector-curvature="0" />
    </marker>
    <marker
       inkscape:stockid="Arrow2Mstartv"
       orient="auto"
       refY="0"
       refX="0"
       id="Arrow2Mstartv"
       style="overflow:visible">
      <path
         id="path3228"
         style="fill:#0000ff;fill-rule:evenodd;stroke:#0000ff;stroke-width:0.625;stroke-linejoin:round"
         d="M 8.7185878,4.0337352 -2.2072895,0.01601326 8.7185884,-4.0017078 c -1.7454984,2.3720609 -1.7354408,5.6174519 -6e-7,8.035443 z"
         transform="scale(0.6,0.6)"
         inkscape:connector-curvature="0" />
    </marker>
    <marker
       inkscape:stockid="Arrow2Mstartg"
       orient="auto"
       refY="0"
       refX="0"
       id="Arrow2Mstartg"
       style="overflow:visible">
      <path
         id="path3231"
         style="fill:#0000ff;fill-rule:evenodd;stroke:#0000ff;stroke-width:0.625;stroke-linejoin:round"
         d="M 8.7185878,4.0337352 -2.2072895,0.01601326 8.7185884,-4.0017078 c -1.7454984,2.3720609 -1.7354408,5.6174519 -6e-7,8.035443 z"
         transform="scale(0.6,0.6)"
         inkscape:connector-curvature="0" />
    </marker>
    <marker
       inkscape:stockid="Arrow2Mendh"
       orient="auto"
       refY="0"
       refX="0"
       id="Arrow2Mendh"
       style="overflow:visible">
      <path
         id="path3234"
         style="fill:#0000ff;fill-rule:evenodd;stroke:#0000ff;stroke-width:0.625;stroke-linejoin:round"
         d="M 8.7185878,4.0337352 -2.2072895,0.01601326 8.7185884,-4.0017078 c -1.7454984,2.3720609 -1.7354408,5.6174519 -6e-7,8.035443 z"
         transform="scale(-0.6,-0.6)"
         inkscape:connector-curvature="0" />
    </marker>
    <marker
       inkscape:stockid="Arrow2MstartGx"
       orient="auto"
       refY="0"
       refX="0"
       id="Arrow2MstartGx"
       style="overflow:visible">
      <path
         id="path3237"
         style="fill:#0000ff;fill-rule:evenodd;stroke:#0000ff;stroke-width:0.625;stroke-linejoin:round"
         d="M 8.7185878,4.0337352 -2.2072895,0.01601326 8.7185884,-4.0017078 c -1.7454984,2.3720609 -1.7354408,5.6174519 -6e-7,8.035443 z"
         transform="scale(0.6,0.6)"
         inkscape:connector-curvature="0" />
    </marker>
    <marker
       inkscape:stockid="Arrow2MendK"
       orient="auto"
       refY="0"
       refX="0"
       id="Arrow2MendK"
       style="overflow:visible">
      <path
         id="path3240"
         style="fill:#0000ff;fill-rule:evenodd;stroke:#0000ff;stroke-width:0.625;stroke-linejoin:round"
         d="M 8.7185878,4.0337352 -2.2072895,0.01601326 8.7185884,-4.0017078 c -1.7454984,2.3720609 -1.7354408,5.6174519 -6e-7,8.035443 z"
         transform="scale(-0.6,-0.6)"
         inkscape:connector-curvature="0" />
    </marker>
    <marker
       inkscape:stockid="Arrow2Mstartb"
       orient="auto"
       refY="0"
       refX="0"
       id="Arrow2Mstartb"
       style="overflow:visible">
      <path
         id="path3322"
         style="fill:#0000ff;fill-rule:evenodd;stroke:#0000ff;stroke-width:0.625;stroke-linejoin:round"
         d="M 8.7185878,4.0337352 -2.2072895,0.01601326 8.7185884,-4.0017078 c -1.7454984,2.3720609 -1.7354408,5.6174519 -6e-7,8.035443 z"
         transform="scale(0.6,0.6)"
         inkscape:connector-curvature="0" />
    </marker>
    <marker
       inkscape:stockid="Arrow2Mendf"
       orient="auto"
       refY="0"
       refX="0"
       id="Arrow2Mendf"
       style="overflow:visible">
      <path
         id="path3325"
         style="fill:#0000ff;fill-rule:evenodd;stroke:#0000ff;stroke-width:0.625;stroke-linejoin:round"
         d="M 8.7185878,4.0337352 -2.2072895,0.01601326 8.7185884,-4.0017078 c -1.7454984,2.3720609 -1.7354408,5.6174519 -6e-7,8.035443 z"
         transform="scale(-0.6,-0.6)"
         inkscape:connector-curvature="0" />
    </marker>
    <marker
       inkscape:stockid="Arrow2Mendx"
       orient="auto"
       refY="0"
       refX="0"
       id="Arrow2Mendx"
       style="overflow:visible">
      <path
         id="path3328"
         style="fill:#0000ff;fill-rule:evenodd;stroke:#0000ff;stroke-width:0.625;stroke-linejoin:round"
         d="M 8.7185878,4.0337352 -2.2072895,0.01601326 8.7185884,-4.0017078 c -1.7454984,2.3720609 -1.7354408,5.6174519 -6e-7,8.035443 z"
         transform="scale(-0.6,-0.6)"
         inkscape:connector-curvature="0" />
    </marker>
    <marker
       inkscape:stockid="Arrow2MstartT"
       orient="auto"
       refY="0"
       refX="0"
       id="Arrow2MstartT"
       style="overflow:visible">
      <path
         id="path3331"
         style="fill:#0000ff;fill-rule:evenodd;stroke:#0000ff;stroke-width:0.625;stroke-linejoin:round"
         d="M 8.7185878,4.0337352 -2.2072895,0.01601326 8.7185884,-4.0017078 c -1.7454984,2.3720609 -1.7354408,5.6174519 -6e-7,8.035443 z"
         transform="scale(0.6,0.6)"
         inkscape:connector-curvature="0" />
    </marker>
    <marker
       inkscape:stockid="Arrow2Mstarts"
       orient="auto"
       refY="0"
       refX="0"
       id="Arrow2Mstarts"
       style="overflow:visible">
      <path
         id="path3334"
         style="fill:#0000ff;fill-rule:evenodd;stroke:#0000ff;stroke-width:0.625;stroke-linejoin:round"
         d="M 8.7185878,4.0337352 -2.2072895,0.01601326 8.7185884,-4.0017078 c -1.7454984,2.3720609 -1.7354408,5.6174519 -6e-7,8.035443 z"
         transform="scale(0.6,0.6)"
         inkscape:connector-curvature="0" />
    </marker>
    <marker
       inkscape:stockid="Arrow2Mends"
       orient="auto"
       refY="0"
       refX="0"
       id="Arrow2Mends"
       style="overflow:visible">
      <path
         id="path3337"
         style="fill:#0000ff;fill-rule:evenodd;stroke:#0000ff;stroke-width:0.625;stroke-linejoin:round"
         d="M 8.7185878,4.0337352 -2.2072895,0.01601326 8.7185884,-4.0017078 c -1.7454984,2.3720609 -1.7354408,5.6174519 -6e-7,8.035443 z"
         transform="scale(-0.6,-0.6)"
         inkscape:connector-curvature="0" />
    </marker>
  </defs>
  <metadata
     id="metadata11330">
    <rdf:RDF>
      <cc:Work
         rdf:about="">
        <dc:format>image/svg+xml</dc:format>
        <dc:type
           rdf:resource="http://purl.org/dc/dcmitype/StillImage" />
        <dc:title />
      </cc:Work>
    </rdf:RDF>
  </metadata>
  <g
     inkscape:label="Layer 1"
     inkscape:groupmode="layer"
     id="layer1"
     transform="translate(-199.8533,-549.60482)">
    <path
       style="fill:none;stroke:#0000ff;stroke-width:1.25000000000000000;stroke-linecap:round;stroke-linejoin:round;stroke-miterlimit:4;stroke-opacity:1;stroke-dasharray:none;stroke-dashoffset:0;marker-mid:url(#Arrow2Mstartb)"
       d="m 499.5217,702.36217 c 0,37.18005 -13.57036,71.19057 -36.02823,97.34871 C 436.0714,831.65113 395.39851,851.88387 350,851.88387 c -36.91503,0 -70.70554,-13.37759 -96.78814,-35.54934 C 220.94795,788.90829 200.4783,748.0257 200.4783,702.36217"
       id="path12367"
       inkscape:connector-curvature="0" />
    <path
       style="fill:none;stroke:#0000ff;stroke-width:1.25000000000000000;stroke-linecap:round;stroke-linejoin:round;stroke-miterlimit:4;stroke-opacity:1;stroke-dasharray:none;stroke-dashoffset:0;marker-mid:url(#Arrow2MendG)"
       d="m 200.4783,702.36217 c 0,-41.14453 16.61865,-78.40757 43.5097,-105.44286 27.08026,-27.22551 64.57798,-44.07883 106.012,-44.07883 35.37088,0 67.87317,12.28183 93.47492,32.81352 34.16932,27.40257 56.04678,69.50049 56.04678,116.70817"
       id="path11333"
       inkscape:connector-curvature="0" />
    <path
       style="fill:none;stroke:#0000ff;stroke-width:1.25000000000000000;stroke-linecap:round;stroke-linejoin:round;stroke-miterlimit:4;stroke-opacity:1;stroke-dasharray:none;marker-mid:url(#Arrow2Mstartg)"
       d="m 200.62763,700.59441 c 0,0 15.5846,7.29336 44.26549,10.04415 30.74952,2.94919 93.51209,4.71753 116.99437,4.46589 23.48229,-0.25165 70.64087,-1.64984 102.4086,-5.64527 22.00113,-2.76708 34.27534,-9.12473 34.27534,-9.12473"
       id="path11335"
       inkscape:connector-curvature="0"
       sodipodi:nodetypes="cszsc" />
    <path
       style="fill:none;stroke:#0000ff;stroke-width:1.25000000000000000;stroke-linecap:round;stroke-linejoin:round;stroke-miterlimit:4;stroke-opacity:1;stroke-dasharray:3.75000000000000000, 3.75000000000000000;stroke-dashoffset:0;marker-mid:url(#Arrow2Mstartb)"
       d="m 201.21193,699.72912 c 0,0 19.37491,-6.9592 47.20004,-10.87255 37.334,-5.25068 101.30583,-7.81504 117.2632,-7.77421 15.95737,0.0408 58.96811,2.07952 91.19033,7.22189 25.51923,4.07264 41.87925,10.99901 41.87925,10.99901"
       id="path11337"
       inkscape:connector-curvature="0"
       sodipodi:nodetypes="cszsc" />
    <path
       style="fill:none;stroke:#0000ff;stroke-width:1.25000000000000000;stroke-linecap:butt;stroke-linejoin:miter;stroke-miterlimit:4;stroke-opacity:1;stroke-dasharray:none;marker-mid:url(#Arrow2Mstartv)"
       d="m 498.51028,699.31387 c 0,0 -11.581,-48.76614 -25.75889,-68.69037 -17.88451,-25.13315 -41.89433,-49.5135 -71.21576,-59.09393 -28.85967,-9.42956 -64.68096,-9.72941 -90.91372,5.55584 -21.34392,12.43663 -41.09878,37.43121 -40.40611,62.12438 0.52687,18.78254 17.10425,35.98995 33.33504,45.45687 28.41077,16.57113 62.15553,14.21542 94.95433,16.66751 32.25066,2.41111 100.00511,-2.0203 100.00511,-2.0203 z"
       id="path13429"
       inkscape:connector-curvature="0"
       sodipodi:nodetypes="cssssssc" />
    <path
       style="fill:none;stroke:#0000ff;stroke-width:1.25000000000000000;stroke-linecap:butt;stroke-linejoin:miter;stroke-miterlimit:4;stroke-opacity:1;stroke-dasharray:none;marker-mid:url(#Arrow2Mstartv)"
       d="m 499.52043,698.80879 c 0,0 -20.12625,-32.86801 -34.34519,-45.45686 -14.57215,-12.90157 -33.08253,-31.38133 -52.02285,-35.86041 -24.12954,-5.70625 -49.85586,-12.80171 -73.23606,-4.54569 -7.40028,2.61319 -16.99581,13.96043 -18.18274,21.71828 -1.72636,11.28362 10.29123,29.18841 20.20304,34.85026 16.33792,9.33259 37.51413,11.4933 56.06347,14.64721 34.18717,5.81278 101.52033,14.64721 101.52033,14.64721 z"
       id="path13431"
       inkscape:connector-curvature="0"
       sodipodi:nodetypes="cssssssc" />
    <path
       style="fill:none;stroke:#0000ff;stroke-width:1.25000000000000000;stroke-linecap:butt;stroke-linejoin:miter;stroke-miterlimit:4;stroke-opacity:1;stroke-dasharray:none;marker-mid:url(#Arrow2MendG)"
       d="m 498.0052,700.32402 c 0,0 -54.20879,20.37059 -96.97465,27.7792 -37.38334,6.47616 -63.92255,9.41761 -90.91372,29.29442 -12.6723,9.33212 -18.58619,24.22693 -17.17259,39.90103 2.10224,23.30968 10.32459,34.94726 32.32488,42.93148 33.86782,12.29112 73.23789,-2.02714 104.04571,-20.70813 21.97127,-13.32275 37.10713,-36.58366 49.49747,-59.09392 10.14151,-18.42467 19.1929,-60.10408 19.1929,-60.10408 z"
       id="path13433"
       inkscape:connector-curvature="0"
       sodipodi:nodetypes="cssssssc" />
    <path
       style="fill:none;stroke:#0000ff;stroke-width:1.25000000000000000;stroke-linecap:butt;stroke-linejoin:miter;stroke-miterlimit:4;stroke-opacity:1;stroke-dasharray:none;marker-mid:url(#Arrow2MendG)"
       d="m 495.47982,702.34433 c 0,0 -42.4348,24.2206 -70.2056,34.34518 -24.41942,8.90275 -55.49707,8.47232 -75.76144,24.74875 -9.03032,7.25319 -19.62172,18.75974 -18.68783,30.30457 0.85563,10.57739 0.61445,17.13459 10.60661,20.70812 24.70766,8.83629 54.38679,-0.23801 77.78174,-12.12183 20.16643,-10.24384 34.29187,-29.97683 47.98225,-47.98224 11.59027,-15.24338 28.28427,-50.00255 28.28427,-50.00255 z"
       id="path13435"
       inkscape:connector-curvature="0"
       sodipodi:nodetypes="cssssssc" />
    <text
       xml:space="preserve"
       style="font-size:40px;font-style:normal;font-weight:normal;line-height:125%;letter-spacing:0px;word-spacing:0px;fill:#000000;fill-opacity:1;stroke:none;font-family:Sans"
       x="176.6198"
       y="710.18665"
       id="text14132"
       sodipodi:linespacing="125%"><tspan
         sodipodi:role="line"
         id="tspan14134"
         x="176.6198"
         y="710.18665">$0$</tspan></text>
    <text
       xml:space="preserve"
       style="font-size:40px;font-style:normal;font-weight:normal;line-height:125%;letter-spacing:0px;word-spacing:0px;fill:#000000;fill-opacity:1;stroke:none;font-family:Sans"
       x="505.42447"
       y="707.15619"
       id="text14136"
       sodipodi:linespacing="125%"><tspan
         sodipodi:role="line"
         x="505.42447"
         y="707.15619"
         id="tspan14140">$\infty$</tspan></text>
  </g>
</svg>
