<?xml version="1.0" encoding="UTF-8" standalone="no"?>
<!-- Created with Inkscape (http://www.inkscape.org/) -->

<svg
   xmlns:dc="http://purl.org/dc/elements/1.1/"
   xmlns:cc="http://creativecommons.org/ns#"
   xmlns:rdf="http://www.w3.org/1999/02/22-rdf-syntax-ns#"
   xmlns:svg="http://www.w3.org/2000/svg"
   xmlns="http://www.w3.org/2000/svg"
   xmlns:sodipodi="http://sodipodi.sourceforge.net/DTD/sodipodi-0.dtd"
   xmlns:inkscape="http://www.inkscape.org/namespaces/inkscape"
   width="201"
   height="141"
   id="svg2"
   version="1.1"
   inkscape:version="0.48.3.1 r9886"
   sodipodi:docname="flow_Re_z_squared_at_zero.svg">
  <sodipodi:namedview
     id="base"
     pagecolor="#ffffff"
     bordercolor="#666666"
     borderopacity="1.0"
     inkscape:pageopacity="0.0"
     inkscape:pageshadow="2"
     inkscape:zoom="2.8"
     inkscape:cx="70.245108"
     inkscape:cy="81.931911"
     inkscape:document-units="px"
     inkscape:current-layer="layer1"
     showgrid="false"
     inkscape:snap-grids="false"
     inkscape:window-width="1366"
     inkscape:window-height="714"
     inkscape:window-x="0"
     inkscape:window-y="27"
     inkscape:window-maximized="1"
     fit-margin-top="0"
     fit-margin-left="0"
     fit-margin-right="0"
     fit-margin-bottom="0" />
  <defs
     id="defs4">
    <marker
       inkscape:stockid="Arrow2Mstart"
       orient="auto"
       refY="0.0"
       refX="0.0"
       id="Arrow2Mstart"
       style="overflow:visible">
      <path
         id="path5923"
         style="fill-rule:evenodd;stroke-width:0.62500000;stroke-linejoin:round"
         d="M 8.7185878,4.0337352 L -2.2072895,0.016013256 L 8.7185884,-4.0017078 C 6.9730900,-1.6296469 6.9831476,1.6157441 8.7185878,4.0337352 z "
         transform="scale(0.6) translate(0,0)" />
    </marker>
    <marker
       inkscape:stockid="Arrow2Mend"
       orient="auto"
       refY="0"
       refX="0"
       id="Arrow2Mend"
       style="overflow:visible">
      <path
         id="path4154"
         style="fill-rule:evenodd;stroke-width:0.625;stroke-linejoin:round"
         d="M 8.7185878,4.0337352 -2.2072895,0.01601326 8.7185884,-4.0017078 c -1.7454984,2.3720609 -1.7354408,5.6174519 -6e-7,8.035443 z"
         transform="scale(-0.6,-0.6)"
         inkscape:connector-curvature="0" />
    </marker>
    <marker
       inkscape:stockid="Arrow2Mend"
       orient="auto"
       refY="0"
       refX="0"
       id="Arrow2Mend-7"
       style="overflow:visible">
      <path
         inkscape:connector-curvature="0"
         id="path4154-6"
         style="fill-rule:evenodd;stroke-width:0.625;stroke-linejoin:round"
         d="M 8.7185878,4.0337352 -2.2072895,0.01601326 8.7185884,-4.0017078 c -1.7454984,2.3720609 -1.7354408,5.6174519 -6e-7,8.035443 z"
         transform="scale(-0.6,-0.6)" />
    </marker>
    <marker
       inkscape:stockid="Arrow2Mend"
       orient="auto"
       refY="0"
       refX="0"
       id="Arrow2Mend-2"
       style="overflow:visible">
      <path
         inkscape:connector-curvature="0"
         id="path4154-62"
         style="fill-rule:evenodd;stroke-width:0.625;stroke-linejoin:round"
         d="M 8.7185878,4.0337352 -2.2072895,0.01601326 8.7185884,-4.0017078 c -1.7454984,2.3720609 -1.7354408,5.6174519 -6e-7,8.035443 z"
         transform="scale(-0.6,-0.6)" />
    </marker>
    <marker
       inkscape:stockid="Arrow2Mend"
       orient="auto"
       refY="0"
       refX="0"
       id="Arrow2Mend-4"
       style="overflow:visible">
      <path
         inkscape:connector-curvature="0"
         id="path4154-7"
         style="fill-rule:evenodd;stroke-width:0.625;stroke-linejoin:round"
         d="M 8.7185878,4.0337352 -2.2072895,0.01601326 8.7185884,-4.0017078 c -1.7454984,2.3720609 -1.7354408,5.6174519 -6e-7,8.035443 z"
         transform="scale(-0.6,-0.6)" />
    </marker>
    <marker
       inkscape:stockid="Arrow2Mend"
       orient="auto"
       refY="0"
       refX="0"
       id="Arrow2Mend-1"
       style="overflow:visible">
      <path
         inkscape:connector-curvature="0"
         id="path4154-8"
         style="fill-rule:evenodd;stroke-width:0.625;stroke-linejoin:round"
         d="M 8.7185878,4.0337352 -2.2072895,0.01601326 8.7185884,-4.0017078 c -1.7454984,2.3720609 -1.7354408,5.6174519 -6e-7,8.035443 z"
         transform="scale(-0.6,-0.6)" />
    </marker>
    <marker
       inkscape:stockid="Arrow2Mend-1p"
       orient="auto"
       refY="0"
       refX="0"
       id="Arrow2Mend-1p"
       style="overflow:visible">
      <path
         inkscape:connector-curvature="0"
         id="path6893"
         style="fill:#0000ff;fill-rule:evenodd;stroke:#0000ff;stroke-width:0.625;stroke-linejoin:round"
         d="M 8.7185878,4.0337352 -2.2072895,0.01601326 8.7185884,-4.0017078 c -1.7454984,2.3720609 -1.7354408,5.6174519 -6e-7,8.035443 z"
         transform="scale(-0.6,-0.6)" />
    </marker>
    <marker
       inkscape:stockid="Arrow2Mend-1T"
       orient="auto"
       refY="0"
       refX="0"
       id="Arrow2Mend-1T"
       style="overflow:visible">
      <path
         inkscape:connector-curvature="0"
         id="path6896"
         style="fill:#0000ff;fill-rule:evenodd;stroke:#0000ff;stroke-width:0.625;stroke-linejoin:round"
         d="M 8.7185878,4.0337352 -2.2072895,0.01601326 8.7185884,-4.0017078 c -1.7454984,2.3720609 -1.7354408,5.6174519 -6e-7,8.035443 z"
         transform="scale(-0.6,-0.6)" />
    </marker>
    <marker
       inkscape:stockid="Arrow2Mend-10"
       orient="auto"
       refY="0"
       refX="0"
       id="Arrow2Mend-10"
       style="overflow:visible">
      <path
         inkscape:connector-curvature="0"
         id="path6899"
         style="fill:#0000ff;fill-rule:evenodd;stroke:#0000ff;stroke-width:0.625;stroke-linejoin:round"
         d="M 8.7185878,4.0337352 -2.2072895,0.01601326 8.7185884,-4.0017078 c -1.7454984,2.3720609 -1.7354408,5.6174519 -6e-7,8.035443 z"
         transform="scale(-0.6,-0.6)" />
    </marker>
    <marker
       inkscape:stockid="Arrow2Mend-13"
       orient="auto"
       refY="0"
       refX="0"
       id="Arrow2Mend-13"
       style="overflow:visible">
      <path
         inkscape:connector-curvature="0"
         id="path6902"
         style="fill:#0000ff;fill-rule:evenodd;stroke:#0000ff;stroke-width:0.625;stroke-linejoin:round"
         d="M 8.7185878,4.0337352 -2.2072895,0.01601326 8.7185884,-4.0017078 c -1.7454984,2.3720609 -1.7354408,5.6174519 -6e-7,8.035443 z"
         transform="scale(-0.6,-0.6)" />
    </marker>
    <marker
       inkscape:stockid="Arrow2Mend-17"
       orient="auto"
       refY="0"
       refX="0"
       id="Arrow2Mend-17"
       style="overflow:visible">
      <path
         inkscape:connector-curvature="0"
         id="path6905"
         style="fill:#0000ff;fill-rule:evenodd;stroke:#0000ff;stroke-width:0.625;stroke-linejoin:round"
         d="M 8.7185878,4.0337352 -2.2072895,0.01601326 8.7185884,-4.0017078 c -1.7454984,2.3720609 -1.7354408,5.6174519 -6e-7,8.035443 z"
         transform="scale(-0.6,-0.6)" />
    </marker>
    <marker
       inkscape:stockid="Arrow2Mstartz"
       orient="auto"
       refY="0.0"
       refX="0.0"
       id="Arrow2Mstartz"
       style="overflow:visible">
      <path
         id="path3216"
         style="stroke-linejoin:round;stroke:#0000ff;stroke-width:0.62500000;fill:#0000ff;fill-rule:evenodd"
         d="M 8.7185878,4.0337352 L -2.2072895,0.016013256 L 8.7185884,-4.0017078 C 6.9730900,-1.6296469 6.9831476,1.6157441 8.7185878,4.0337352 z "
         transform="scale(0.6) translate(0,0)" />
    </marker>
    <marker
       inkscape:stockid="Arrow2Mend-10"
       orient="auto"
       refY="0"
       refX="0"
       id="Arrow2Mend-10-0"
       style="overflow:visible">
      <path
         inkscape:connector-curvature="0"
         id="path6899-1"
         style="fill:#0000ff;fill-rule:evenodd;stroke:#0000ff;stroke-width:0.625;stroke-linejoin:round"
         d="M 8.7185878,4.0337352 -2.2072895,0.01601326 8.7185884,-4.0017078 c -1.7454984,2.3720609 -1.7354408,5.6174519 -6e-7,8.035443 z"
         transform="scale(-0.6,-0.6)" />
    </marker>
    <marker
       inkscape:stockid="Arrow2Mend-1V"
       orient="auto"
       refY="0"
       refX="0"
       id="Arrow2Mend-1V"
       style="overflow:visible">
      <path
         inkscape:connector-curvature="0"
         id="path6477"
         style="stroke-linejoin:round;stroke:#0000ff;stroke-width:0.625;fill:#0000ff;fill-rule:evenodd"
         d="M 8.7185878,4.0337352 -2.2072895,0.01601326 8.7185884,-4.0017078 c -1.7454984,2.3720609 -1.7354408,5.6174519 -6e-7,8.035443 z"
         transform="scale(-0.6,-0.6)" />
    </marker>
  </defs>
  <metadata
     id="metadata7">
    <rdf:RDF>
      <cc:Work
         rdf:about="">
        <dc:format>image/svg+xml</dc:format>
        <dc:type
           rdf:resource="http://purl.org/dc/dcmitype/StillImage" />
        <dc:title />
      </cc:Work>
    </rdf:RDF>
  </metadata>
  <g
     inkscape:label="Layer 1"
     inkscape:groupmode="layer"
     id="layer1"
     transform="translate(-100,-581.86218)">
    <path
       style="fill:none;stroke:#000000;stroke-width:1px;stroke-linecap:round;stroke-linejoin:round;stroke-opacity:0.58823529"
       d="m 100.5,651.86218 200,0"
       id="path2987"
       inkscape:connector-curvature="0"
       sodipodi:nodetypes="cc" />
    <path
       style="fill:none;stroke:#000000;stroke-width:1px;stroke-linecap:round;stroke-linejoin:round;stroke-opacity:0.58823529"
       d="m 200.5,722.36218 0,-140"
       id="path2989"
       inkscape:connector-curvature="0"
       sodipodi:nodetypes="cc" />
    <path
       style="fill:#0000ff;fill-opacity:1;stroke:#0000ff;stroke-width:0.70359755000000002px;stroke-linecap:round;stroke-linejoin:round;stroke-opacity:1;marker-start:none;marker-mid:none;marker-end:url(#Arrow2Mend-10-0)"
       d="m 140.3518,652.01038 49.50496,0"
       inkscape:connector-curvature="0"
       sodipodi:nodetypes="cc"
       id="path3185" />
    <path
       style="stroke-linejoin:round;marker-end:none;stroke-opacity:1;fill-opacity:1;marker-start:url(#Arrow2Mstartz);stroke:#0000ff;stroke-linecap:round;stroke-width:0.70359755000000002px;marker-mid:none;fill:#0000ff"
       d="m 210.24752,651.86218 49.50496,0"
       inkscape:connector-curvature="0"
       sodipodi:nodetypes="cc"
       id="path3187" />
    <path
       style="fill:#0000ff;fill-opacity:1;stroke:#0000ff;stroke-width:1px;stroke-linecap:round;stroke-linejoin:round;stroke-opacity:1;marker-start:none;marker-mid:none;marker-end:url(#Arrow2Mend-1p)"
       d="m 200.5,642.36218 0,-50"
       id="path3759-8"
       inkscape:connector-curvature="0"
       sodipodi:nodetypes="cc" />
    <path
       style="fill:#0000ff;fill-opacity:1;stroke:#0000ff;stroke-width:1px;stroke-linecap:round;stroke-linejoin:round;stroke-opacity:1;marker-start:none;marker-mid:none;marker-end:url(#Arrow2Mend-1p)"
       d="m 200.5,662.36218 0,50"
       id="path3759-8-9"
       inkscape:connector-curvature="0"
       sodipodi:nodetypes="cc" />
    <path
       style="fill:none;stroke:#0000ff;stroke-width:1px;stroke-linecap:round;stroke-linejoin:round;stroke-opacity:1;marker-start:none;marker-mid:url(#Arrow2Mstartz)"
       d="m 108.92857,11.714286 c 0,0 -1.77969,26.451211 3.21429,38.571428 1.9586,4.75345 4.95701,7.527619 9.64286,9.642857 16.06017,7.249721 64.28571,6.428572 64.28571,6.428572"
       id="path7162"
       inkscape:connector-curvature="0"
       transform="translate(100,581.86218)"
       sodipodi:nodetypes="cssc" />
    <path
       style="fill:none;stroke:#0000ff;stroke-width:1px;stroke-linecap:round;stroke-linejoin:round;stroke-opacity:1;marker-start:none;marker-mid:url(#Arrow2Mstartz)"
       d="m 111.07143,127.42857 c 0,0 0.0581,-29.797022 6.42857,-41.785713 1.92216,-3.617366 5.75291,-6.930401 9.64286,-8.214286 19.56046,-6.45597 66.42857,-3.571428 66.42857,-3.571428"
       id="path7164"
       inkscape:connector-curvature="0"
       transform="translate(100,581.86218)"
       sodipodi:nodetypes="cssc" />
    <path
       style="fill:none;stroke:#0000ff;stroke-width:1px;stroke-linecap:round;stroke-linejoin:round;stroke-opacity:1;marker-start:none;marker-mid:url(#Arrow2Mstartz)"
       d="m 88.214286,127.78571 c 0,0 -0.673098,-28.365128 -7.142858,-40.714281 -2.287239,-4.365767 -7.818228,-5.95974 -12.5,-7.5 C 50.702576,73.69274 18.214286,72.428571 18.214286,72.428571"
       id="path7166"
       inkscape:connector-curvature="0"
       transform="translate(100,581.86218)"
       sodipodi:nodetypes="cssc" />
    <path
       style="fill:none;stroke:#0000ff;stroke-width:1px;stroke-linecap:round;stroke-linejoin:round;stroke-opacity:1;marker-start:none;marker-mid:url(#Arrow2Mstartz)"
       d="m 88.214286,12.428571 c 0,0 1.849522,27.85845 -4.642857,39.642857 -2.405871,4.366929 -7.747184,6.707963 -12.5,8.214286 -17.485811,5.541827 -58.571429,5 -58.571429,5"
       id="path7168"
       inkscape:connector-curvature="0"
       transform="translate(100,581.86218)"
       sodipodi:nodetypes="cssc" />
  </g>
</svg>
