<?xml version="1.0" encoding="UTF-8" standalone="no"?>
<!-- Created with Inkscape (http://www.inkscape.org/) -->

<svg
   xmlns:dc="http://purl.org/dc/elements/1.1/"
   xmlns:cc="http://creativecommons.org/ns#"
   xmlns:rdf="http://www.w3.org/1999/02/22-rdf-syntax-ns#"
   xmlns:svg="http://www.w3.org/2000/svg"
   xmlns="http://www.w3.org/2000/svg"
   xmlns:sodipodi="http://sodipodi.sourceforge.net/DTD/sodipodi-0.dtd"
   xmlns:inkscape="http://www.inkscape.org/namespaces/inkscape"
   width="301.21429"
   height="300"
   id="svg11325"
   version="1.1"
   inkscape:version="0.48.3.1 r9886"
   sodipodi:docname="flow_Re_z_sphere.svg">
  <sodipodi:namedview
     id="base"
     pagecolor="#ffffff"
     bordercolor="#666666"
     borderopacity="1.0"
     inkscape:pageopacity="0.0"
     inkscape:pageshadow="2"
     inkscape:zoom="1.4"
     inkscape:cx="147.60045"
     inkscape:cy="154.22618"
     inkscape:document-units="px"
     inkscape:current-layer="layer1"
     showgrid="false"
     showguides="true"
     inkscape:guide-bbox="true"
     inkscape:window-width="1366"
     inkscape:window-height="714"
     inkscape:window-x="0"
     inkscape:window-y="27"
     inkscape:window-maximized="1"
     fit-margin-top="0"
     fit-margin-left="0"
     fit-margin-right="0"
     fit-margin-bottom="0" />
  <defs
     id="defs11327">
    <marker
       inkscape:stockid="Arrow2Mstart"
       orient="auto"
       refY="0"
       refX="0"
       id="Arrow2Mstart"
       style="overflow:visible">
      <path
         id="path4151"
         style="fill-rule:evenodd;stroke-width:0.625;stroke-linejoin:round"
         d="M 8.7185878,4.0337352 -2.2072895,0.01601326 8.7185884,-4.0017078 c -1.7454984,2.3720609 -1.7354408,5.6174519 -6e-7,8.035443 z"
         transform="scale(0.6,0.6)"
         inkscape:connector-curvature="0" />
    </marker>
    <marker
       inkscape:stockid="Arrow2Mend"
       orient="auto"
       refY="0"
       refX="0"
       id="Arrow2Mend"
       style="overflow:visible">
      <path
         id="path4154"
         style="fill-rule:evenodd;stroke-width:0.625;stroke-linejoin:round"
         d="M 8.7185878,4.0337352 -2.2072895,0.01601326 8.7185884,-4.0017078 c -1.7454984,2.3720609 -1.7354408,5.6174519 -6e-7,8.035443 z"
         transform="scale(-0.6,-0.6)"
         inkscape:connector-curvature="0" />
    </marker>
    <marker
       inkscape:stockid="Arrow2Mendr"
       orient="auto"
       refY="0"
       refX="0"
       id="Arrow2Mendr"
       style="overflow:visible">
      <path
         id="path3219"
         style="fill:#0000ff;fill-rule:evenodd;stroke:#0000ff;stroke-width:0.625;stroke-linejoin:round"
         d="M 8.7185878,4.0337352 -2.2072895,0.01601326 8.7185884,-4.0017078 c -1.7454984,2.3720609 -1.7354408,5.6174519 -6e-7,8.035443 z"
         transform="scale(-0.6,-0.6)"
         inkscape:connector-curvature="0" />
    </marker>
    <marker
       inkscape:stockid="Arrow2MstartG"
       orient="auto"
       refY="0"
       refX="0"
       id="Arrow2MstartG"
       style="overflow:visible">
      <path
         id="path3222"
         style="fill:#0000ff;fill-rule:evenodd;stroke:#0000ff;stroke-width:0.625;stroke-linejoin:round"
         d="M 8.7185878,4.0337352 -2.2072895,0.01601326 8.7185884,-4.0017078 c -1.7454984,2.3720609 -1.7354408,5.6174519 -6e-7,8.035443 z"
         transform="scale(0.6,0.6)"
         inkscape:connector-curvature="0" />
    </marker>
    <marker
       inkscape:stockid="Arrow2MendG"
       orient="auto"
       refY="0"
       refX="0"
       id="Arrow2MendG"
       style="overflow:visible">
      <path
         id="path3225"
         style="fill:#0000ff;fill-rule:evenodd;stroke:#0000ff;stroke-width:0.625;stroke-linejoin:round"
         d="M 8.7185878,4.0337352 -2.2072895,0.01601326 8.7185884,-4.0017078 c -1.7454984,2.3720609 -1.7354408,5.6174519 -6e-7,8.035443 z"
         transform="scale(-0.6,-0.6)"
         inkscape:connector-curvature="0" />
    </marker>
    <marker
       inkscape:stockid="Arrow2Mstartv"
       orient="auto"
       refY="0"
       refX="0"
       id="Arrow2Mstartv"
       style="overflow:visible">
      <path
         id="path3228"
         style="fill:#0000ff;fill-rule:evenodd;stroke:#0000ff;stroke-width:0.625;stroke-linejoin:round"
         d="M 8.7185878,4.0337352 -2.2072895,0.01601326 8.7185884,-4.0017078 c -1.7454984,2.3720609 -1.7354408,5.6174519 -6e-7,8.035443 z"
         transform="scale(0.6,0.6)"
         inkscape:connector-curvature="0" />
    </marker>
    <marker
       inkscape:stockid="Arrow2Mstartg"
       orient="auto"
       refY="0"
       refX="0"
       id="Arrow2Mstartg"
       style="overflow:visible">
      <path
         id="path3231"
         style="fill:#0000ff;fill-rule:evenodd;stroke:#0000ff;stroke-width:0.625;stroke-linejoin:round"
         d="M 8.7185878,4.0337352 -2.2072895,0.01601326 8.7185884,-4.0017078 c -1.7454984,2.3720609 -1.7354408,5.6174519 -6e-7,8.035443 z"
         transform="scale(0.6,0.6)"
         inkscape:connector-curvature="0" />
    </marker>
    <marker
       inkscape:stockid="Arrow2Mendh"
       orient="auto"
       refY="0"
       refX="0"
       id="Arrow2Mendh"
       style="overflow:visible">
      <path
         id="path3234"
         style="fill:#0000ff;fill-rule:evenodd;stroke:#0000ff;stroke-width:0.625;stroke-linejoin:round"
         d="M 8.7185878,4.0337352 -2.2072895,0.01601326 8.7185884,-4.0017078 c -1.7454984,2.3720609 -1.7354408,5.6174519 -6e-7,8.035443 z"
         transform="scale(-0.6,-0.6)"
         inkscape:connector-curvature="0" />
    </marker>
    <marker
       inkscape:stockid="Arrow2MstartGx"
       orient="auto"
       refY="0"
       refX="0"
       id="Arrow2MstartGx"
       style="overflow:visible">
      <path
         id="path3237"
         style="fill:#0000ff;fill-rule:evenodd;stroke:#0000ff;stroke-width:0.625;stroke-linejoin:round"
         d="M 8.7185878,4.0337352 -2.2072895,0.01601326 8.7185884,-4.0017078 c -1.7454984,2.3720609 -1.7354408,5.6174519 -6e-7,8.035443 z"
         transform="scale(0.6,0.6)"
         inkscape:connector-curvature="0" />
    </marker>
    <marker
       inkscape:stockid="Arrow2MendK"
       orient="auto"
       refY="0"
       refX="0"
       id="Arrow2MendK"
       style="overflow:visible">
      <path
         id="path3240"
         style="fill:#0000ff;fill-rule:evenodd;stroke:#0000ff;stroke-width:0.625;stroke-linejoin:round"
         d="M 8.7185878,4.0337352 -2.2072895,0.01601326 8.7185884,-4.0017078 c -1.7454984,2.3720609 -1.7354408,5.6174519 -6e-7,8.035443 z"
         transform="scale(-0.6,-0.6)"
         inkscape:connector-curvature="0" />
    </marker>
    <marker
       inkscape:stockid="Arrow2Mstartb"
       orient="auto"
       refY="0"
       refX="0"
       id="Arrow2Mstartb"
       style="overflow:visible">
      <path
         id="path3322"
         style="fill:#0000ff;fill-rule:evenodd;stroke:#0000ff;stroke-width:0.625;stroke-linejoin:round"
         d="M 8.7185878,4.0337352 -2.2072895,0.01601326 8.7185884,-4.0017078 c -1.7454984,2.3720609 -1.7354408,5.6174519 -6e-7,8.035443 z"
         transform="scale(0.6,0.6)"
         inkscape:connector-curvature="0" />
    </marker>
    <marker
       inkscape:stockid="Arrow2Mendf"
       orient="auto"
       refY="0"
       refX="0"
       id="Arrow2Mendf"
       style="overflow:visible">
      <path
         id="path3325"
         style="fill:#0000ff;fill-rule:evenodd;stroke:#0000ff;stroke-width:0.625;stroke-linejoin:round"
         d="M 8.7185878,4.0337352 -2.2072895,0.01601326 8.7185884,-4.0017078 c -1.7454984,2.3720609 -1.7354408,5.6174519 -6e-7,8.035443 z"
         transform="scale(-0.6,-0.6)"
         inkscape:connector-curvature="0" />
    </marker>
    <marker
       inkscape:stockid="Arrow2Mendx"
       orient="auto"
       refY="0"
       refX="0"
       id="Arrow2Mendx"
       style="overflow:visible">
      <path
         id="path3328"
         style="fill:#0000ff;fill-rule:evenodd;stroke:#0000ff;stroke-width:0.625;stroke-linejoin:round"
         d="M 8.7185878,4.0337352 -2.2072895,0.01601326 8.7185884,-4.0017078 c -1.7454984,2.3720609 -1.7354408,5.6174519 -6e-7,8.035443 z"
         transform="scale(-0.6,-0.6)"
         inkscape:connector-curvature="0" />
    </marker>
    <marker
       inkscape:stockid="Arrow2MstartT"
       orient="auto"
       refY="0"
       refX="0"
       id="Arrow2MstartT"
       style="overflow:visible">
      <path
         id="path3331"
         style="fill:#0000ff;fill-rule:evenodd;stroke:#0000ff;stroke-width:0.625;stroke-linejoin:round"
         d="M 8.7185878,4.0337352 -2.2072895,0.01601326 8.7185884,-4.0017078 c -1.7454984,2.3720609 -1.7354408,5.6174519 -6e-7,8.035443 z"
         transform="scale(0.6,0.6)"
         inkscape:connector-curvature="0" />
    </marker>
    <marker
       inkscape:stockid="Arrow2Mstarts"
       orient="auto"
       refY="0"
       refX="0"
       id="Arrow2Mstarts"
       style="overflow:visible">
      <path
         id="path3334"
         style="fill:#0000ff;fill-rule:evenodd;stroke:#0000ff;stroke-width:0.625;stroke-linejoin:round"
         d="M 8.7185878,4.0337352 -2.2072895,0.01601326 8.7185884,-4.0017078 c -1.7454984,2.3720609 -1.7354408,5.6174519 -6e-7,8.035443 z"
         transform="scale(0.6,0.6)"
         inkscape:connector-curvature="0" />
    </marker>
    <marker
       inkscape:stockid="Arrow2Mends"
       orient="auto"
       refY="0"
       refX="0"
       id="Arrow2Mends"
       style="overflow:visible">
      <path
         id="path3337"
         style="fill:#0000ff;fill-rule:evenodd;stroke:#0000ff;stroke-width:0.625;stroke-linejoin:round"
         d="M 8.7185878,4.0337352 -2.2072895,0.01601326 8.7185884,-4.0017078 c -1.7454984,2.3720609 -1.7354408,5.6174519 -6e-7,8.035443 z"
         transform="scale(-0.6,-0.6)"
         inkscape:connector-curvature="0" />
    </marker>
  </defs>
  <metadata
     id="metadata11330">
    <rdf:RDF>
      <cc:Work
         rdf:about="">
        <dc:format>image/svg+xml</dc:format>
        <dc:type
           rdf:resource="http://purl.org/dc/dcmitype/StillImage" />
        <dc:title />
      </cc:Work>
    </rdf:RDF>
  </metadata>
  <g
     inkscape:label="Layer 1"
     inkscape:groupmode="layer"
     id="layer1"
     transform="translate(-199.99999,-552.36217)">
    <path
       transform="matrix(0.81135801,0,0,0.7218289,21.979552,302.61999)"
       style="fill:none;stroke:#000000;stroke-width:1.25;stroke-linecap:round;stroke-linejoin:round;stroke-miterlimit:4;stroke-opacity:1;stroke-dashoffset:0"
       d="m 588.57143,553.79077 c 0,114.40184 -82.50753,207.14285 -184.28572,207.14285 -101.7782,0 -184.28573,-92.74101 -184.28573,-207.14285 0,-114.40184 82.50753,-207.14285 184.28573,-207.14285 101.77819,0 184.28572,92.74101 184.28572,207.14285 z"
       id="path11333"
       inkscape:connector-curvature="0" />
    <path
       style="fill:none;stroke:#0000ff;stroke-width:1px;stroke-linecap:round;stroke-linejoin:round;stroke-opacity:1;marker-start:none;marker-mid:url(#Arrow2MstartG)"
       d="m 200.62763,700.59441 c 0,0 15.5846,7.29336 44.26549,10.04415 30.74952,2.94919 93.00701,4.21245 116.48929,3.96081 23.48229,-0.25165 71.14595,-1.14476 102.91368,-5.14019 22.00113,-2.76708 34.27534,-9.12473 34.27534,-9.12473"
       id="path11335"
       inkscape:connector-curvature="0"
       sodipodi:nodetypes="cszsc" />
    <path
       style="fill:none;stroke:#0000ff;stroke-width:1;stroke-linecap:round;stroke-linejoin:round;stroke-miterlimit:4;stroke-opacity:1;stroke-dasharray:3, 3;stroke-dashoffset:0;marker-mid:url(#Arrow2MendG)"
       d="m 201.21193,699.72912 c 0,0 19.37491,-6.9592 47.20004,-10.87255 37.334,-5.25068 101.30583,-7.81504 117.2632,-7.77421 15.95737,0.0408 58.96811,2.07952 91.19033,7.22189 25.51923,4.07264 41.87925,10.99901 41.87925,10.99901"
       id="path11337"
       inkscape:connector-curvature="0"
       sodipodi:nodetypes="cszsc" />
    <path
       style="fill:none;stroke:#0000ff;stroke-width:1px;stroke-linecap:round;stroke-linejoin:round;stroke-opacity:1;marker-start:none;marker-mid:url(#Arrow2MstartG)"
       d="m 265.46175,578.9492 c 0,0 3.62076,12.41946 23.28673,24.14247 19.66596,11.723 47.10813,34.14028 81.44987,50.99974 34.34173,16.85947 129.18146,45.97691 129.18146,45.97691"
       inkscape:connector-curvature="0"
       sodipodi:nodetypes="czzc"
       id="path3197" />
    <path
       style="fill:none;stroke:#0000ff;stroke-width:1px;stroke-linecap:round;stroke-linejoin:round;stroke-opacity:1;marker-start:none;marker-mid:url(#Arrow2MstartG)"
       d="m 317.84971,556.59714 c 0,0 4.5104,12.24655 17.48402,23.74794 12.97362,11.50138 39.8313,30.57648 65.71486,50.97466 25.88356,20.39819 98.1579,68.20017 98.1579,68.20017"
       inkscape:connector-curvature="0"
       sodipodi:nodetypes="czzc"
       id="path3199" />
    <path
       style="fill:none;stroke:#0000ff;stroke-width:1px;stroke-linecap:round;stroke-linejoin:round;stroke-opacity:1;marker-start:none;marker-mid:url(#Arrow2MstartG)"
       d="m 414.10496,566.5897 c 0,0 4.1601,17.25894 9.94673,29.2656 5.78663,12.00666 9.99257,22.80389 22.27305,40.98862 12.28049,18.18474 52.83843,63.47694 52.83843,63.47694"
       inkscape:connector-curvature="0"
       sodipodi:nodetypes="czzc"
       id="path3201" />
    <path
       style="fill:none;stroke:#0000ff;stroke-width:1px;stroke-linecap:round;stroke-linejoin:round;stroke-opacity:1;marker-start:none;marker-mid:url(#Arrow2MstartG)"
       d="m 264.70676,824.85956 c 0,0 7.98363,-13.95289 26.64099,-28.08993 23.15327,-17.54367 59.65844,-36.91382 81.38675,-48.43177 21.72831,-11.51795 126.04088,-47.32284 126.04088,-47.32284"
       id="path11345"
       inkscape:connector-curvature="0"
       sodipodi:nodetypes="cszc" />
    <path
       style="fill:none;stroke:#0000ff;stroke-width:1px;stroke-linecap:round;stroke-linejoin:round;stroke-opacity:1;marker-start:none;marker-mid:url(#Arrow2MstartG)"
       d="m 372.76785,850.04075 c 0,0 -3.12494,-17.55964 4.39836,-35.94821 6.5901,-16.1076 16.75039,-26.63831 32.74763,-44.65611 15.99724,-18.0178 88.47902,-68.85996 88.47902,-68.85996"
       id="path11347"
       inkscape:connector-curvature="0"
       sodipodi:nodetypes="cszc" />
    <path
       style="opacity:0.98999999;fill:none;stroke:#0000ff;stroke-width:1px;stroke-linecap:round;stroke-linejoin:round;stroke-opacity:1;marker-start:none;marker-mid:url(#Arrow2MstartG)"
       d="m 465.17857,797.54075 c 0,0 -5.0891,-8.60571 -4.63797,-18.69388 0.52372,-11.71138 2.84693,-19.95471 9.73995,-34.39187 6.89302,-14.43716 28.8266,-43.87853 28.8266,-43.87853"
       id="path11349"
       inkscape:connector-curvature="0"
       sodipodi:nodetypes="cszc" />
    <path
       style="fill:none;stroke:#0000ff;stroke-width:1;stroke-linecap:butt;stroke-linejoin:miter;stroke-miterlimit:4;stroke-opacity:1;stroke-dasharray:3, 3;stroke-dashoffset:0;marker-mid:url(#Arrow2MendG)"
       d="m 264.87373,824.88756 c 0,0 41.14136,-8.2937 61.09182,-15.57552 19.95045,-7.28183 22.58295,-9.63581 56.53445,-29.807 33.95151,-20.17119 114.64286,-78.21428 114.64286,-78.21428"
       id="path11860"
       inkscape:connector-curvature="0"
       sodipodi:nodetypes="czzc" />
    <path
       style="fill:none;stroke:#0000ff;stroke-width:1;stroke-linecap:butt;stroke-linejoin:miter;stroke-miterlimit:4;stroke-opacity:1;stroke-dasharray:3, 3;stroke-dashoffset:0;marker-mid:url(#Arrow2MendG)"
       d="m 372.14285,849.86219 c 0,0 27.88798,-20.68712 37.16076,-31.31933 9.27279,-10.63221 15.93465,-18.758 28.55353,-34.03782 12.61889,-15.27981 60.71429,-82.85714 60.71429,-82.85714"
       id="path11862"
       inkscape:connector-curvature="0"
       sodipodi:nodetypes="czzc" />
    <path
       style="fill:none;stroke:#0000ff;stroke-width:1;stroke-linecap:butt;stroke-linejoin:miter;stroke-miterlimit:4;stroke-opacity:1;stroke-dasharray:4, 4;stroke-dashoffset:0;marker-mid:url(#Arrow2MendG);marker-end:none"
       d="m 464.28571,797.36218 c 0,0 7.6919,-13.90879 12.36386,-24.08529 4.67197,-10.1765 8.33363,-17.23405 11.92186,-28.05756 3.58822,-10.82352 12.14286,-43.57143 12.14286,-43.57143"
       id="path11864"
       inkscape:connector-curvature="0"
       sodipodi:nodetypes="czzc" />
    <path
       style="fill:none;stroke:#0000ff;stroke-width:1;stroke-linecap:butt;stroke-linejoin:miter;stroke-miterlimit:4;stroke-opacity:1;stroke-dasharray:3, 3;stroke-dashoffset:0;marker-mid:url(#Arrow2MendG)"
       d="m 266.07143,578.07647 c 0,0 34.8989,6.41322 52.85714,17.85714 17.95824,11.44393 41.68323,23.27 70,40.71429 C 417.24535,654.09218 497.5,698.79075 497.5,698.79075"
       id="path12974"
       inkscape:connector-curvature="0"
       sodipodi:nodetypes="czzc" />
    <path
       style="fill:none;stroke:#0000ff;stroke-width:1;stroke-linecap:butt;stroke-linejoin:miter;stroke-miterlimit:4;stroke-opacity:1;stroke-dasharray:3, 3;stroke-dashoffset:0;marker-mid:url(#Arrow2MendG)"
       d="m 318.57143,557.00504 c 0,0 27.3752,7.29741 42.5,17.14286 15.1248,9.84545 26.94125,18.62653 50.35714,39.28571 23.41589,20.65918 87.5,87.14286 87.5,87.14286"
       id="path12976"
       inkscape:connector-curvature="0"
       sodipodi:nodetypes="czzc" />
    <path
       style="fill:none;stroke:#0000ff;stroke-width:1;stroke-linecap:butt;stroke-linejoin:miter;stroke-miterlimit:4;stroke-opacity:1;stroke-dasharray:3, 3;stroke-dashoffset:0;marker-mid:url(#Arrow2MendG)"
       d="m 414.28571,567.00504 c 0,0 20.63764,17.01594 28.92858,27.5 8.29094,10.48406 11.60303,17.43351 21.07143,34.64286 9.4684,17.20935 33.57142,69.64285 33.57142,69.64285"
       id="path12978"
       inkscape:connector-curvature="0"
       sodipodi:nodetypes="czzc" />
    <text
       xml:space="preserve"
       style="font-size:40px;font-style:normal;font-weight:normal;line-height:125%;letter-spacing:0px;word-spacing:0px;fill:#000000;fill-opacity:1;stroke:none;font-family:Sans"
       x="176.42856"
       y="713.07648"
       id="text5165"
       sodipodi:linespacing="125%"><tspan
         sodipodi:role="line"
         id="tspan5167"
         x="176.42856"
         y="713.07648">$0$</tspan></text>
    <text
       xml:space="preserve"
       style="font-size:40px;font-style:normal;font-weight:normal;line-height:125%;letter-spacing:0px;word-spacing:0px;fill:#000000;fill-opacity:1;stroke:none;font-family:Sans"
       x="500.71426"
       y="713.07648"
       id="text5169"
       sodipodi:linespacing="125%"><tspan
         sodipodi:role="line"
         id="tspan5171"
         x="500.71426"
         y="713.07648">$\infty$</tspan></text>
  </g>
</svg>
