<?xml version="1.0" encoding="UTF-8" standalone="no"?>
<!-- Created with Inkscape (http://www.inkscape.org/) -->

<svg
   xmlns:dc="http://purl.org/dc/elements/1.1/"
   xmlns:cc="http://creativecommons.org/ns#"
   xmlns:rdf="http://www.w3.org/1999/02/22-rdf-syntax-ns#"
   xmlns:svg="http://www.w3.org/2000/svg"
   xmlns="http://www.w3.org/2000/svg"
   xmlns:sodipodi="http://sodipodi.sourceforge.net/DTD/sodipodi-0.dtd"
   xmlns:inkscape="http://www.inkscape.org/namespaces/inkscape"
   width="744.09448819"
   height="1052.3622047"
   id="svg7548"
   version="1.1"
   inkscape:version="0.48.4 r9939"
   sodipodi:docname="intro_trousers_radial.svg">
  <defs
     id="defs7550">
    <marker
       style="overflow:visible"
       id="Arrow1LstartI"
       refX="0"
       refY="0"
       orient="auto"
       inkscape:stockid="Arrow1LstartI">
      <path
         inkscape:connector-curvature="0"
         transform="matrix(0.8,0,0,0.8,10,0)"
         style="fill:#0000ff;fill-rule:evenodd;stroke:#0000ff;stroke-width:1pt"
         d="M 0,0 5,-5 -12.5,0 5,5 0,0 z"
         id="path5532" />
    </marker>
    <marker
       style="overflow:visible"
       id="Arrow1LstartI-5"
       refX="0"
       refY="0"
       orient="auto"
       inkscape:stockid="Arrow1LstartI">
      <path
         inkscape:connector-curvature="0"
         transform="matrix(0.8,0,0,0.8,10,0)"
         style="fill:#0000ff;fill-rule:evenodd;stroke:#0000ff;stroke-width:1pt"
         d="M 0,0 5,-5 -12.5,0 5,5 0,0 z"
         id="path5532-7" />
    </marker>
    <marker
       style="overflow:visible"
       id="Arrow1LstartI-7"
       refX="0"
       refY="0"
       orient="auto"
       inkscape:stockid="Arrow1LstartI">
      <path
         inkscape:connector-curvature="0"
         transform="matrix(0.8,0,0,0.8,10,0)"
         style="fill:#0000ff;fill-rule:evenodd;stroke:#0000ff;stroke-width:1pt"
         d="M 0,0 5,-5 -12.5,0 5,5 0,0 z"
         id="path5532-1" />
    </marker>
    <marker
       style="overflow:visible"
       id="Arrow1LstartI-8"
       refX="0"
       refY="0"
       orient="auto"
       inkscape:stockid="Arrow1LstartI">
      <path
         inkscape:connector-curvature="0"
         transform="matrix(0.8,0,0,0.8,10,0)"
         style="fill:#0000ff;fill-rule:evenodd;stroke:#0000ff;stroke-width:1pt"
         d="M 0,0 5,-5 -12.5,0 5,5 0,0 z"
         id="path5532-12" />
    </marker>
  </defs>
  <sodipodi:namedview
     id="base"
     pagecolor="#ffffff"
     bordercolor="#666666"
     borderopacity="1.0"
     inkscape:pageopacity="0.0"
     inkscape:pageshadow="2"
     inkscape:zoom="1.7934602"
     inkscape:cx="409.63091"
     inkscape:cy="809.49079"
     inkscape:document-units="px"
     inkscape:current-layer="layer1"
     showgrid="false"
     inkscape:window-width="1600"
     inkscape:window-height="749"
     inkscape:window-x="-2"
     inkscape:window-y="-3"
     inkscape:window-maximized="1" />
  <metadata
     id="metadata7553">
    <rdf:RDF>
      <cc:Work
         rdf:about="">
        <dc:format>image/svg+xml</dc:format>
        <dc:type
           rdf:resource="http://purl.org/dc/dcmitype/StillImage" />
        <dc:title />
      </cc:Work>
    </rdf:RDF>
  </metadata>
  <g
     inkscape:label="Layer 1"
     inkscape:groupmode="layer"
     id="layer1">
    <path
       sodipodi:type="arc"
       style="opacity:0.98999999;fill:none;stroke:#ff0000;stroke-width:2.15446019;stroke-miterlimit:4;stroke-opacity:1;stroke-dasharray:none;stroke-dashoffset:0"
       id="path9191-5"
       sodipodi:cx="181.77153"
       sodipodi:cy="235.22668"
       sodipodi:rx="117.64967"
       sodipodi:ry="134.09831"
       d="m 299.4212,235.22668 a 117.64967,134.09831 0 1 1 -235.299343,0 117.64967,134.09831 0 1 1 235.299343,0 z"
       transform="matrix(0.61942373,0,0,0.54344457,436.62406,112.69104)" />
    <path
       sodipodi:type="arc"
       style="opacity:0.98999999;fill:none;stroke:#ff0000;stroke-width:2.15446019;stroke-miterlimit:4;stroke-opacity:1;stroke-dasharray:none;stroke-dashoffset:0"
       id="path9191"
       sodipodi:cx="181.77153"
       sodipodi:cy="235.22668"
       sodipodi:rx="117.64967"
       sodipodi:ry="134.09831"
       d="m 299.4212,235.22668 a 117.64967,134.09831 0 1 1 -235.299343,0 117.64967,134.09831 0 1 1 235.299343,0 z"
       transform="matrix(0.61942373,0,0,0.54344457,50.403256,108.61734)" />
    <path
       sodipodi:type="arc"
       style="opacity:0.98999999;fill:none;stroke:#000000;stroke-width:1.24860322;stroke-miterlimit:4;stroke-opacity:1;stroke-dasharray:none;stroke-dashoffset:0"
       id="path7556"
       sodipodi:cx="260.21747"
       sodipodi:cy="243.79997"
       sodipodi:rx="163.35419"
       sodipodi:ry="155.14543"
       d="m 423.57166,243.79997 a 163.35419,155.14543 0 1 1 -326.708379,0 163.35419,155.14543 0 1 1 326.708379,0 z"
       transform="matrix(0.97564074,0,0,1.027262,-87.936769,-10.876034)" />
    <path
       sodipodi:type="arc"
       style="opacity:0.98999999;fill:none;stroke:#000000;stroke-width:1.24860322;stroke-miterlimit:4;stroke-opacity:1;stroke-dasharray:none;stroke-dashoffset:0"
       id="path7556-9"
       sodipodi:cx="260.21747"
       sodipodi:cy="243.79997"
       sodipodi:rx="163.35419"
       sodipodi:ry="155.14543"
       d="m 423.57166,243.79997 a 163.35419,155.14543 0 1 1 -326.708379,0 163.35419,155.14543 0 1 1 326.708379,0 z"
       transform="matrix(0.97564074,0,0,1.027262,299.51514,-4.274085)" />
    <path
       sodipodi:type="arc"
       style="opacity:0.98999999;fill:none;stroke:#000000;stroke-width:8.16394424;stroke-miterlimit:4;stroke-opacity:1;stroke-dasharray:none;stroke-dashoffset:0"
       id="path7556-1"
       sodipodi:cx="260.21747"
       sodipodi:cy="243.79997"
       sodipodi:rx="163.35419"
       sodipodi:ry="155.14543"
       d="m 423.57166,243.79997 a 163.35419,155.14543 0 1 1 -326.708379,0 163.35419,155.14543 0 1 1 326.708379,0 z"
       transform="matrix(0.14921564,0,0,0.15711065,124.64284,197.91797)" />
    <path
       sodipodi:type="arc"
       style="opacity:0.98999999;fill:none;stroke:#000000;stroke-width:5.0538702;stroke-miterlimit:4;stroke-opacity:1;stroke-dasharray:none;stroke-dashoffset:0"
       id="path7556-1-7"
       sodipodi:cx="260.21747"
       sodipodi:cy="243.79997"
       sodipodi:rx="163.35419"
       sodipodi:ry="155.14543"
       d="m 423.57166,243.79997 a 163.35419,155.14543 0 1 1 -326.708379,0 163.35419,155.14543 0 1 1 326.708379,0 z"
       transform="matrix(0.24104065,0,0,0.25379413,487.00857,181.52381)" />
    <path
       transform="matrix(1.9367082,0,0,1.9874115,-520.66378,-426.56192)"
       d="m 370.23488,333.77255 a 4.6063437,4.030551 0 1 1 -9.21268,0 4.6063437,4.030551 0 1 1 9.21268,0 z"
       sodipodi:ry="4.030551"
       sodipodi:rx="4.6063437"
       sodipodi:cy="333.77255"
       sodipodi:cx="365.62854"
       id="path3009-36-9-0"
       style="opacity:0.98999999;fill:#00ff00;fill-opacity:1;stroke:#00ff00;stroke-width:0.64568239;stroke-linejoin:miter;stroke-miterlimit:4;stroke-opacity:1;stroke-dasharray:none;stroke-dashoffset:0"
       sodipodi:type="arc" />
    <path
       transform="matrix(1.9367082,0,0,1.9874115,-118.62854,-419.16249)"
       d="m 370.23488,333.77255 a 4.6063437,4.030551 0 1 1 -9.21268,0 4.6063437,4.030551 0 1 1 9.21268,0 z"
       sodipodi:ry="4.030551"
       sodipodi:rx="4.6063437"
       sodipodi:cy="333.77255"
       sodipodi:cx="365.62854"
       id="path3009-36-9-0-6"
       style="opacity:0.98999999;fill:#00ff00;fill-opacity:1;stroke:#00ff00;stroke-width:0.64568239;stroke-linejoin:miter;stroke-miterlimit:4;stroke-opacity:1;stroke-dasharray:none;stroke-dashoffset:0"
       sodipodi:type="arc" />
    <text
       xml:space="preserve"
       style="font-size:40px;font-style:normal;font-weight:normal;line-height:125%;letter-spacing:0px;word-spacing:0px;fill:#000000;fill-opacity:1;stroke:none;font-family:Sans"
       x="202.25085"
       y="244.18091"
       id="text8973"
       sodipodi:linespacing="125%"><tspan
         sodipodi:role="line"
         id="tspan8975"
         x="202.25085"
         y="244.18091">$P_1$</tspan></text>
    <text
       xml:space="preserve"
       style="font-size:40px;font-style:normal;font-weight:normal;line-height:125%;letter-spacing:0px;word-spacing:0px;fill:#000000;fill-opacity:1;stroke:none;font-family:Sans"
       x="542.75134"
       y="253.83728"
       id="text8973-7"
       sodipodi:linespacing="125%"><tspan
         sodipodi:role="line"
         id="tspan8975-0"
         x="542.75134"
         y="253.83728">$P_2$</tspan></text>
    <path
       sodipodi:nodetypes="cc"
       inkscape:connector-curvature="0"
       id="path3885"
       d="m 651.1491,119.78888 c -16.84774,22.47204 -33.88385,44.79943 -50.97379,67.08716"
       style="fill:#0000ff;stroke:#0000ff;stroke-width:1px;stroke-linecap:butt;stroke-linejoin:miter;stroke-opacity:1;marker-mid:url(#Arrow1LstartI)" />
    <path
       sodipodi:nodetypes="cc"
       inkscape:connector-curvature="0"
       id="path3885-2"
       d="m 647.65436,117.58959 c -16.84774,22.47204 -33.36869,43.98706 -50.45863,66.27479"
       style="fill:#0000ff;stroke:#0000ff;stroke-width:1px;stroke-linecap:butt;stroke-linejoin:miter;stroke-opacity:1;marker-mid:url(#Arrow1LstartI)" />
    <path
       sodipodi:type="arc"
       style="fill:#000000;fill-opacity:1;stroke:#000000;stroke-width:1.25;stroke-linejoin:miter;stroke-miterlimit:4;stroke-opacity:1;stroke-dasharray:none;stroke-dashoffset:0"
       id="path3009"
       sodipodi:cx="365.62854"
       sodipodi:cy="333.77255"
       sodipodi:rx="4.6063437"
       sodipodi:ry="4.030551"
       d="m 370.23488,333.77255 a 4.6063437,4.030551 0 1 1 -9.21268,0 4.6063437,4.030551 0 1 1 9.21268,0 z"
       transform="matrix(0.94795772,0,0,1.0833802,251.20107,-177.07379)" />
    <text
       xml:space="preserve"
       style="font-size:40px;font-style:normal;font-weight:normal;line-height:125%;letter-spacing:0px;word-spacing:0px;fill:#000000;fill-opacity:1;stroke:none;font-family:Sans"
       x="630.25342"
       y="167.63734"
       id="text9064"
       sodipodi:linespacing="125%"><tspan
         sodipodi:role="line"
         id="tspan9066"
         x="630.25342"
         y="167.63734">$\alpha'$</tspan></text>
    <text
       xml:space="preserve"
       style="font-size:40px;font-style:normal;font-weight:normal;line-height:125%;letter-spacing:0px;word-spacing:0px;fill:#000000;fill-opacity:1;stroke:none;font-family:Sans"
       x="587.41791"
       y="154.65988"
       id="text9064-6"
       sodipodi:linespacing="125%"><tspan
         sodipodi:role="line"
         id="tspan9066-5"
         x="587.41791"
         y="154.65988">$\beta'$</tspan></text>
    <path
       sodipodi:nodetypes="cc"
       inkscape:connector-curvature="0"
       id="path3885-0"
       d="M 112.80553,288.77248 C 92.762537,309.78207 72.495448,330.65643 52.164325,351.49371"
       style="fill:#0000ff;stroke:#0000ff;stroke-width:1px;stroke-linecap:butt;stroke-linejoin:miter;stroke-opacity:1;marker-mid:url(#Arrow1LstartI)" />
    <path
       sodipodi:nodetypes="cc"
       inkscape:connector-curvature="0"
       id="path3885-0-4"
       d="M 110.40445,286.448 C 90.36146,307.45759 70.09437,328.33195 49.763243,349.16923"
       style="fill:#0000ff;stroke:#0000ff;stroke-width:1px;stroke-linecap:butt;stroke-linejoin:miter;stroke-opacity:1;marker-mid:url(#Arrow1LstartI)" />
    <path
       sodipodi:type="arc"
       style="fill:#000000;fill-opacity:1;stroke:#000000;stroke-width:1.25;stroke-linejoin:miter;stroke-miterlimit:4;stroke-opacity:1;stroke-dasharray:none;stroke-dashoffset:0"
       id="path3009-4"
       sodipodi:cx="365.62854"
       sodipodi:cy="333.77255"
       sodipodi:rx="4.6063437"
       sodipodi:ry="4.030551"
       d="m 370.23488,333.77255 a 4.6063437,4.030551 0 1 1 -9.21268,0 4.6063437,4.030551 0 1 1 9.21268,0 z"
       transform="matrix(0.94795772,0,0,1.0833802,-235.26915,-73.902119)" />
    <text
       xml:space="preserve"
       style="font-size:40px;font-style:normal;font-weight:normal;line-height:125%;letter-spacing:0px;word-spacing:0px;fill:#000000;fill-opacity:1;stroke:none;font-family:Sans"
       x="51.952"
       y="311.89413"
       id="text9181"
       sodipodi:linespacing="125%"><tspan
         sodipodi:role="line"
         id="tspan9183"
         x="51.952"
         y="311.89413">$\alpha$</tspan></text>
    <text
       xml:space="preserve"
       style="font-size:40px;font-style:normal;font-weight:normal;line-height:125%;letter-spacing:0px;word-spacing:0px;fill:#000000;fill-opacity:1;stroke:none;font-family:Sans"
       x="86.982697"
       y="336.4277"
       id="text9185"
       sodipodi:linespacing="125%"><tspan
         sodipodi:role="line"
         id="tspan9187"
         x="86.982697"
         y="336.4277">$\beta$</tspan></text>
  </g>
</svg>
