<?xml version="1.0" encoding="UTF-8" standalone="no"?>
<!-- Created with Inkscape (http://www.inkscape.org/) -->

<svg
   xmlns:dc="http://purl.org/dc/elements/1.1/"
   xmlns:cc="http://creativecommons.org/ns#"
   xmlns:rdf="http://www.w3.org/1999/02/22-rdf-syntax-ns#"
   xmlns:svg="http://www.w3.org/2000/svg"
   xmlns="http://www.w3.org/2000/svg"
   xmlns:sodipodi="http://sodipodi.sourceforge.net/DTD/sodipodi-0.dtd"
   xmlns:inkscape="http://www.inkscape.org/namespaces/inkscape"
   sodipodi:docname="intro_trousers.svg"
   inkscape:version="0.48.4 r9939"
   version="1.1"
   id="svg3009"
   height="1052.3622047"
   width="744.09448819">
  <sodipodi:namedview
     id="base"
     pagecolor="#ffffff"
     bordercolor="#666666"
     borderopacity="1.0"
     inkscape:pageopacity="0.0"
     inkscape:pageshadow="2"
     inkscape:zoom="1.6148273"
     inkscape:cx="394.73138"
     inkscape:cy="716.44236"
     inkscape:document-units="px"
     inkscape:current-layer="layer1"
     showgrid="false"
     inkscape:window-width="1600"
     inkscape:window-height="749"
     inkscape:window-x="-2"
     inkscape:window-y="-3"
     inkscape:window-maximized="1"
     showguides="true"
     inkscape:guide-bbox="true"
     inkscape:snap-nodes="false" />
  <defs
     id="defs3011">
    <marker
       style="overflow:visible;"
       id="Arrow2Mend"
       refX="0.0"
       refY="0.0"
       orient="auto"
       inkscape:stockid="Arrow2Mend">
      <path
         transform="scale(0.6) rotate(180) translate(0,0)"
         d="M 8.7185878,4.0337352 L -2.2072895,0.016013256 L 8.7185884,-4.0017078 C 6.9730900,-1.6296469 6.9831476,1.6157441 8.7185878,4.0337352 z "
         style="fill-rule:evenodd;stroke-width:0.62500000;stroke-linejoin:round;"
         id="path3842" />
    </marker>
    <marker
       style="overflow:visible"
       id="Arrow2Mstart"
       refX="0.0"
       refY="0.0"
       orient="auto"
       inkscape:stockid="Arrow2Mstart">
      <path
         transform="scale(0.6) translate(0,0)"
         d="M 8.7185878,4.0337352 L -2.2072895,0.016013256 L 8.7185884,-4.0017078 C 6.9730900,-1.6296469 6.9831476,1.6157441 8.7185878,4.0337352 z "
         style="fill-rule:evenodd;stroke-width:0.62500000;stroke-linejoin:round"
         id="path3839" />
    </marker>
    <marker
       style="overflow:visible;"
       id="Arrow2MendE"
       refX="0.0"
       refY="0.0"
       orient="auto"
       inkscape:stockid="Arrow2MendE">
      <path
         transform="scale(0.6) rotate(180) translate(0,0)"
         d="M 8.7185878,4.0337352 L -2.2072895,0.016013256 L 8.7185884,-4.0017078 C 6.9730900,-1.6296469 6.9831476,1.6157441 8.7185878,4.0337352 z "
         style="stroke-linejoin:round;stroke:#0000ff;stroke-width:0.62500000;fill:#0000ff;fill-rule:evenodd"
         id="path6216" />
    </marker>
    <marker
       style="overflow:visible"
       id="Arrow2MendE-2"
       refX="0"
       refY="0"
       orient="auto"
       inkscape:stockid="Arrow2MendE">
      <path
         inkscape:connector-curvature="0"
         transform="scale(-0.6,-0.6)"
         d="M 8.7185878,4.0337352 -2.2072895,0.01601326 8.7185884,-4.0017078 c -1.7454984,2.3720609 -1.7354408,5.6174519 -6e-7,8.035443 z"
         style="fill:#0000ff;fill-rule:evenodd;stroke:#0000ff;stroke-width:0.625;stroke-linejoin:round"
         id="path6216-4" />
    </marker>
    <marker
       style="overflow:visible"
       id="Arrow2MstartO"
       refX="0.0"
       refY="0.0"
       orient="auto"
       inkscape:stockid="Arrow2MstartO">
      <path
         transform="scale(0.6) translate(0,0)"
         d="M 8.7185878,4.0337352 L -2.2072895,0.016013256 L 8.7185884,-4.0017078 C 6.9730900,-1.6296469 6.9831476,1.6157441 8.7185878,4.0337352 z "
         style="stroke-linejoin:round;stroke:#0000ff;stroke-width:0.62500000;fill:#0000ff;fill-rule:evenodd"
         id="path7058" />
    </marker>
    <marker
       style="overflow:visible;"
       id="Arrow2MendJ"
       refX="0.0"
       refY="0.0"
       orient="auto"
       inkscape:stockid="Arrow2MendJ">
      <path
         transform="scale(0.6) rotate(180) translate(0,0)"
         d="M 8.7185878,4.0337352 L -2.2072895,0.016013256 L 8.7185884,-4.0017078 C 6.9730900,-1.6296469 6.9831476,1.6157441 8.7185878,4.0337352 z "
         style="stroke-linejoin:round;stroke:#0000ff;stroke-width:0.62500000;fill:#0000ff;fill-rule:evenodd"
         id="path7505" />
    </marker>
    <marker
       style="overflow:visible;"
       id="Arrow2Mendl"
       refX="0.0"
       refY="0.0"
       orient="auto"
       inkscape:stockid="Arrow2Mendl">
      <path
         transform="scale(0.6) rotate(180) translate(0,0)"
         d="M 8.7185878,4.0337352 L -2.2072895,0.016013256 L 8.7185884,-4.0017078 C 6.9730900,-1.6296469 6.9831476,1.6157441 8.7185878,4.0337352 z "
         style="stroke-linejoin:round;stroke:#0000ff;stroke-width:0.62500000;fill:#0000ff;fill-rule:evenodd"
         id="path8154" />
    </marker>
    <marker
       style="overflow:visible;"
       id="Arrow2MendS"
       refX="0.0"
       refY="0.0"
       orient="auto"
       inkscape:stockid="Arrow2MendS">
      <path
         transform="scale(0.6) rotate(180) translate(0,0)"
         d="M 8.7185878,4.0337352 L -2.2072895,0.016013256 L 8.7185884,-4.0017078 C 6.9730900,-1.6296469 6.9831476,1.6157441 8.7185878,4.0337352 z "
         style="stroke-linejoin:round;stroke:#0000ff;stroke-width:0.62500000;fill:#0000ff;fill-rule:evenodd"
         id="path8157" />
    </marker>
    <marker
       style="overflow:visible"
       id="Arrow2Mendl-2"
       refX="0"
       refY="0"
       orient="auto"
       inkscape:stockid="Arrow2Mendl">
      <path
         transform="scale(-0.6,-0.6)"
         d="M 8.7185878,4.0337352 -2.2072895,0.01601326 8.7185884,-4.0017078 c -1.7454984,2.3720609 -1.7354408,5.6174519 -6e-7,8.035443 z"
         style="fill:#0000ff;fill-rule:evenodd;stroke:#0000ff;stroke-width:0.625;stroke-linejoin:round"
         id="path8154-0"
         inkscape:connector-curvature="0" />
    </marker>
    <marker
       style="overflow:visible"
       id="Arrow2Mendl-20"
       refX="0"
       refY="0"
       orient="auto"
       inkscape:stockid="Arrow2Mendl">
      <path
         transform="scale(-0.6,-0.6)"
         d="M 8.7185878,4.0337352 -2.2072895,0.01601326 8.7185884,-4.0017078 c -1.7454984,2.3720609 -1.7354408,5.6174519 -6e-7,8.035443 z"
         style="fill:#0000ff;fill-rule:evenodd;stroke:#0000ff;stroke-width:0.625;stroke-linejoin:round"
         id="path8154-7"
         inkscape:connector-curvature="0" />
    </marker>
    <marker
       style="overflow:visible"
       id="Arrow2Mendl-8"
       refX="0"
       refY="0"
       orient="auto"
       inkscape:stockid="Arrow2Mendl">
      <path
         inkscape:connector-curvature="0"
         transform="scale(-0.6,-0.6)"
         d="M 8.7185878,4.0337352 -2.2072895,0.01601326 8.7185884,-4.0017078 c -1.7454984,2.3720609 -1.7354408,5.6174519 -6e-7,8.035443 z"
         style="fill:#0000ff;fill-rule:evenodd;stroke:#0000ff;stroke-width:0.625;stroke-linejoin:round"
         id="path8154-6" />
    </marker>
    <marker
       style="overflow:visible"
       id="Arrow2MendS-3"
       refX="0"
       refY="0"
       orient="auto"
       inkscape:stockid="Arrow2MendS">
      <path
         inkscape:connector-curvature="0"
         transform="scale(-0.6,-0.6)"
         d="M 8.7185878,4.0337352 -2.2072895,0.01601326 8.7185884,-4.0017078 c -1.7454984,2.3720609 -1.7354408,5.6174519 -6e-7,8.035443 z"
         style="fill:#0000ff;fill-rule:evenodd;stroke:#0000ff;stroke-width:0.625;stroke-linejoin:round"
         id="path8157-6" />
    </marker>
    <marker
       style="overflow:visible"
       id="Arrow2MendS-6"
       refX="0"
       refY="0"
       orient="auto"
       inkscape:stockid="Arrow2MendS">
      <path
         inkscape:connector-curvature="0"
         transform="scale(-0.6,-0.6)"
         d="M 8.7185878,4.0337352 -2.2072895,0.01601326 8.7185884,-4.0017078 c -1.7454984,2.3720609 -1.7354408,5.6174519 -6e-7,8.035443 z"
         style="fill:#0000ff;fill-rule:evenodd;stroke:#0000ff;stroke-width:0.625;stroke-linejoin:round"
         id="path8157-7" />
    </marker>
    <marker
       style="overflow:visible"
       id="Arrow2Mendl-0"
       refX="0"
       refY="0"
       orient="auto"
       inkscape:stockid="Arrow2Mendl">
      <path
         inkscape:connector-curvature="0"
         transform="scale(-0.6,-0.6)"
         d="M 8.7185878,4.0337352 -2.2072895,0.01601326 8.7185884,-4.0017078 c -1.7454984,2.3720609 -1.7354408,5.6174519 -6e-7,8.035443 z"
         style="fill:#0000ff;fill-rule:evenodd;stroke:#0000ff;stroke-width:0.625;stroke-linejoin:round"
         id="path8154-09" />
    </marker>
    <marker
       style="overflow:visible"
       id="Arrow2Mendl-7"
       refX="0"
       refY="0"
       orient="auto"
       inkscape:stockid="Arrow2Mendl">
      <path
         inkscape:connector-curvature="0"
         transform="scale(-0.6,-0.6)"
         d="M 8.7185878,4.0337352 -2.2072895,0.01601326 8.7185884,-4.0017078 c -1.7454984,2.3720609 -1.7354408,5.6174519 -6e-7,8.035443 z"
         style="fill:#0000ff;fill-rule:evenodd;stroke:#0000ff;stroke-width:0.625;stroke-linejoin:round"
         id="path8154-65" />
    </marker>
    <marker
       style="overflow:visible"
       id="Arrow2MendS-8"
       refX="0"
       refY="0"
       orient="auto"
       inkscape:stockid="Arrow2MendS">
      <path
         inkscape:connector-curvature="0"
         transform="scale(-0.6,-0.6)"
         d="M 8.7185878,4.0337352 -2.2072895,0.01601326 8.7185884,-4.0017078 c -1.7454984,2.3720609 -1.7354408,5.6174519 -6e-7,8.035443 z"
         style="fill:#0000ff;fill-rule:evenodd;stroke:#0000ff;stroke-width:0.625;stroke-linejoin:round"
         id="path8157-77" />
    </marker>
    <marker
       style="overflow:visible"
       id="Arrow2MendS-7"
       refX="0"
       refY="0"
       orient="auto"
       inkscape:stockid="Arrow2MendS">
      <path
         inkscape:connector-curvature="0"
         transform="scale(-0.6,-0.6)"
         d="M 8.7185878,4.0337352 -2.2072895,0.01601326 8.7185884,-4.0017078 c -1.7454984,2.3720609 -1.7354408,5.6174519 -6e-7,8.035443 z"
         style="fill:#0000ff;fill-rule:evenodd;stroke:#0000ff;stroke-width:0.625;stroke-linejoin:round"
         id="path8157-5" />
    </marker>
  </defs>
  <metadata
     id="metadata3014">
    <rdf:RDF>
      <cc:Work
         rdf:about="">
        <dc:format>image/svg+xml</dc:format>
        <dc:type
           rdf:resource="http://purl.org/dc/dcmitype/StillImage" />
        <dc:title />
      </cc:Work>
    </rdf:RDF>
  </metadata>
  <g
     id="layer1"
     inkscape:groupmode="layer"
     inkscape:label="Layer 1">
    <path
       style="fill:none;stroke:#000000;stroke-width:1.25;stroke-linejoin:miter;stroke-miterlimit:4;stroke-opacity:1;stroke-dashoffset:0;stroke-dasharray:3.75,3.75"
       d="m 176.12282,481.89426 c 0,-16.18457 81.78759,-29.56789 188.06029,-31.74694 9.98255,-0.20469 20.18113,-0.31051 30.54827,-0.31051 120.73418,0 218.60857,14.35261 218.60857,32.05745"
       id="path5176"
       inkscape:connector-curvature="0"
       sodipodi:nodetypes="cssc" />
    <path
       style="fill:none;stroke:#000000;stroke-width:1.25;stroke-linejoin:miter;stroke-miterlimit:4;stroke-opacity:1;stroke-dashoffset:0"
       d="m 613.33995,481.89426 c 0,17.70483 -97.87439,32.05744 -218.60857,32.05744 -120.73417,0 -218.60856,-14.35261 -218.60856,-32.05744"
       id="path2991" />
    <path
       transform="translate(10,-90)"
       d="m 295.08294,299.59171 a 46.348106,6.5659819 0 1 1 -92.69621,0 46.348106,6.5659819 0 1 1 92.69621,0 z"
       sodipodi:ry="6.5659819"
       sodipodi:rx="46.348106"
       sodipodi:cy="299.59171"
       sodipodi:cx="248.73483"
       id="path2993"
       style="fill:none;stroke:#000000;stroke-width:1.25;stroke-linejoin:miter;stroke-miterlimit:4;stroke-opacity:1;stroke-dasharray:none;stroke-dashoffset:0"
       sodipodi:type="arc" />
    <path
       transform="translate(-26,42)"
       d="m 609.47759,251.31242 a 86.902702,17.766773 0 1 1 -173.8054,0 86.902702,17.766773 0 1 1 173.8054,0 z"
       sodipodi:ry="17.766773"
       sodipodi:rx="86.902702"
       sodipodi:cy="251.31242"
       sodipodi:cx="522.57489"
       id="path2995"
       style="fill:none;stroke:#000000;stroke-width:1.25;stroke-linejoin:miter;stroke-miterlimit:4;stroke-opacity:1;stroke-dasharray:none;stroke-dashoffset:0"
       sodipodi:type="arc" />
    <path
       id="path4011"
       sodipodi:nodetypes="csaaaac"
       inkscape:connector-curvature="0"
       d="m 212.25811,209.63967 c 0,0 4.48109,14.81778 6.99509,46.25398 1.257,15.7181 3.64741,33.95676 3.57106,50.99732 -0.0799,17.8351 -1.68945,35.68404 -4.21569,53.3395 -2.11571,14.78633 -4.97901,29.52294 -9.13827,43.86909 -4.26675,14.71694 -9.92591,29.03667 -16.15058,43.03834 -4.85554,10.92196 -16.48376,31.84453 -16.48376,31.84453"
       style="opacity:0.38999999;fill:none;stroke:#0000ff;stroke-width:1px;stroke-linecap:butt;stroke-linejoin:miter;stroke-opacity:1;marker-mid:url(#Arrow2MendS)" />
    <path
       sodipodi:nodetypes="cssssc"
       inkscape:connector-curvature="0"
       id="path2999"
       d="m 583.63365,293.96767 c 0,0 -3.12767,16.84312 -5.25927,36.12472 -1.61331,14.59321 -2.65605,30.58321 -1.34046,41.7251 1.2913,10.93621 4.8123,24.58607 9.18237,38.50373 4.05376,12.91028 8.83814,26.05098 13.25112,37.46983 7.46807,19.32406 13.87253,33.71696 13.87253,33.71696"
       style="opacity:0.38999999;fill:none;stroke:#0000ff;stroke-width:1px;stroke-linecap:butt;stroke-linejoin:miter;stroke-opacity:1;marker-mid:url(#Arrow2Mendl)" />
    <path
       sodipodi:nodetypes="csssscc"
       inkscape:connector-curvature="0"
       style="opacity:0.38999999;fill:none;stroke:#0000ff;stroke-width:1px;stroke-linecap:butt;stroke-linejoin:miter;stroke-opacity:1;marker-mid:url(#Arrow2MendJ)"
       d="m 305.2552,209.5095 c 0.1027,2.78662 0.16103,5.5758 0.18887,8.36183 0.10314,10.31951 -0.212,20.59587 -0.24021,30.53911 -0.037,13.05373 0.42048,25.53333 2.96819,36.78274 2.38531,10.53232 6.60282,19.98627 13.96212,27.82343 6.16377,6.56402 14.53147,11.99387 25.87249,15.97321 6.96329,2.37916 14.41982,4.15007 21.11251,4.93766"
       id="path6480" />
    <path
       style="opacity:0.38999999;fill:none;stroke:#0000ff;stroke-width:1px;stroke-linecap:butt;stroke-linejoin:miter;stroke-opacity:1;marker-mid:url(#Arrow2MstartO)"
       d="m 369.11917,333.92748 c 2.64588,0.30378 5.33561,0.48831 8.01867,0.52505 6.92137,0.0948 13.79839,-0.79393 19.76401,-3.156 4.20904,-1.66657 9.80409,-8.11392 12.80119,-11.41943 6.58143,-7.25867 -0.0983,-26.4854 -0.0983,-26.4854"
       id="path3007"
       inkscape:connector-curvature="0"
       sodipodi:nodetypes="csssc" />
    <path
       transform="matrix(0.94795772,0,0,1.0833802,22.796798,-28.17447)"
       d="m 370.23488,333.77255 a 4.6063437,4.030551 0 1 1 -9.21268,0 4.6063437,4.030551 0 1 1 9.21268,0 z"
       sodipodi:ry="4.030551"
       sodipodi:rx="4.6063437"
       sodipodi:cy="333.77255"
       sodipodi:cx="365.62854"
       id="path3009"
       style="fill:#000000;fill-opacity:1;stroke:#000000;stroke-width:1.25;stroke-linejoin:miter;stroke-miterlimit:4;stroke-opacity:1;stroke-dasharray:none;stroke-dashoffset:0"
       sodipodi:type="arc" />
    <text
       sodipodi:linespacing="125%"
       id="text3779"
       y="320.74084"
       x="364.26544"
       style="font-size:40px;font-style:normal;font-weight:normal;line-height:125%;letter-spacing:0px;word-spacing:0px;fill:#000000;fill-opacity:1;stroke:none;font-family:Sans"
       xml:space="preserve"><tspan
         y="320.74084"
         x="364.26544"
         id="tspan3781"
         sodipodi:role="line">$S$</tspan></text>
    <path
       transform="matrix(0.94795772,0,0,1.0833802,81.346863,-79.035639)"
       d="m 370.23488,333.77255 a 4.6063437,4.030551 0 1 1 -9.21268,0 4.6063437,4.030551 0 1 1 9.21268,0 z"
       sodipodi:ry="4.030551"
       sodipodi:rx="4.6063437"
       sodipodi:cy="333.77255"
       sodipodi:cx="365.62854"
       id="path3009-2"
       style="fill:#00ff00;fill-opacity:1;stroke:#00ff00;stroke-width:1.25000000000000000;stroke-linejoin:miter;stroke-miterlimit:4;stroke-opacity:1;stroke-dasharray:none;stroke-dashoffset:0"
       sodipodi:type="arc" />
    <path
       transform="matrix(0.94795772,0,0,1.0833802,-117.42996,-156.35255)"
       d="m 370.23488,333.77255 a 4.6063437,4.030551 0 1 1 -9.21268,0 4.6063437,4.030551 0 1 1 9.21268,0 z"
       sodipodi:ry="4.030551"
       sodipodi:rx="4.6063437"
       sodipodi:cy="333.77255"
       sodipodi:cx="365.62854"
       id="path3009-2-4"
       style="fill:#00ff00;fill-opacity:1;stroke:#00ff00;stroke-width:1.25;stroke-linejoin:miter;stroke-miterlimit:4;stroke-opacity:1;stroke-dasharray:none;stroke-dashoffset:0"
       sodipodi:type="arc" />
    <text
       sodipodi:linespacing="125%"
       id="text3779-9"
       y="269.34207"
       x="415.63956"
       style="font-size:40px;font-style:normal;font-weight:normal;line-height:125%;letter-spacing:0px;word-spacing:0px;fill:#000000;fill-opacity:1;stroke:none;font-family:Sans"
       xml:space="preserve"><tspan
         y="269.34207"
         x="415.63956"
         id="tspan3781-4"
         sodipodi:role="line">$P^-_2$</tspan></text>
    <text
       sodipodi:linespacing="125%"
       id="text3779-9-2"
       y="187.65356"
       x="218.08936"
       style="font-size:40px;font-style:normal;font-weight:normal;line-height:125%;letter-spacing:0px;word-spacing:0px;fill:#000000;fill-opacity:1;stroke:none;font-family:Sans"
       xml:space="preserve"><tspan
         y="187.65356"
         x="218.08936"
         id="tspan3781-4-7"
         sodipodi:role="line">$P^-_1$</tspan></text>
    <path
       sodipodi:nodetypes="csssssc"
       inkscape:connector-curvature="0"
       id="path5837"
       d="m 373.96387,335.3779 c 0,0 11.48495,4.16871 16.17152,10.37543 6.10398,8.08388 10.06976,17.38897 12.94472,27.2199 3.9692,13.57268 4.0404,18.14417 6.60752,31.89151 1.51469,8.11143 4.51769,28.3567 5.44183,39.14469 1.0297,12.02031 1.68166,24.77363 2.16306,35.95882 0.80485,18.70027 0.9796,33.17075 0.9796,33.17075"
       style="fill:none;stroke:#0000ff;stroke-width:1.25;stroke-linecap:butt;stroke-linejoin:miter;stroke-miterlimit:4;stroke-opacity:1;stroke-dasharray:none;stroke-dashoffset:0;marker-mid:url(#Arrow2MendE)" />
    <path
       style="fill:none;stroke:#0000ff;stroke-width:1.25;stroke-linecap:butt;stroke-linejoin:miter;stroke-miterlimit:4;stroke-opacity:1;stroke-dasharray:3.75, 3.75;stroke-dashoffset:0;marker-mid:url(#Arrow2MendE)"
       d="m 367.6467,334.59611 c 4.26631,-4.38145 -10.84967,-2.50275 -16.26441,3.89654 -5.41473,6.39927 -8.55936,15.4613 -10.07485,19.25383 -1.9803,5.09148 -4.56373,19.72559 -6.09615,32.88255 -1.05681,9.07353 0.44345,26.34827 -0.48983,35.37868 -1.32097,12.78177 2.04353,20.83808 0.79333,25.87195"
       id="path5837-6"
       inkscape:connector-curvature="0"
       sodipodi:nodetypes="cscssc" />
    <path
       sodipodi:nodetypes="casssc"
       inkscape:connector-curvature="0"
       id="path2999-9"
       d="m 525.37484,309.71629 c 0,0 -10.80708,23.49212 -12.02378,36.12472 -1.34463,13.96079 4.10846,30.58321 5.42405,41.7251 1.2913,10.93621 4.8123,24.58607 9.18237,38.50373 4.05376,12.91028 8.83814,26.05098 13.25112,37.46983 7.46807,19.32406 17.51496,40.48147 17.51496,40.48147"
       style="opacity:0.38999999;fill:none;stroke:#0000ff;stroke-width:1px;stroke-linecap:butt;stroke-linejoin:miter;stroke-opacity:1;marker-mid:url(#Arrow2Mendl)" />
    <path
       sodipodi:nodetypes="caaaac"
       inkscape:connector-curvature="0"
       id="path2999-9-3"
       d="m 460.34849,309.4339 c 0,0 -9.36254,21.73082 -9.3181,33.23685 0.0512,13.24689 7.67321,25.36517 11.02318,38.18158 3.62966,13.88648 6.87781,27.87589 9.82741,41.92255 3.13889,14.94812 5.56895,30.03636 8.37016,45.05143 2.68118,14.37166 8.07558,43.10899 8.07558,43.10899"
       style="opacity:0.38999999;fill:none;stroke:#0000ff;stroke-width:1px;stroke-linecap:butt;stroke-linejoin:miter;stroke-opacity:1;marker-mid:url(#Arrow2Mendl)" />
    <path
       id="path4011-4"
       sodipodi:nodetypes="csaaaac"
       inkscape:connector-curvature="0"
       d="m 237.7852,215.47001 c 0,0 6.3421,19.78047 8.8561,51.21667 1.257,15.7181 3.75711,36.43957 4.81174,54.71934 0.95298,16.51797 1.78767,33.07738 1.36733,49.61748 -0.45168,17.77354 -1.79704,35.55468 -4.17558,53.17413 -1.61637,11.97359 -3.39838,24.01429 -6.84553,35.59431 -4.29258,14.42004 -17.1041,41.76991 -17.1041,41.76991"
       style="opacity:0.38999999;fill:none;stroke:#0000ff;stroke-width:1px;stroke-linecap:butt;stroke-linejoin:miter;stroke-opacity:1;marker-mid:url(#Arrow2MendS)" />
    <path
       id="path4011-4-9"
       sodipodi:nodetypes="csaaaac"
       inkscape:connector-curvature="0"
       d="m 272.71653,215.15985 c 0,0 3.24042,21.02114 5.75442,52.45734 1.257,15.7181 9.56559,36.55134 14.73712,54.71934 4.96394,17.43871 11.55025,34.43351 15.63507,52.09883 3.81073,16.47998 6.23142,33.27624 8.23114,50.07245 1.97036,16.5495 2.8861,33.21555 3.70019,49.86204 0.60957,12.46445 0.88566,37.42756 0.88566,37.42756"
       style="opacity:0.38999999;fill:none;stroke:#0000ff;stroke-width:1px;stroke-linecap:butt;stroke-linejoin:miter;stroke-opacity:1;marker-mid:url(#Arrow2MendS)" />
  </g>
</svg>
