<?xml version="1.0" encoding="UTF-8" standalone="no"?>
<!-- Created with Inkscape (http://www.inkscape.org/) -->

<svg
   xmlns:dc="http://purl.org/dc/elements/1.1/"
   xmlns:cc="http://creativecommons.org/ns#"
   xmlns:rdf="http://www.w3.org/1999/02/22-rdf-syntax-ns#"
   xmlns:svg="http://www.w3.org/2000/svg"
   xmlns="http://www.w3.org/2000/svg"
   xmlns:sodipodi="http://sodipodi.sourceforge.net/DTD/sodipodi-0.dtd"
   xmlns:inkscape="http://www.inkscape.org/namespaces/inkscape"
   width="744.09448819"
   height="1052.3622047"
   id="svg2"
   version="1.1"
   inkscape:version="0.48.4 r9939"
   sodipodi:docname="map_A_on_surfaces.svg">
  <defs
     id="defs4" />
  <sodipodi:namedview
     id="base"
     pagecolor="#ffffff"
     bordercolor="#666666"
     borderopacity="1.0"
     inkscape:pageopacity="0.0"
     inkscape:pageshadow="2"
     inkscape:zoom="27.917187"
     inkscape:cx="574.32881"
     inkscape:cy="906.59811"
     inkscape:document-units="px"
     inkscape:current-layer="layer1"
     showgrid="false"
     inkscape:window-width="1600"
     inkscape:window-height="749"
     inkscape:window-x="-2"
     inkscape:window-y="-3"
     inkscape:window-maximized="1" />
  <metadata
     id="metadata7">
    <rdf:RDF>
      <cc:Work
         rdf:about="">
        <dc:format>image/svg+xml</dc:format>
        <dc:type
           rdf:resource="http://purl.org/dc/dcmitype/StillImage" />
        <dc:title></dc:title>
      </cc:Work>
    </rdf:RDF>
  </metadata>
  <g
     inkscape:label="Layer 1"
     inkscape:groupmode="layer"
     id="layer1">
    <path
       style="fill:none;stroke:#000000;stroke-width:1.25;stroke-linecap:butt;stroke-linejoin:miter;stroke-miterlimit:4;stroke-opacity:1;stroke-dasharray:3.75,3.75;stroke-dashoffset:0"
       d="m 225.98684,140.51906 c -7.43323,0 -13.45905,34.04418 -13.45905,76.03979 0,41.99562 6.02582,76.0398 13.45905,76.0398"
       id="path3021" />
    <path
       style="fill:none;stroke:#000000;stroke-width:1.25;stroke-linecap:butt;stroke-linejoin:miter;stroke-miterlimit:4;stroke-opacity:1;stroke-dasharray:none"
       d="m 452.19678,361.28903 c -7.43323,0 -13.45906,-25.63515 -13.45906,-57.25773 0,-31.62257 6.02583,-57.25773 13.45906,-57.25773 0,0 -15.24128,-19.46596 -14.77318,-30.86138 0.73661,-17.93221 12.61073,-35.97527 27.15236,-46.49421 33.86878,-24.49958 122.64159,-26.17166 122.64159,-26.17166 -0.83803,0 -1.05403,-0.45578 -1.51739,-3.38043 -0.29366,-1.85354 0.67936,-3.38044 1.51739,-3.38044 -49.60908,-6.54038 -99.33018,-7.63094 -146.19823,-7.62144 -77.02175,0.441 -136.03128,5.72867 -215.03248,11.65505"
       id="path3811" />
    <path
       style="fill:none;stroke:#000000;stroke-width:1.25;stroke-linecap:butt;stroke-linejoin:miter;stroke-miterlimit:4;stroke-opacity:1;stroke-dasharray:3.75,3.75;stroke-dashoffset:0"
       d="m 225.98684,140.51906 c 7.43323,0 13.45906,34.04418 13.45906,76.03979 0,41.99562 -6.02583,76.0398 -13.45906,76.0398"
       id="path3809" />
    <path
       style="fill:none;stroke:#000000;stroke-width:1.25;stroke-linecap:butt;stroke-linejoin:miter;stroke-miterlimit:4;stroke-opacity:1;stroke-dasharray:none"
       d="m 225.98684,292.59865 c 0,0 42.74614,-9.50142 134.55062,12.5087 35.05736,8.405 90.54125,56.3414 90.54125,56.3414 7.43323,0 14.57712,-25.79487 14.57712,-57.41745 0,-31.62257 -6.02582,-57.25773 -13.45905,-57.25773"
       id="path3029"
       inkscape:connector-curvature="0"
       sodipodi:nodetypes="cscsc" />
    <path
       style="fill:none;stroke:#000000;stroke-width:1.25;stroke-linecap:butt;stroke-linejoin:miter;stroke-miterlimit:4;stroke-opacity:1;stroke-dasharray:none;marker-start:none"
       d="m 587.07427,136.48463 c 0.83803,0 1.51739,1.51347 1.51739,3.38044 0,1.86695 -0.67936,3.38043 -1.51739,3.38043"
       id="path3035"
       inkscape:connector-curvature="0" />
  </g>
</svg>
