<?xml version="1.0" encoding="UTF-8" standalone="no"?>
<!-- Created with Inkscape (http://www.inkscape.org/) -->

<svg
   xmlns:dc="http://purl.org/dc/elements/1.1/"
   xmlns:cc="http://creativecommons.org/ns#"
   xmlns:rdf="http://www.w3.org/1999/02/22-rdf-syntax-ns#"
   xmlns:svg="http://www.w3.org/2000/svg"
   xmlns="http://www.w3.org/2000/svg"
   xmlns:sodipodi="http://sodipodi.sourceforge.net/DTD/sodipodi-0.dtd"
   xmlns:inkscape="http://www.inkscape.org/namespaces/inkscape"
   width="744.09448819"
   height="1052.3622047"
   id="svg2"
   version="1.1"
   inkscape:version="0.48.4 r9939"
   sodipodi:docname="pole_with_order_3.svg">
  <sodipodi:namedview
     id="base"
     pagecolor="#ffffff"
     bordercolor="#666666"
     borderopacity="1.0"
     inkscape:pageopacity="0.0"
     inkscape:pageshadow="2"
     inkscape:zoom="1.4264407"
     inkscape:cx="520.0968"
     inkscape:cy="741.18515"
     inkscape:document-units="px"
     inkscape:current-layer="layer1"
     showgrid="false"
     inkscape:window-width="1600"
     inkscape:window-height="749"
     inkscape:window-x="-2"
     inkscape:window-y="-3"
     inkscape:window-maximized="1" />
  <defs
     id="defs4">
    <marker
       inkscape:stockid="Arrow2Mstart"
       orient="auto"
       refY="0.0"
       refX="0.0"
       id="Arrow2Mstart"
       style="overflow:visible">
      <path
         id="path3971"
         style="fill-rule:evenodd;stroke-width:0.62500000;stroke-linejoin:round"
         d="M 8.7185878,4.0337352 L -2.2072895,0.016013256 L 8.7185884,-4.0017078 C 6.9730900,-1.6296469 6.9831476,1.6157441 8.7185878,4.0337352 z "
         transform="scale(0.6) translate(0,0)" />
    </marker>
    <marker
       style="overflow:visible;"
       id="Arrow1Mend"
       refX="0.0"
       refY="0.0"
       orient="auto"
       inkscape:stockid="Arrow1Mend">
      <path
         transform="scale(0.4) rotate(180) translate(10,0)"
         style="fill-rule:evenodd;stroke:#000000;stroke-width:1.0pt;"
         d="M 0.0,0.0 L 5.0,-5.0 L -12.5,0.0 L 5.0,5.0 L 0.0,0.0 z "
         id="path3956" />
    </marker>
    <marker
       style="overflow:visible;"
       id="Arrow1Lend"
       refX="0.0"
       refY="0.0"
       orient="auto"
       inkscape:stockid="Arrow1Lend">
      <path
         transform="scale(0.8) rotate(180) translate(12.5,0)"
         style="fill-rule:evenodd;stroke:#000000;stroke-width:1.0pt;"
         d="M 0.0,0.0 L 5.0,-5.0 L -12.5,0.0 L 5.0,5.0 L 0.0,0.0 z "
         id="path3950" />
    </marker>
    <marker
       style="overflow:visible;"
       id="Arrow1Send"
       refX="0.0"
       refY="0.0"
       orient="auto"
       inkscape:stockid="Arrow1Send">
      <path
         transform="scale(0.2) rotate(180) translate(6,0)"
         style="fill-rule:evenodd;stroke:#000000;stroke-width:1.0pt;"
         d="M 0.0,0.0 L 5.0,-5.0 L -12.5,0.0 L 5.0,5.0 L 0.0,0.0 z "
         id="path3962" />
    </marker>
    <marker
       style="overflow:visible"
       id="Arrow1Lend-5"
       refX="0"
       refY="0"
       orient="auto"
       inkscape:stockid="Arrow1Lend">
      <path
         transform="matrix(-0.8,0,0,-0.8,-10,0)"
         style="fill-rule:evenodd;stroke:#000000;stroke-width:1pt"
         d="M 0,0 5,-5 -12.5,0 5,5 0,0 z"
         id="path3950-9"
         inkscape:connector-curvature="0" />
    </marker>
    <marker
       style="overflow:visible"
       id="marker4963"
       refX="0"
       refY="0"
       orient="auto"
       inkscape:stockid="Arrow1Lend">
      <path
         transform="matrix(-0.8,0,0,-0.8,-10,0)"
         style="fill-rule:evenodd;stroke:#000000;stroke-width:1pt"
         d="M 0,0 5,-5 -12.5,0 5,5 0,0 z"
         id="path4965"
         inkscape:connector-curvature="0" />
    </marker>
    <marker
       style="overflow:visible"
       id="marker4967"
       refX="0"
       refY="0"
       orient="auto"
       inkscape:stockid="Arrow1Lend">
      <path
         transform="matrix(-0.8,0,0,-0.8,-10,0)"
         style="fill-rule:evenodd;stroke:#000000;stroke-width:1pt"
         d="M 0,0 5,-5 -12.5,0 5,5 0,0 z"
         id="path4969"
         inkscape:connector-curvature="0" />
    </marker>
    <marker
       style="overflow:visible"
       id="marker4971"
       refX="0"
       refY="0"
       orient="auto"
       inkscape:stockid="Arrow1Lend">
      <path
         transform="matrix(-0.8,0,0,-0.8,-10,0)"
         style="fill-rule:evenodd;stroke:#000000;stroke-width:1pt"
         d="M 0,0 5,-5 -12.5,0 5,5 0,0 z"
         id="path4973"
         inkscape:connector-curvature="0" />
    </marker>
    <marker
       style="overflow:visible"
       id="marker4975"
       refX="0"
       refY="0"
       orient="auto"
       inkscape:stockid="Arrow1Lend">
      <path
         transform="matrix(-0.8,0,0,-0.8,-10,0)"
         style="fill-rule:evenodd;stroke:#000000;stroke-width:1pt"
         d="M 0,0 5,-5 -12.5,0 5,5 0,0 z"
         id="path4977"
         inkscape:connector-curvature="0" />
    </marker>
    <marker
       style="overflow:visible"
       id="marker4979"
       refX="0"
       refY="0"
       orient="auto"
       inkscape:stockid="Arrow1Lend">
      <path
         transform="matrix(-0.8,0,0,-0.8,-10,0)"
         style="fill-rule:evenodd;stroke:#000000;stroke-width:1pt"
         d="M 0,0 5,-5 -12.5,0 5,5 0,0 z"
         id="path4981"
         inkscape:connector-curvature="0" />
    </marker>
    <marker
       style="overflow:visible"
       id="marker4983"
       refX="0"
       refY="0"
       orient="auto"
       inkscape:stockid="Arrow1Lend">
      <path
         transform="matrix(-0.8,0,0,-0.8,-10,0)"
         style="fill-rule:evenodd;stroke:#000000;stroke-width:1pt"
         d="M 0,0 5,-5 -12.5,0 5,5 0,0 z"
         id="path4985"
         inkscape:connector-curvature="0" />
    </marker>
    <marker
       style="overflow:visible"
       id="marker4987"
       refX="0"
       refY="0"
       orient="auto"
       inkscape:stockid="Arrow1Lend">
      <path
         transform="matrix(-0.8,0,0,-0.8,-10,0)"
         style="fill-rule:evenodd;stroke:#000000;stroke-width:1pt"
         d="M 0,0 5,-5 -12.5,0 5,5 0,0 z"
         id="path4989"
         inkscape:connector-curvature="0" />
    </marker>
    <marker
       style="overflow:visible;"
       id="Arrow1MendR"
       refX="0.0"
       refY="0.0"
       orient="auto"
       inkscape:stockid="Arrow1MendR">
      <path
         transform="scale(0.4) rotate(180) translate(10,0)"
         style="stroke:#0000ff;stroke-width:1.0pt;fill:#0000ff;fill-rule:evenodd"
         d="M 0.0,0.0 L 5.0,-5.0 L -12.5,0.0 L 5.0,5.0 L 0.0,0.0 z "
         id="path6345" />
    </marker>
    <marker
       style="overflow:visible;"
       id="Arrow1MendI"
       refX="0.0"
       refY="0.0"
       orient="auto"
       inkscape:stockid="Arrow1MendI">
      <path
         transform="scale(0.4) rotate(180) translate(10,0)"
         style="stroke:#0000ff;stroke-width:1.0pt;fill:#0000ff;fill-rule:evenodd"
         d="M 0.0,0.0 L 5.0,-5.0 L -12.5,0.0 L 5.0,5.0 L 0.0,0.0 z "
         id="path6348" />
    </marker>
    <marker
       style="overflow:visible;"
       id="Arrow1Mendp"
       refX="0.0"
       refY="0.0"
       orient="auto"
       inkscape:stockid="Arrow1Mendp">
      <path
         transform="scale(0.4) rotate(180) translate(10,0)"
         style="stroke:#0000ff;stroke-width:1.0pt;fill:#0000ff;fill-rule:evenodd"
         d="M 0.0,0.0 L 5.0,-5.0 L -12.5,0.0 L 5.0,5.0 L 0.0,0.0 z "
         id="path6351" />
    </marker>
    <marker
       style="overflow:visible;"
       id="Arrow1MendRi"
       refX="0.0"
       refY="0.0"
       orient="auto"
       inkscape:stockid="Arrow1MendRi">
      <path
         transform="scale(0.4) rotate(180) translate(10,0)"
         style="stroke:#0000ff;stroke-width:1.0pt;fill:#0000ff;fill-rule:evenodd"
         d="M 0.0,0.0 L 5.0,-5.0 L -12.5,0.0 L 5.0,5.0 L 0.0,0.0 z "
         id="path6354" />
    </marker>
    <marker
       style="overflow:visible;"
       id="Arrow1Mendw"
       refX="0.0"
       refY="0.0"
       orient="auto"
       inkscape:stockid="Arrow1Mendw">
      <path
         transform="scale(0.4) rotate(180) translate(10,0)"
         style="stroke:#0000ff;stroke-width:1.0pt;fill:#0000ff;fill-rule:evenodd"
         d="M 0.0,0.0 L 5.0,-5.0 L -12.5,0.0 L 5.0,5.0 L 0.0,0.0 z "
         id="path6357" />
    </marker>
    <marker
       style="overflow:visible;"
       id="Arrow1MendX"
       refX="0.0"
       refY="0.0"
       orient="auto"
       inkscape:stockid="Arrow1MendX">
      <path
         transform="scale(0.4) rotate(180) translate(10,0)"
         style="stroke:#0000ff;stroke-width:1.0pt;fill:#0000ff;fill-rule:evenodd"
         d="M 0.0,0.0 L 5.0,-5.0 L -12.5,0.0 L 5.0,5.0 L 0.0,0.0 z "
         id="path6360" />
    </marker>
    <marker
       style="overflow:visible;"
       id="Arrow1Menda"
       refX="0.0"
       refY="0.0"
       orient="auto"
       inkscape:stockid="Arrow1Menda">
      <path
         transform="scale(0.4) rotate(180) translate(10,0)"
         style="stroke:#0000ff;stroke-width:1.0pt;fill:#0000ff;fill-rule:evenodd"
         d="M 0.0,0.0 L 5.0,-5.0 L -12.5,0.0 L 5.0,5.0 L 0.0,0.0 z "
         id="path6363" />
    </marker>
    <marker
       style="overflow:visible;"
       id="Arrow1Mendy"
       refX="0.0"
       refY="0.0"
       orient="auto"
       inkscape:stockid="Arrow1Mendy">
      <path
         transform="scale(0.4) rotate(180) translate(10,0)"
         style="stroke:#0000ff;stroke-width:1.0pt;fill:#0000ff;fill-rule:evenodd"
         d="M 0.0,0.0 L 5.0,-5.0 L -12.5,0.0 L 5.0,5.0 L 0.0,0.0 z "
         id="path6366" />
    </marker>
    <marker
       style="overflow:visible;"
       id="Arrow1Mend0"
       refX="0.0"
       refY="0.0"
       orient="auto"
       inkscape:stockid="Arrow1Mend0">
      <path
         transform="scale(0.4) rotate(180) translate(10,0)"
         style="stroke:#0000ff;stroke-width:1.0pt;fill:#0000ff;fill-rule:evenodd"
         d="M 0.0,0.0 L 5.0,-5.0 L -12.5,0.0 L 5.0,5.0 L 0.0,0.0 z "
         id="path6369" />
    </marker>
    <marker
       style="overflow:visible;"
       id="Arrow1Mendl"
       refX="0.0"
       refY="0.0"
       orient="auto"
       inkscape:stockid="Arrow1Mendl">
      <path
         transform="scale(0.4) rotate(180) translate(10,0)"
         style="stroke:#0000ff;stroke-width:1.0pt;fill:#0000ff;fill-rule:evenodd"
         d="M 0.0,0.0 L 5.0,-5.0 L -12.5,0.0 L 5.0,5.0 L 0.0,0.0 z "
         id="path6372" />
    </marker>
    <marker
       style="overflow:visible;"
       id="Arrow1MendwT"
       refX="0.0"
       refY="0.0"
       orient="auto"
       inkscape:stockid="Arrow1MendwT">
      <path
         transform="scale(0.4) rotate(180) translate(10,0)"
         style="stroke:#0000ff;stroke-width:1.0pt;fill:#0000ff;fill-rule:evenodd"
         d="M 0.0,0.0 L 5.0,-5.0 L -12.5,0.0 L 5.0,5.0 L 0.0,0.0 z "
         id="path6375" />
    </marker>
    <marker
       style="overflow:visible"
       id="Arrow1MendR-5"
       refX="0"
       refY="0"
       orient="auto"
       inkscape:stockid="Arrow1MendR">
      <path
         inkscape:connector-curvature="0"
         transform="matrix(-0.4,0,0,-0.4,-4,0)"
         style="fill:#0000ff;fill-rule:evenodd;stroke:#0000ff;stroke-width:1pt"
         d="M 0,0 5,-5 -12.5,0 5,5 0,0 z"
         id="path6345-5" />
    </marker>
    <marker
       style="overflow:visible"
       id="Arrow1Mendw-8"
       refX="0"
       refY="0"
       orient="auto"
       inkscape:stockid="Arrow1Mendw">
      <path
         inkscape:connector-curvature="0"
         transform="matrix(-0.4,0,0,-0.4,-4,0)"
         style="fill:#0000ff;fill-rule:evenodd;stroke:#0000ff;stroke-width:1pt"
         d="M 0,0 5,-5 -12.5,0 5,5 0,0 z"
         id="path6357-3" />
    </marker>
    <marker
       style="overflow:visible"
       id="Arrow1MendRi-3"
       refX="0"
       refY="0"
       orient="auto"
       inkscape:stockid="Arrow1MendRi">
      <path
         inkscape:connector-curvature="0"
         transform="matrix(-0.4,0,0,-0.4,-4,0)"
         style="fill:#0000ff;fill-rule:evenodd;stroke:#0000ff;stroke-width:1pt"
         d="M 0,0 5,-5 -12.5,0 5,5 0,0 z"
         id="path6354-6" />
    </marker>
    <marker
       style="overflow:visible"
       id="Arrow1Mendp-1"
       refX="0"
       refY="0"
       orient="auto"
       inkscape:stockid="Arrow1Mendp">
      <path
         inkscape:connector-curvature="0"
         transform="matrix(-0.4,0,0,-0.4,-4,0)"
         style="fill:#0000ff;fill-rule:evenodd;stroke:#0000ff;stroke-width:1pt"
         d="M 0,0 5,-5 -12.5,0 5,5 0,0 z"
         id="path6351-7" />
    </marker>
    <marker
       style="overflow:visible"
       id="Arrow1Mendl-1"
       refX="0"
       refY="0"
       orient="auto"
       inkscape:stockid="Arrow1Mendl">
      <path
         inkscape:connector-curvature="0"
         transform="matrix(-0.4,0,0,-0.4,-4,0)"
         style="fill:#0000ff;fill-rule:evenodd;stroke:#0000ff;stroke-width:1pt"
         d="M 0,0 5,-5 -12.5,0 5,5 0,0 z"
         id="path6372-5" />
    </marker>
    <marker
       style="overflow:visible"
       id="Arrow1MendwT-0"
       refX="0"
       refY="0"
       orient="auto"
       inkscape:stockid="Arrow1MendwT">
      <path
         inkscape:connector-curvature="0"
         transform="matrix(-0.4,0,0,-0.4,-4,0)"
         style="fill:#0000ff;fill-rule:evenodd;stroke:#0000ff;stroke-width:1pt"
         d="M 0,0 5,-5 -12.5,0 5,5 0,0 z"
         id="path6375-0" />
    </marker>
    <marker
       style="overflow:visible"
       id="Arrow1MendX-2"
       refX="0"
       refY="0"
       orient="auto"
       inkscape:stockid="Arrow1MendX">
      <path
         inkscape:connector-curvature="0"
         transform="matrix(-0.4,0,0,-0.4,-4,0)"
         style="fill:#0000ff;fill-rule:evenodd;stroke:#0000ff;stroke-width:1pt"
         d="M 0,0 5,-5 -12.5,0 5,5 0,0 z"
         id="path6360-7" />
    </marker>
    <marker
       style="overflow:visible"
       id="Arrow1MendI-0"
       refX="0"
       refY="0"
       orient="auto"
       inkscape:stockid="Arrow1MendI">
      <path
         inkscape:connector-curvature="0"
         transform="matrix(-0.4,0,0,-0.4,-4,0)"
         style="fill:#0000ff;fill-rule:evenodd;stroke:#0000ff;stroke-width:1pt"
         d="M 0,0 5,-5 -12.5,0 5,5 0,0 z"
         id="path6348-3" />
    </marker>
    <marker
       style="overflow:visible;"
       id="Arrow1Lend5"
       refX="0.0"
       refY="0.0"
       orient="auto"
       inkscape:stockid="Arrow1Lend5">
      <path
         transform="scale(0.8) rotate(180) translate(12.5,0)"
         style="stroke:#0000ff;stroke-width:1.0pt;fill:#0000ff;fill-rule:evenodd"
         d="M 0.0,0.0 L 5.0,-5.0 L -12.5,0.0 L 5.0,5.0 L 0.0,0.0 z "
         id="path6655" />
    </marker>
    <marker
       style="overflow:visible;"
       id="Arrow1Lendc"
       refX="0.0"
       refY="0.0"
       orient="auto"
       inkscape:stockid="Arrow1Lendc">
      <path
         transform="scale(0.8) rotate(180) translate(12.5,0)"
         style="stroke:#0000ff;stroke-width:1.0pt;fill:#0000ff;fill-rule:evenodd"
         d="M 0.0,0.0 L 5.0,-5.0 L -12.5,0.0 L 5.0,5.0 L 0.0,0.0 z "
         id="path6658" />
    </marker>
    <marker
       style="overflow:visible;"
       id="Arrow1Lendl"
       refX="0.0"
       refY="0.0"
       orient="auto"
       inkscape:stockid="Arrow1Lendl">
      <path
         transform="scale(0.8) rotate(180) translate(12.5,0)"
         style="stroke:#0000ff;stroke-width:1.0pt;fill:#0000ff;fill-rule:evenodd"
         d="M 0.0,0.0 L 5.0,-5.0 L -12.5,0.0 L 5.0,5.0 L 0.0,0.0 z "
         id="path6661" />
    </marker>
    <marker
       style="overflow:visible;"
       id="Arrow1Lendk"
       refX="0.0"
       refY="0.0"
       orient="auto"
       inkscape:stockid="Arrow1Lendk">
      <path
         transform="scale(0.8) rotate(180) translate(12.5,0)"
         style="stroke:#0000ff;stroke-width:1.0pt;fill:#0000ff;fill-rule:evenodd"
         d="M 0.0,0.0 L 5.0,-5.0 L -12.5,0.0 L 5.0,5.0 L 0.0,0.0 z "
         id="path6664" />
    </marker>
    <marker
       style="overflow:visible;"
       id="Arrow1LendD"
       refX="0.0"
       refY="0.0"
       orient="auto"
       inkscape:stockid="Arrow1LendD">
      <path
         transform="scale(0.8) rotate(180) translate(12.5,0)"
         style="stroke:#0000ff;stroke-width:1.0pt;fill:#0000ff;fill-rule:evenodd"
         d="M 0.0,0.0 L 5.0,-5.0 L -12.5,0.0 L 5.0,5.0 L 0.0,0.0 z "
         id="path6667" />
    </marker>
    <marker
       style="overflow:visible;"
       id="Arrow1LendP"
       refX="0.0"
       refY="0.0"
       orient="auto"
       inkscape:stockid="Arrow1LendP">
      <path
         transform="scale(0.8) rotate(180) translate(12.5,0)"
         style="stroke:#0000ff;stroke-width:1.0pt;fill:#0000ff;fill-rule:evenodd"
         d="M 0.0,0.0 L 5.0,-5.0 L -12.5,0.0 L 5.0,5.0 L 0.0,0.0 z "
         id="path6670" />
    </marker>
    <marker
       style="overflow:visible;"
       id="Arrow1Lendy"
       refX="0.0"
       refY="0.0"
       orient="auto"
       inkscape:stockid="Arrow1Lendy">
      <path
         transform="scale(0.8) rotate(180) translate(12.5,0)"
         style="stroke:#0000ff;stroke-width:1.0pt;fill:#0000ff;fill-rule:evenodd"
         d="M 0.0,0.0 L 5.0,-5.0 L -12.5,0.0 L 5.0,5.0 L 0.0,0.0 z "
         id="path6673" />
    </marker>
    <marker
       style="overflow:visible;"
       id="Arrow1Lende"
       refX="0.0"
       refY="0.0"
       orient="auto"
       inkscape:stockid="Arrow1Lende">
      <path
         transform="scale(0.8) rotate(180) translate(12.5,0)"
         style="stroke:#0000ff;stroke-width:1.0pt;fill:#0000ff;fill-rule:evenodd"
         d="M 0.0,0.0 L 5.0,-5.0 L -12.5,0.0 L 5.0,5.0 L 0.0,0.0 z "
         id="path6676" />
    </marker>
    <marker
       inkscape:stockid="Arrow2Mend-1V"
       orient="auto"
       refY="0"
       refX="0"
       id="Arrow2Mend-1V"
       style="overflow:visible">
      <path
         inkscape:connector-curvature="0"
         id="path6383"
         style="fill:#0000ff;fill-rule:evenodd;stroke:#0000ff;stroke-width:0.625;stroke-linejoin:round"
         d="M 8.7185878,4.0337352 -2.2072895,0.01601326 8.7185884,-4.0017078 c -1.7454984,2.3720609 -1.7354408,5.6174519 -6e-7,8.035443 z"
         transform="scale(-0.6,-0.6)" />
    </marker>
    <marker
       inkscape:stockid="Arrow2Mend-1X"
       orient="auto"
       refY="0"
       refX="0"
       id="Arrow2Mend-1X"
       style="overflow:visible">
      <path
         inkscape:connector-curvature="0"
         id="path6392"
         style="fill:#0000ff;fill-rule:evenodd;stroke:#0000ff;stroke-width:0.625;stroke-linejoin:round"
         d="M 8.7185878,4.0337352 -2.2072895,0.01601326 8.7185884,-4.0017078 c -1.7454984,2.3720609 -1.7354408,5.6174519 -6e-7,8.035443 z"
         transform="scale(-0.6,-0.6)" />
    </marker>
    <marker
       inkscape:stockid="Arrow2Mend-10J"
       orient="auto"
       refY="0"
       refX="0"
       id="Arrow2Mend-10J"
       style="overflow:visible">
      <path
         inkscape:connector-curvature="0"
         id="path6395"
         style="fill:#0000ff;fill-rule:evenodd;stroke:#0000ff;stroke-width:0.625;stroke-linejoin:round"
         d="M 8.7185878,4.0337352 -2.2072895,0.01601326 8.7185884,-4.0017078 c -1.7454984,2.3720609 -1.7354408,5.6174519 -6e-7,8.035443 z"
         transform="scale(-0.6,-0.6)" />
    </marker>
    <marker
       inkscape:stockid="Arrow2Mend-10"
       orient="auto"
       refY="0"
       refX="0"
       id="Arrow2Mend-10"
       style="overflow:visible">
      <path
         inkscape:connector-curvature="0"
         id="path6389"
         style="fill:#0000ff;fill-rule:evenodd;stroke:#0000ff;stroke-width:0.625;stroke-linejoin:round"
         d="M 8.7185878,4.0337352 -2.2072895,0.01601326 8.7185884,-4.0017078 c -1.7454984,2.3720609 -1.7354408,5.6174519 -6e-7,8.035443 z"
         transform="scale(-0.6,-0.6)" />
    </marker>
    <marker
       inkscape:stockid="Arrow2Mend-1i"
       orient="auto"
       refY="0"
       refX="0"
       id="Arrow2Mend-1i"
       style="overflow:visible">
      <path
         inkscape:connector-curvature="0"
         id="path6413"
         style="fill:#0000ff;fill-rule:evenodd;stroke:#0000ff;stroke-width:0.625;stroke-linejoin:round"
         d="M 8.7185878,4.0337352 -2.2072895,0.01601326 8.7185884,-4.0017078 c -1.7454984,2.3720609 -1.7354408,5.6174519 -6e-7,8.035443 z"
         transform="scale(-0.6,-0.6)" />
    </marker>
    <marker
       inkscape:stockid="Arrow2Mend-1b"
       orient="auto"
       refY="0"
       refX="0"
       id="Arrow2Mend-1b"
       style="overflow:visible">
      <path
         inkscape:connector-curvature="0"
         id="path6416"
         style="fill:#0000ff;fill-rule:evenodd;stroke:#0000ff;stroke-width:0.625;stroke-linejoin:round"
         d="M 8.7185878,4.0337352 -2.2072895,0.01601326 8.7185884,-4.0017078 c -1.7454984,2.3720609 -1.7354408,5.6174519 -6e-7,8.035443 z"
         transform="scale(-0.6,-0.6)" />
    </marker>
    <marker
       inkscape:stockid="Arrow2Mend-1q"
       orient="auto"
       refY="0"
       refX="0"
       id="Arrow2Mend-1q"
       style="overflow:visible">
      <path
         inkscape:connector-curvature="0"
         id="path6407"
         style="fill:#0000ff;fill-rule:evenodd;stroke:#0000ff;stroke-width:0.625;stroke-linejoin:round"
         d="M 8.7185878,4.0337352 -2.2072895,0.01601326 8.7185884,-4.0017078 c -1.7454984,2.3720609 -1.7354408,5.6174519 -6e-7,8.035443 z"
         transform="scale(-0.6,-0.6)" />
    </marker>
    <marker
       inkscape:stockid="Arrow2Mend-1R"
       orient="auto"
       refY="0"
       refX="0"
       id="Arrow2Mend-1R"
       style="overflow:visible">
      <path
         inkscape:connector-curvature="0"
         id="path6398"
         style="fill:#0000ff;fill-rule:evenodd;stroke:#0000ff;stroke-width:0.625;stroke-linejoin:round"
         d="M 8.7185878,4.0337352 -2.2072895,0.01601326 8.7185884,-4.0017078 c -1.7454984,2.3720609 -1.7354408,5.6174519 -6e-7,8.035443 z"
         transform="scale(-0.6,-0.6)" />
    </marker>
    <marker
       inkscape:stockid="Arrow2Mend-1j"
       orient="auto"
       refY="0"
       refX="0"
       id="Arrow2Mend-1j"
       style="overflow:visible">
      <path
         inkscape:connector-curvature="0"
         id="path6386"
         style="fill:#0000ff;fill-rule:evenodd;stroke:#0000ff;stroke-width:0.625;stroke-linejoin:round"
         d="M 8.7185878,4.0337352 -2.2072895,0.01601326 8.7185884,-4.0017078 c -1.7454984,2.3720609 -1.7354408,5.6174519 -6e-7,8.035443 z"
         transform="scale(-0.6,-0.6)" />
    </marker>
    <marker
       inkscape:stockid="Arrow2Mend-1g"
       orient="auto"
       refY="0"
       refX="0"
       id="Arrow2Mend-1g"
       style="overflow:visible">
      <path
         inkscape:connector-curvature="0"
         id="path6404"
         style="fill:#0000ff;fill-rule:evenodd;stroke:#0000ff;stroke-width:0.625;stroke-linejoin:round"
         d="M 8.7185878,4.0337352 -2.2072895,0.01601326 8.7185884,-4.0017078 c -1.7454984,2.3720609 -1.7354408,5.6174519 -6e-7,8.035443 z"
         transform="scale(-0.6,-0.6)" />
    </marker>
    <marker
       inkscape:stockid="Arrow2Mend-1D"
       orient="auto"
       refY="0"
       refX="0"
       id="Arrow2Mend-1D"
       style="overflow:visible">
      <path
         inkscape:connector-curvature="0"
         id="path6401"
         style="fill:#0000ff;fill-rule:evenodd;stroke:#0000ff;stroke-width:0.625;stroke-linejoin:round"
         d="M 8.7185878,4.0337352 -2.2072895,0.01601326 8.7185884,-4.0017078 c -1.7454984,2.3720609 -1.7354408,5.6174519 -6e-7,8.035443 z"
         transform="scale(-0.6,-0.6)" />
    </marker>
    <marker
       style="overflow:visible"
       id="Arrow2Lend"
       refX="0"
       refY="0"
       orient="auto"
       inkscape:stockid="Arrow2Lend">
      <path
         inkscape:connector-curvature="0"
         transform="matrix(-1.1,0,0,-1.1,-1.1,0)"
         d="M 8.7185878,4.0337352 -2.2072895,0.01601326 8.7185884,-4.0017078 c -1.7454984,2.3720609 -1.7354408,5.6174519 -6e-7,8.035443 z"
         style="fill-rule:evenodd;stroke-width:0.625;stroke-linejoin:round"
         id="path5449" />
    </marker>
    <marker
       style="overflow:visible;"
       id="Arrow1MendwO"
       refX="0.0"
       refY="0.0"
       orient="auto"
       inkscape:stockid="Arrow1MendwO">
      <path
         transform="scale(0.4) rotate(180) translate(10,0)"
         style="stroke:#0000ff;stroke-width:1.0pt;fill:#0000ff;fill-rule:evenodd"
         d="M 0.0,0.0 L 5.0,-5.0 L -12.5,0.0 L 5.0,5.0 L 0.0,0.0 z "
         id="path9701" />
    </marker>
    <marker
       style="overflow:visible"
       id="Arrow1MendwO-2"
       refX="0"
       refY="0"
       orient="auto"
       inkscape:stockid="Arrow1MendwO">
      <path
         inkscape:connector-curvature="0"
         transform="matrix(-0.4,0,0,-0.4,-4,0)"
         style="fill:#0000ff;fill-rule:evenodd;stroke:#0000ff;stroke-width:1pt"
         d="M 0,0 5,-5 -12.5,0 5,5 0,0 z"
         id="path9701-4" />
    </marker>
    <marker
       style="overflow:visible"
       id="Arrow1MendwO-7"
       refX="0"
       refY="0"
       orient="auto"
       inkscape:stockid="Arrow1MendwO">
      <path
         inkscape:connector-curvature="0"
         transform="matrix(-0.4,0,0,-0.4,-4,0)"
         style="fill:#0000ff;fill-rule:evenodd;stroke:#0000ff;stroke-width:1pt"
         d="M 0,0 5,-5 -12.5,0 5,5 0,0 z"
         id="path9701-9" />
    </marker>
    <marker
       style="overflow:visible"
       id="Arrow1MendwO-4"
       refX="0"
       refY="0"
       orient="auto"
       inkscape:stockid="Arrow1MendwO">
      <path
         inkscape:connector-curvature="0"
         transform="matrix(-0.4,0,0,-0.4,-4,0)"
         style="fill:#0000ff;fill-rule:evenodd;stroke:#0000ff;stroke-width:1pt"
         d="M 0,0 5,-5 -12.5,0 5,5 0,0 z"
         id="path9701-44" />
    </marker>
    <marker
       style="overflow:visible"
       id="Arrow1MendwO-71"
       refX="0"
       refY="0"
       orient="auto"
       inkscape:stockid="Arrow1MendwO">
      <path
         inkscape:connector-curvature="0"
         transform="matrix(-0.4,0,0,-0.4,-4,0)"
         style="fill:#0000ff;fill-rule:evenodd;stroke:#0000ff;stroke-width:1pt"
         d="M 0,0 5,-5 -12.5,0 5,5 0,0 z"
         id="path9701-2" />
    </marker>
    <marker
       style="overflow:visible"
       id="Arrow1MendwO-3"
       refX="0"
       refY="0"
       orient="auto"
       inkscape:stockid="Arrow1MendwO">
      <path
         inkscape:connector-curvature="0"
         transform="matrix(-0.4,0,0,-0.4,-4,0)"
         style="fill:#0000ff;fill-rule:evenodd;stroke:#0000ff;stroke-width:1pt"
         d="M 0,0 5,-5 -12.5,0 5,5 0,0 z"
         id="path9701-1" />
    </marker>
    <marker
       style="overflow:visible"
       id="Arrow1MendR-5-4"
       refX="0"
       refY="0"
       orient="auto"
       inkscape:stockid="Arrow1MendR">
      <path
         inkscape:connector-curvature="0"
         transform="matrix(-0.4,0,0,-0.4,-4,0)"
         style="fill:#0000ff;fill-rule:evenodd;stroke:#0000ff;stroke-width:1pt"
         d="M 0,0 5,-5 -12.5,0 5,5 0,0 z"
         id="path6345-5-8" />
    </marker>
    <marker
       style="overflow:visible"
       id="Arrow1MendR-5-0"
       refX="0"
       refY="0"
       orient="auto"
       inkscape:stockid="Arrow1MendR">
      <path
         inkscape:connector-curvature="0"
         transform="matrix(-0.4,0,0,-0.4,-4,0)"
         style="fill:#0000ff;fill-rule:evenodd;stroke:#0000ff;stroke-width:1pt"
         d="M 0,0 5,-5 -12.5,0 5,5 0,0 z"
         id="path6345-5-3" />
    </marker>
    <marker
       style="overflow:visible"
       id="Arrow1MendR-5-6"
       refX="0"
       refY="0"
       orient="auto"
       inkscape:stockid="Arrow1MendR">
      <path
         inkscape:connector-curvature="0"
         transform="matrix(-0.4,0,0,-0.4,-4,0)"
         style="fill:#0000ff;fill-rule:evenodd;stroke:#0000ff;stroke-width:1pt"
         d="M 0,0 5,-5 -12.5,0 5,5 0,0 z"
         id="path6345-5-0" />
    </marker>
    <marker
       style="overflow:visible"
       id="Arrow1MendR-5-09"
       refX="0"
       refY="0"
       orient="auto"
       inkscape:stockid="Arrow1MendR">
      <path
         inkscape:connector-curvature="0"
         transform="matrix(-0.4,0,0,-0.4,-4,0)"
         style="fill:#0000ff;fill-rule:evenodd;stroke:#0000ff;stroke-width:1pt"
         d="M 0,0 5,-5 -12.5,0 5,5 0,0 z"
         id="path6345-5-39" />
    </marker>
    <marker
       style="overflow:visible"
       id="Arrow1MendR-5-8"
       refX="0"
       refY="0"
       orient="auto"
       inkscape:stockid="Arrow1MendR">
      <path
         inkscape:connector-curvature="0"
         transform="matrix(-0.4,0,0,-0.4,-4,0)"
         style="fill:#0000ff;fill-rule:evenodd;stroke:#0000ff;stroke-width:1pt"
         d="M 0,0 5,-5 -12.5,0 5,5 0,0 z"
         id="path6345-5-5" />
    </marker>
    <marker
       style="overflow:visible"
       id="Arrow1MendR-5-5"
       refX="0"
       refY="0"
       orient="auto"
       inkscape:stockid="Arrow1MendR">
      <path
         inkscape:connector-curvature="0"
         transform="matrix(-0.4,0,0,-0.4,-4,0)"
         style="fill:#0000ff;fill-rule:evenodd;stroke:#0000ff;stroke-width:1pt"
         d="M 0,0 5,-5 -12.5,0 5,5 0,0 z"
         id="path6345-5-59" />
    </marker>
    <marker
       style="overflow:visible"
       id="Arrow1MendR-5-7"
       refX="0"
       refY="0"
       orient="auto"
       inkscape:stockid="Arrow1MendR">
      <path
         inkscape:connector-curvature="0"
         transform="matrix(-0.4,0,0,-0.4,-4,0)"
         style="fill:#0000ff;fill-rule:evenodd;stroke:#0000ff;stroke-width:1pt"
         d="M 0,0 5,-5 -12.5,0 5,5 0,0 z"
         id="path6345-5-36" />
    </marker>
    <marker
       style="overflow:visible"
       id="Arrow1MendR-5-60"
       refX="0"
       refY="0"
       orient="auto"
       inkscape:stockid="Arrow1MendR">
      <path
         inkscape:connector-curvature="0"
         transform="matrix(-0.4,0,0,-0.4,-4,0)"
         style="fill:#0000ff;fill-rule:evenodd;stroke:#0000ff;stroke-width:1pt"
         d="M 0,0 5,-5 -12.5,0 5,5 0,0 z"
         id="path6345-5-7" />
    </marker>
  </defs>
  <metadata
     id="metadata7">
    <rdf:RDF>
      <cc:Work
         rdf:about="">
        <dc:format>image/svg+xml</dc:format>
        <dc:type
           rdf:resource="http://purl.org/dc/dcmitype/StillImage" />
        <dc:title></dc:title>
      </cc:Work>
    </rdf:RDF>
  </metadata>
  <g
     id="layer1"
     inkscape:groupmode="layer"
     inkscape:label="Layer 1">
    <path
       style="opacity:1;fill:none;stroke:#000000;stroke-width:1.25000000000000000;stroke-linecap:round;stroke-linejoin:round;stroke-miterlimit:4;stroke-opacity:1;stroke-dasharray:none;marker-start:none;marker-mid:none;marker-end:url(#marker4987)"
       d="m 535.30963,302.94739 c 38.6616,0 115.98479,0 115.98479,0"
       id="path13366" />
    <path
       id="path3042"
       style="opacity:1;fill:none;stroke:#0000ff;stroke-width:1.25000000000000000;stroke-linecap:round;stroke-linejoin:round;stroke-miterlimit:4;stroke-opacity:1;stroke-dasharray:none;marker-start:none;marker-end:none;marker-mid:url(#Arrow1MendR-5)"
       d="m 455.07998,303.19988 15.53698,-0.0638 45.94214,-0.18868"
       inkscape:connector-curvature="0"
       sodipodi:nodetypes="ccc" />
    <path
       id="path3044"
       style="opacity:0.50000000000000000;fill:none;stroke:#0000ff;stroke-width:1.25000000000000000;stroke-linecap:round;stroke-linejoin:round;stroke-opacity:1;marker-start:none;marker-mid:url(#Arrow2Mend-1g);marker-end:none;stroke-miterlimit:4;stroke-dasharray:none"
       d="m 522.38151,290.32637 c 0,0 -7.05894,-11.25425 -7.64545,-20.29141 -0.57702,-8.89113 5.5411,-21.29508 11.52159,-21.4469 5.69177,-0.14449 11.3063,12.19285 11.32898,20.64313 0.0253,9.43162 -6.18259,20.82238 -6.18259,20.82238"
       inkscape:connector-curvature="0"
       sodipodi:nodetypes="csssc" />
    <path
       id="path3046"
       style="opacity:0.50000000000000000;fill:none;stroke:#0000ff;stroke-width:1.25000000000000000;stroke-linecap:round;stroke-linejoin:round;stroke-opacity:1;marker-start:none;marker-mid:url(#Arrow2Mend-1j);marker-end:none;stroke-miterlimit:4;stroke-dasharray:none"
       d="m 518.5172,319.29293 c 0,0 -3.35615,10.83194 -3.10354,21.40247 0.21974,9.19506 1.65883,20.23465 9.47498,20.46098 7.00853,0.20295 10.472,-14.62388 9.77484,-25.90568 -0.54052,-8.74683 -3.57735,-15.13938 -3.57735,-15.13938"
       inkscape:connector-curvature="0"
       sodipodi:nodetypes="csssc" />
    <path
       id="path3048"
       style="opacity:0.50000000000000000;fill:none;stroke:#0000ff;stroke-width:1.25000000000000000;stroke-linecap:round;stroke-linejoin:round;stroke-miterlimit:4;stroke-opacity:1;stroke-dasharray:none;marker-start:none;marker-mid:url(#Arrow1MendR-5);marker-end:none"
       d="m 519.71178,293.69418 -52.30621,-92.78755 -36.2809,-64.35977"
       inkscape:connector-curvature="0"
       sodipodi:nodetypes="ccc" />
    <path
       id="path3050"
       style="opacity:0.50000000000000000;fill:none;stroke:#0000ff;stroke-width:1.25000000000000000;stroke-linecap:round;stroke-linejoin:round;stroke-miterlimit:4;stroke-opacity:1;stroke-dasharray:none;marker-start:none;marker-end:none;marker-mid:url(#Arrow1MendR-5)"
       d="m 518.76736,312.33586 -54.40385,89.55139 -60.46215,99.52366"
       inkscape:connector-curvature="0"
       sodipodi:nodetypes="ccc" />
    <path
       id="path3052"
       style="opacity:1;fill:none;stroke:#0000ff;stroke-width:1.25000000000000000;stroke-linecap:round;stroke-linejoin:round;stroke-miterlimit:4;stroke-opacity:1;stroke-dasharray:none;marker-start:none;marker-end:none;marker-mid:url(#Arrow1MendR-5)"
       d="m 563.31516,358.32281 -6.74,-10.27266 -25.51573,-38.88939"
       inkscape:connector-curvature="0"
       sodipodi:nodetypes="ccc" />
    <path
       id="path3054"
       style="opacity:1;fill:none;stroke:#0000ff;stroke-width:1.25000000000000000;stroke-linecap:round;stroke-linejoin:round;stroke-miterlimit:4;stroke-opacity:1;stroke-dasharray:none;marker-start:none;marker-end:none;marker-mid:url(#Arrow1MendR-5)"
       d="m 564.80586,245.63284 -7.80549,11.63923 -26.02084,38.80124"
       inkscape:connector-curvature="0"
       sodipodi:nodetypes="ccc" />
    <path
       id="path3056"
       style="opacity:0.50000000000000000;fill:none;stroke:#0000ff;stroke-width:1.25000000000000000;stroke-linecap:round;stroke-linejoin:miter;stroke-opacity:1;marker-mid:url(#Arrow2Mend-10);marker-end:none;stroke-miterlimit:4;stroke-dasharray:none"
       d="m 511.52649,292.69086 c 0,0 -5.88946,-12.08891 -14.64192,-18.66685 -7.75795,-5.83051 -16.05061,-6.6296 -19.7308,-1.24751 -4.06816,5.94949 -1.68956,14.61151 7.66797,19.9277 8.40426,4.7746 21.52156,6.53384 21.52156,6.53384"
       inkscape:connector-curvature="0"
       sodipodi:nodetypes="csssc" />
    <path
       id="path3058"
       style="opacity:0.5;fill:none;stroke:#0000ff;stroke-width:1.25;stroke-linecap:round;stroke-linejoin:miter;stroke-miterlimit:4;stroke-opacity:1;stroke-dasharray:none;marker-mid:url(#Arrow2Mend-10J);marker-end:none"
       d="m 512.89049,315.06039 c 0,0 -5.91971,9.06391 -13.58291,19.07565 -6.46448,8.44565 -16.43072,8.49494 -22.15381,4.1123 -6.10474,-4.67491 -1.1758,-13.45018 6.22454,-22.09998 6.39672,-7.47671 20.5098,-10.63594 20.5098,-10.63594"
       inkscape:connector-curvature="0"
       sodipodi:nodetypes="csssc" />
    <path
       id="path3060"
       style="opacity:0.50000000000000000;fill:none;stroke:#0000ff;stroke-width:1.25000000000000000;stroke-linecap:round;stroke-linejoin:miter;stroke-opacity:1;marker-mid:url(#Arrow2Mend-1X);marker-end:none;stroke-miterlimit:4;stroke-dasharray:none"
       d="m 541.80721,298.96524 c 0,0 19.07766,-2.00592 28.77389,-6.0084 7.11726,-2.93792 11.11734,-10.97706 6.41723,-18.27074 -2.4658,-3.82645 -9.31858,-4.40327 -18.05503,-1.31063 -10.30649,3.64841 -18.50009,18.22419 -18.50009,18.22419"
       inkscape:connector-curvature="0"
       sodipodi:nodetypes="csssc" />
    <path
       id="path3062"
       style="opacity:0.50000000000000000;fill:none;stroke:#0000ff;stroke-width:1.25000000000000000;stroke-linecap:round;stroke-linejoin:miter;stroke-opacity:1;marker-mid:url(#Arrow2Mend-1V);marker-end:none;stroke-miterlimit:4;stroke-dasharray:none"
       d="m 544.80801,307.42202 c 0,0 9.78225,0.76335 19.9135,3.54861 8.72088,2.39753 14.60993,8.27447 12.27683,15.82014 -0.95775,3.09756 -9.27368,7.17016 -18.21924,4.55199 -9.66449,-2.82858 -16.42629,-14.09996 -16.42629,-14.09996"
       inkscape:connector-curvature="0"
       sodipodi:nodetypes="csssc" />
    <path
       sodipodi:nodetypes="ccc"
       inkscape:connector-curvature="0"
       id="path9315"
       d="m 577.68826,297.93363 c 19.23544,-2.84655 40.65406,-16.82853 27.2685,-39.89281 -12.0621,-20.04288 -36.21272,-14.53961 -36.21272,-14.53961"
       style="opacity:0.50000000000000000;fill:none;stroke:#0000ff;stroke-width:1.25000000000000000;stroke-linecap:round;stroke-linejoin:miter;stroke-miterlimit:4;stroke-opacity:1;stroke-dasharray:none;marker-mid:url(#Arrow1MendwO)" />
    <path
       sodipodi:nodetypes="ccc"
       inkscape:connector-curvature="0"
       id="path9315-8"
       d="m 577.2322,306.69226 c 19.23544,2.84655 40.65406,16.82853 27.2685,39.89281 -12.0621,20.04288 -36.73433,14.59956 -36.73433,14.59956"
       style="opacity:0.50000000000000000;fill:none;stroke:#0000ff;stroke-width:1.25000000000000000;stroke-linecap:round;stroke-linejoin:miter;stroke-miterlimit:4;stroke-opacity:1;stroke-dasharray:none;marker-mid:url(#Arrow1MendwO)" />
    <path
       sodipodi:nodetypes="ccc"
       inkscape:connector-curvature="0"
       id="path9315-82"
       d="m 504.32449,345.18341 c -7.15254,18.08165 -2.21829,42.86425 24.44875,42.80415 23.38869,-0.42464 35.08481,-25.15994 35.08481,-25.15994"
       style="opacity:0.50000000000000000;fill:none;stroke:#0000ff;stroke-width:1.25000000000000000;stroke-linecap:round;stroke-linejoin:miter;stroke-miterlimit:4;stroke-opacity:1;stroke-dasharray:none;marker-mid:url(#Arrow1MendwO)" />
    <path
       sodipodi:nodetypes="ccc"
       inkscape:connector-curvature="0"
       id="path9315-1"
       d="m 496.07609,341.22202 c -12.0829,15.2351 -34.90096,26.79318 -48.18243,3.66881 -11.3266,-20.46753 3.83497,-40.479 3.83497,-40.479"
       style="opacity:0.5;fill:none;stroke:#0000ff;stroke-width:1.25;stroke-linecap:round;stroke-linejoin:miter;stroke-miterlimit:4;stroke-opacity:1;stroke-dasharray:none;marker-mid:url(#Arrow1MendwO)" />
    <path
       sodipodi:nodetypes="ccc"
       inkscape:connector-curvature="0"
       id="path9315-0"
       d="m 497.33851,267.01707 c -12.0829,-15.2351 -36.66836,-29.06556 -49.94983,-5.94119 -11.3266,20.46753 4.54442,41.10388 4.54442,41.10388"
       style="opacity:0.5;fill:none;stroke:#0000ff;stroke-width:1.25;stroke-linecap:round;stroke-linejoin:miter;stroke-miterlimit:4;stroke-opacity:1;stroke-dasharray:none;marker-mid:url(#Arrow1MendwO)" />
    <path
       sodipodi:nodetypes="ccc"
       inkscape:connector-curvature="0"
       id="path9315-08"
       d="m 508.40577,262.19143 c -7.15253,-18.08165 -5.75309,-43.62171 20.91393,-43.56161 23.3887,0.42464 35.90091,23.7356 35.90091,23.7356"
       style="opacity:0.50000000000000000;fill:none;stroke:#0000ff;stroke-width:1.25000000000000000;stroke-linecap:round;stroke-linejoin:miter;stroke-miterlimit:4;stroke-opacity:1;stroke-dasharray:none;marker-mid:url(#Arrow1MendwO)" />
    <path
       style="fill:none;stroke:#0000ff;stroke-width:1.25000000000000000;stroke-linecap:round;stroke-linejoin:miter;stroke-opacity:1;marker-mid:url(#Arrow1MendR-5);opacity:0.50000000000000000;stroke-miterlimit:4;stroke-dasharray:none"
       d="m 602.73299,296.08939 c 0,0 25.20395,-2.65349 37.84935,-17.13932 12.28281,-14.07047 4.78513,-21.61804 13.13156,-37.61956 10.04824,-19.26416 45.41294,-46.53679 45.41294,-46.53679"
       id="path11781"
       inkscape:connector-curvature="0"
       sodipodi:nodetypes="cssc" />
    <path
       style="opacity:0.5;fill:none;stroke:#0000ff;stroke-width:1.25;stroke-linecap:round;stroke-linejoin:miter;stroke-miterlimit:4;stroke-opacity:1;stroke-dasharray:none;marker-mid:url(#Arrow1MendR-5)"
       d="m 495.30785,372.26219 c 0,0 -10.30399,23.154 -4.08159,41.34815 6.04398,17.67247 16.3292,14.95307 26.01371,30.18205 11.65913,18.33411 16.16729,68.31026 16.16729,68.31026"
       id="path11781-0"
       inkscape:connector-curvature="0"
       sodipodi:nodetypes="cssc" />
    <path
       style="opacity:0.5;fill:none;stroke:#0000ff;stroke-width:1.25;stroke-linecap:round;stroke-linejoin:miter;stroke-miterlimit:4;stroke-opacity:1;stroke-dasharray:none;marker-mid:url(#Arrow1MendR-5)"
       d="m 487.08774,247.69314 c 0,0 -14.89997,-20.50052 -33.76776,-24.20884 -18.32679,-3.60199 -21.11434,6.66498 -39.14528,7.43752 -21.70737,0.93004 -57.2954,-23.91589 -57.2954,-23.91589"
       id="path11781-8"
       inkscape:connector-curvature="0"
       sodipodi:nodetypes="cssc" />
    <path
       style="opacity:0.5;fill:none;stroke:#0000ff;stroke-width:1.25;stroke-linecap:round;stroke-linejoin:miter;stroke-miterlimit:4;stroke-opacity:1;stroke-dasharray:none;marker-mid:url(#Arrow1MendR-5)"
       d="m 476.98831,363.32329 c 0,0 -14.89997,20.50052 -33.76776,24.20884 -18.32679,3.60199 -21.11434,-6.66498 -39.14528,-7.43752 -21.70737,-0.93004 -63.00851,23.20176 -63.00851,23.20176"
       id="path11781-02"
       inkscape:connector-curvature="0"
       sodipodi:nodetypes="cssc" />
    <path
       style="opacity:0.5;fill:none;stroke:#0000ff;stroke-width:1.25;stroke-linecap:round;stroke-linejoin:miter;stroke-miterlimit:4;stroke-opacity:1;stroke-dasharray:none;marker-mid:url(#Arrow1MendR-5)"
       d="m 602.20734,310.91229 c 0,0 25.20395,2.65349 37.84935,17.13932 12.28281,14.07047 4.78513,21.61804 13.13156,37.61956 10.04824,19.26416 45.41294,46.53679 45.41294,46.53679"
       id="path11781-2"
       inkscape:connector-curvature="0"
       sodipodi:nodetypes="cssc" />
    <path
       style="opacity:0.5;fill:none;stroke:#0000ff;stroke-width:1.25;stroke-linecap:round;stroke-linejoin:miter;stroke-miterlimit:4;stroke-opacity:1;stroke-dasharray:none;marker-mid:url(#Arrow1MendR-5)"
       d="m 500.35758,244.81391 c 0,0 -10.30399,-23.154 -4.08159,-41.34815 6.04398,-17.67247 16.3292,-14.95307 26.01371,-30.18205 11.65913,-18.33411 11.03093,-63.73334 11.03093,-63.73334"
       id="path11781-81"
       inkscape:connector-curvature="0"
       sodipodi:nodetypes="cssc" />
    <path
       sodipodi:type="arc"
       style="fill:#000000;stroke:none"
       id="path6564-4"
       sodipodi:cx="126.04546"
       sodipodi:cy="485.87173"
       sodipodi:rx="7.67699"
       sodipodi:ry="5.713109"
       d="m 133.72245,485.87173 a 7.67699,5.713109 0 1 1 -15.35398,0 7.67699,5.713109 0 1 1 15.35398,0 z"
       transform="matrix(0.45590785,0,0,0.61262615,467.95852,6.0830803)" />
    <path
       id="path3042-6"
       style="fill:none;stroke:#0000ff;stroke-width:1.25;stroke-linecap:round;stroke-linejoin:round;stroke-miterlimit:4;stroke-opacity:1;stroke-dasharray:none;marker-start:none;marker-mid:url(#Arrow1MendR-5);marker-end:none"
       d="m 384.3631,302.87427 15.53698,-0.0638 45.94214,-0.18868"
       inkscape:connector-curvature="0"
       sodipodi:nodetypes="ccc" />
    <path
       id="path3054-8"
       style="fill:none;stroke:#0000ff;stroke-width:1.25;stroke-linecap:round;stroke-linejoin:round;stroke-miterlimit:4;stroke-opacity:1;stroke-dasharray:none;marker-start:none;marker-mid:url(#Arrow1MendR-5);marker-end:none"
       d="m 604.45071,188.75412 -7.80549,11.63923 -26.02084,38.80124"
       inkscape:connector-curvature="0"
       sodipodi:nodetypes="ccc" />
    <path
       id="path3052-9"
       style="fill:none;stroke:#0000ff;stroke-width:1.25;stroke-linecap:round;stroke-linejoin:round;stroke-miterlimit:4;stroke-opacity:1;stroke-dasharray:none;marker-start:none;marker-mid:url(#Arrow1MendR-5);marker-end:none"
       d="m 598.94345,412.96935 -6.74,-10.27266 -25.51573,-38.88939"
       inkscape:connector-curvature="0"
       sodipodi:nodetypes="ccc" />
  </g>
</svg>
