<?xml version="1.0" encoding="UTF-8" standalone="no"?>
<!-- Created with Inkscape (http://www.inkscape.org/) -->

<svg
   xmlns:dc="http://purl.org/dc/elements/1.1/"
   xmlns:cc="http://creativecommons.org/ns#"
   xmlns:rdf="http://www.w3.org/1999/02/22-rdf-syntax-ns#"
   xmlns:svg="http://www.w3.org/2000/svg"
   xmlns="http://www.w3.org/2000/svg"
   xmlns:sodipodi="http://sodipodi.sourceforge.net/DTD/sodipodi-0.dtd"
   xmlns:inkscape="http://www.inkscape.org/namespaces/inkscape"
   width="744.09448819"
   height="1052.3622047"
   id="svg2"
   version="1.1"
   inkscape:version="0.48.4 r9939"
   sodipodi:docname="rad_par_operad_on_surfaces.svg">
  <defs
     id="defs4" />
  <sodipodi:namedview
     id="base"
     pagecolor="#ffffff"
     bordercolor="#666666"
     borderopacity="1.0"
     inkscape:pageopacity="0.0"
     inkscape:pageshadow="2"
     inkscape:zoom="1.9523004"
     inkscape:cx="371.83993"
     inkscape:cy="725.10403"
     inkscape:document-units="px"
     inkscape:current-layer="layer1"
     showgrid="false"
     inkscape:window-width="1600"
     inkscape:window-height="749"
     inkscape:window-x="-2"
     inkscape:window-y="-3"
     inkscape:window-maximized="1" />
  <metadata
     id="metadata7">
    <rdf:RDF>
      <cc:Work
         rdf:about="">
        <dc:format>image/svg+xml</dc:format>
        <dc:type
           rdf:resource="http://purl.org/dc/dcmitype/StillImage" />
        <dc:title />
      </cc:Work>
    </rdf:RDF>
  </metadata>
  <g
     inkscape:label="Layer 1"
     inkscape:groupmode="layer"
     id="layer1">
    <path
       style="fill:none;stroke:#000000;stroke-width:1.25000012;stroke-linecap:butt;stroke-linejoin:miter;stroke-miterlimit:4;stroke-opacity:1;stroke-dasharray:none"
       d="m 52.377286,460.09117 c 0,5.90662 25.866964,10.69488 57.775454,10.69488 31.90852,0 57.77548,-4.78826 57.77548,-10.69488 M 1.620354,281.1396 c 0,5.90661 19.47774,10.69487 43.504732,10.69487 24.027014,0 43.504764,-4.78826 43.504764,-10.69487 m 131.48971,-0.8003 c 0,5.90663 -19.47773,10.69489 -43.50474,10.69489 -24.02701,0 -43.50475,-4.78826 -43.50475,-10.69489 0,0 -14.8873,11.86817 -23.4774,12.05401 -8.59011,0.18582 -21.00282,-11.25371 -21.00282,-11.25371 0,-5.90664 -19.47775,-10.69491 -43.504764,-10.69491 -24.026992,0 -43.504732,4.78827 -43.504732,10.69491 0,0 26.21099,42.08914 34.850141,70.77214 21.222001,70.45945 15.906791,108.17943 15.906791,108.17943 0,-5.90663 25.866964,-10.6949 57.775454,-10.6949 31.90852,0 57.77548,4.78827 57.77548,10.6949 0,0 -7.21923,-33.96712 9.50418,-106.91717 6.38618,-27.85741 42.68716,-72.8347 42.68716,-72.8347 0,-5.90663 -19.47773,-10.6949 -43.50474,-10.6949 -24.02701,0 -43.50475,4.78827 -43.50475,10.6949"
       id="path3756-8-2"
       inkscape:connector-curvature="0"
       sodipodi:nodetypes="csccsccsczcscscscscsc" />
    <path
       style="fill:none;stroke:#000000;stroke-width:1.25000012;stroke-linecap:butt;stroke-linejoin:miter;stroke-miterlimit:4;stroke-opacity:1;stroke-dasharray:none"
       d="m 311.69551,460.35761 c 0,5.90662 25.86696,10.69488 57.77546,10.69488 31.90852,0 57.77548,-4.78826 57.77548,-10.69488 M 260.93858,281.40604 c 0,5.90661 19.47774,10.69487 43.50473,10.69487 24.02701,0 43.50476,-4.78826 43.50476,-10.69487 m 131.48972,-0.8003 c 0,5.90663 -19.47773,10.69489 -43.50474,10.69489 -24.02701,0 -43.50475,-4.78826 -43.50475,-10.69489 0,0 -14.8873,11.86817 -23.4774,12.05401 -8.59011,0.18582 -21.00283,-11.25371 -21.00283,-11.25371 0,-5.90664 -19.47775,-10.69491 -43.50476,-10.69491 -24.02699,0 -43.50473,4.78827 -43.50473,10.69491 0,0 26.21099,42.08914 34.85014,70.77214 21.222,70.45945 15.90679,108.17943 15.90679,108.17943 0,-5.90663 25.86696,-10.6949 57.77546,-10.6949 31.90852,0 57.77548,4.78827 57.77548,10.6949 0,0 -7.21923,-33.96712 9.50418,-106.91717 6.38618,-27.85741 42.68716,-72.8347 42.68716,-72.8347 0,-5.90663 -19.47773,-10.6949 -43.50474,-10.6949 -24.02701,0 -43.50475,4.78827 -43.50475,10.6949"
       id="path3756-8-2-4"
       inkscape:connector-curvature="0"
       sodipodi:nodetypes="csccsccsczcscscscscsc" />
    <path
       style="fill:none;stroke:#000000;stroke-width:1.25000012;stroke-linecap:butt;stroke-linejoin:miter;stroke-miterlimit:4;stroke-opacity:1;stroke-dasharray:none"
       d="m 572.81721,458.22202 c 0,5.90662 25.86696,10.69488 57.77546,10.69488 31.90852,0 57.77548,-4.78826 57.77548,-10.69488 M 522.06028,279.27045 c 0,5.90661 19.47774,10.69487 43.50473,10.69487 24.02701,0 43.50476,-4.78826 43.50476,-10.69487 m 131.48972,-0.8003 c 0,5.90663 -19.47773,10.69489 -43.50474,10.69489 -24.02701,0 -43.50475,-4.78826 -43.50475,-10.69489 0,0 -14.8873,11.86817 -23.4774,12.05401 -8.59011,0.18582 -21.00283,-11.25371 -21.00283,-11.25371 0,-5.90664 -19.47775,-10.69491 -43.50476,-10.69491 -24.02699,0 -43.50473,4.78827 -43.50473,10.69491 0,0 26.21099,42.08914 34.85014,70.77214 21.222,70.45945 15.90679,108.17943 15.90679,108.17943 0,-5.90663 25.86696,-10.6949 57.77546,-10.6949 31.90852,0 57.77548,4.78827 57.77548,10.6949 0,0 -7.21923,-33.96712 9.50418,-106.91717 6.38618,-27.85741 42.68716,-72.8347 42.68716,-72.8347 0,-5.90663 -19.47773,-10.6949 -43.50474,-10.6949 -24.02701,0 -43.50475,4.78827 -43.50475,10.6949"
       id="path3756-8-2-4-2"
       inkscape:connector-curvature="0"
       sodipodi:nodetypes="csccsccsczcscscscscsc" />
    <path
       style="fill:none;stroke:#000000;stroke-width:1.25000012;stroke-linecap:round;stroke-linejoin:round;stroke-miterlimit:4;stroke-opacity:1;stroke-dasharray:none"
       d="m 326.27522,365.15985 c -0.266,6.77958 22.6354,12.95948 39.54882,13.0832 16.85724,0.12331 38.3394,-6.18018 38.3394,-13.55151 m -2.94762,4.59499 c 0,-7.37134 -16.82358,-13.8153 -33.6814,-13.8153 -16.8578,0 -32.69463,9.66363 -32.69463,17.03496"
       id="path3788-1"
       inkscape:connector-curvature="0"
       sodipodi:nodetypes="csccsc" />
    <path
       style="fill:none;stroke:#000000;stroke-width:1.25000012;stroke-linecap:round;stroke-linejoin:round;stroke-miterlimit:4;stroke-opacity:1;stroke-dasharray:none"
       d="m 578.58682,329.44452 c -0.266,6.77958 22.6354,12.95948 39.54882,13.0832 16.85724,0.12331 38.3394,-6.18018 38.3394,-13.55151 m -2.94762,4.59499 c 0,-7.37134 -16.82358,-13.8153 -33.6814,-13.8153 -16.8578,0 -32.69463,9.66363 -32.69463,17.03496"
       id="path3788-1-6"
       inkscape:connector-curvature="0"
       sodipodi:nodetypes="csccsc" />
    <path
       style="fill:none;stroke:#000000;stroke-width:1.25000012;stroke-linecap:round;stroke-linejoin:round;stroke-miterlimit:4;stroke-opacity:1;stroke-dasharray:none"
       d="m 595.86845,383.59357 c -0.266,6.77958 22.6354,12.95948 39.54882,13.0832 16.85724,0.12331 38.3394,-6.18018 38.3394,-13.55151 m -2.94762,4.59499 c 0,-7.37134 -16.82358,-13.8153 -33.6814,-13.8153 -16.8578,0 -32.69463,9.66363 -32.69463,17.03496"
       id="path3788-1-6-5"
       inkscape:connector-curvature="0"
       sodipodi:nodetypes="csccsc" />
    <text
       xml:space="preserve"
       style="font-size:40px;font-style:normal;font-weight:normal;line-height:125%;letter-spacing:0px;word-spacing:0px;fill:#000000;fill-opacity:1;stroke:none;font-family:Sans"
       x="291.48328"
       y="324.23007"
       id="text4084"
       sodipodi:linespacing="125%"><tspan
         sodipodi:role="line"
         id="tspan4086"
         x="291.48328"
         y="324.23007">$+$</tspan></text>
    <text
       xml:space="preserve"
       style="font-size:40px;font-style:normal;font-weight:normal;line-height:125%;letter-spacing:0px;word-spacing:0px;fill:#000000;fill-opacity:1;stroke:none;font-family:Sans"
       x="19.997025"
       y="314.59586"
       id="text4084-6"
       sodipodi:linespacing="125%"><tspan
         sodipodi:role="line"
         id="tspan4086-8"
         x="19.997025"
         y="314.59586">$+$</tspan></text>
    <text
       xml:space="preserve"
       style="font-size:40px;font-style:normal;font-weight:normal;line-height:125%;letter-spacing:0px;word-spacing:0px;fill:#000000;fill-opacity:1;stroke:none;font-family:Sans"
       x="550.51031"
       y="316.90009"
       id="text4084-4"
       sodipodi:linespacing="125%"><tspan
         sodipodi:role="line"
         id="tspan4086-2"
         x="550.51031"
         y="316.90009">$+$</tspan></text>
    <text
       xml:space="preserve"
       style="font-size:40px;font-style:normal;font-weight:normal;line-height:125%;letter-spacing:0px;word-spacing:0px;fill:#000000;fill-opacity:1;stroke:none;font-family:Sans"
       x="680.63373"
       y="319.20428"
       id="text4084-4-6"
       sodipodi:linespacing="125%"><tspan
         sodipodi:role="line"
         id="tspan4086-2-3"
         x="680.63373"
         y="319.20428">$-$</tspan></text>
    <text
       xml:space="preserve"
       style="font-size:40px;font-style:normal;font-weight:normal;line-height:125%;letter-spacing:0px;word-spacing:0px;fill:#000000;fill-opacity:1;stroke:none;font-family:Sans"
       x="412.02805"
       y="322.66061"
       id="text4084-4-6-5"
       sodipodi:linespacing="125%"><tspan
         sodipodi:role="line"
         id="tspan4086-2-3-3"
         x="412.02805"
         y="322.66061">$-$</tspan></text>
    <text
       xml:space="preserve"
       style="font-size:40px;font-style:normal;font-weight:normal;line-height:125%;letter-spacing:0px;word-spacing:0px;fill:#000000;fill-opacity:1;stroke:none;font-family:Sans"
       x="157.41223"
       y="316.90009"
       id="text4084-4-6-5-0"
       sodipodi:linespacing="125%"
       inkscape:transform-center-x="-328.35073"><tspan
         sodipodi:role="line"
         id="tspan4086-2-3-3-4"
         x="157.41223"
         y="316.90009">$-$</tspan></text>
    <path
       style="fill:none;stroke:#000000;stroke-width:1px;stroke-linecap:butt;stroke-linejoin:miter;stroke-opacity:1"
       d="m 133.1575,279.47139 c 0,0 11.14234,-41.83179 24.75757,-57.74488 12.70528,-14.84958 30.90644,-25.67185 49.66286,-31.16101 22.95011,-6.71646 48.85718,-7.60712 71.73524,-0.64919 17.4283,5.30049 33.78163,16.57756 45.11855,30.83642 13.28456,16.70847 23.2887,59.65323 23.2887,59.65323"
       id="path4218"
       inkscape:connector-curvature="0"
       sodipodi:nodetypes="caaaac" />
    <path
       style="fill:none;stroke:#000000;stroke-width:1px;stroke-linecap:butt;stroke-linejoin:miter;stroke-opacity:1"
       d="m 219.87329,279.72395 c 0,0 4.0232,-11.04267 8.76403,-13.63294 7.35808,-4.02027 18.06041,-4.48652 25.15421,-0.0164 4.59772,2.89724 7.02617,14.71158 7.02617,14.71158"
       id="path4220"
       inkscape:connector-curvature="0"
       sodipodi:nodetypes="caac" />
    <path
       style="fill:none;stroke:#000000;stroke-width:1px;stroke-linecap:butt;stroke-linejoin:miter;stroke-opacity:1"
       d="m 393.67921,277.71341 c 0,0 11.14234,-41.83179 24.75757,-57.74488 12.70528,-14.84958 30.90644,-25.67185 49.66286,-31.16101 22.95011,-6.71646 48.85718,-7.60712 71.73524,-0.64919 17.4283,5.30049 33.78163,16.57756 45.11855,30.83642 13.28456,16.70847 23.2887,59.65323 23.2887,59.65323"
       id="path4218-9"
       inkscape:connector-curvature="0"
       sodipodi:nodetypes="caaaac" />
    <path
       style="fill:none;stroke:#000000;stroke-width:1px;stroke-linecap:butt;stroke-linejoin:miter;stroke-opacity:1"
       d="m 479.57998,280.22991 c 0,0 4.19356,-12.85207 9.57905,-15.89688 7.29896,-4.12663 17.9421,-4.29301 25.15421,-0.0164 4.7464,2.8145 7.93175,14.53046 7.93175,14.53046"
       id="path4220-8"
       inkscape:connector-curvature="0"
       sodipodi:nodetypes="caac" />
  </g>
</svg>
