<?xml version="1.0" encoding="UTF-8" standalone="no"?>
<!-- Created with Inkscape (http://www.inkscape.org/) -->

<svg
   xmlns:dc="http://purl.org/dc/elements/1.1/"
   xmlns:cc="http://creativecommons.org/ns#"
   xmlns:rdf="http://www.w3.org/1999/02/22-rdf-syntax-ns#"
   xmlns:svg="http://www.w3.org/2000/svg"
   xmlns="http://www.w3.org/2000/svg"
   xmlns:sodipodi="http://sodipodi.sourceforge.net/DTD/sodipodi-0.dtd"
   xmlns:inkscape="http://www.inkscape.org/namespaces/inkscape"
   width="744.09448819"
   height="1052.3622047"
   id="svg2"
   version="1.1"
   inkscape:version="0.48.4 r9939"
   sodipodi:docname="rad_is_par_module.svg">
  <defs
     id="defs4" />
  <sodipodi:namedview
     id="base"
     pagecolor="#ffffff"
     bordercolor="#666666"
     borderopacity="1.0"
     inkscape:pageopacity="0.0"
     inkscape:pageshadow="2"
     inkscape:zoom="1.6729758"
     inkscape:cx="427.96884"
     inkscape:cy="902.33927"
     inkscape:document-units="px"
     inkscape:current-layer="layer1"
     showgrid="false"
     inkscape:window-width="1600"
     inkscape:window-height="749"
     inkscape:window-x="-2"
     inkscape:window-y="-3"
     inkscape:window-maximized="1" />
  <metadata
     id="metadata7">
    <rdf:RDF>
      <cc:Work
         rdf:about="">
        <dc:format>image/svg+xml</dc:format>
        <dc:type
           rdf:resource="http://purl.org/dc/dcmitype/StillImage" />
        <dc:title />
      </cc:Work>
    </rdf:RDF>
  </metadata>
  <g
     inkscape:label="Layer 1"
     inkscape:groupmode="layer"
     id="layer1">
    <path
       style="fill:none;stroke:#000000;stroke-width:1.25000012;stroke-linecap:butt;stroke-linejoin:miter;stroke-miterlimit:4;stroke-opacity:1;stroke-dasharray:none"
       d="m 94.058673,114.88518 c -5.331482,0 -9.653493,22.32077 -9.653493,49.85482 0,27.53406 4.322011,49.85483 9.653493,49.85483 M 255.58514,71.086684 c -5.33147,0 -9.65348,16.807469 -9.65348,37.540526 0,20.73306 4.32201,37.54054 9.65348,37.54054 m 0.72237,113.46333 c -5.33148,0 -9.65349,-16.80746 -9.65349,-37.54053 0,-20.73306 4.32201,-37.54053 9.65349,-37.54053 0,0 -10.71253,-12.84635 -10.88027,-20.2588 -0.16773,-7.41246 10.1579,-18.12347 10.1579,-18.12347 5.33149,0 9.6535,-16.80748 9.6535,-37.54054 0,-20.733057 -4.32201,-37.540526 -9.6535,-37.540526 0,0 -37.99078,22.61764 -63.88083,30.072426 -63.59858,18.3126 -97.645637,13.72607 -97.645637,13.72607 5.331477,0 9.653497,22.32077 9.653497,49.85482 0,27.53406 -4.32202,49.85483 -9.653497,49.85483 0,0 30.659627,-6.22952 96.506287,8.20122 25.14485,5.51067 65.74255,36.83503 65.74255,36.83503 5.33148,0 9.65349,-16.80746 9.65349,-37.54053 0,-20.73306 -4.32201,-37.54053 -9.65349,-37.54053"
       id="path3756-8-2"
       inkscape:connector-curvature="0"
       sodipodi:nodetypes="csccsccsczcscscscscsc" />
    <path
       transform="matrix(-0.73678053,0,0,0.65564125,279.11768,32.865681)"
       sodipodi:type="arc"
       style="fill:none;stroke-width:1.25;stroke-miterlimit:4;stroke-dasharray:none"
       id="path3786-7"
       sodipodi:cx="195.71428"
       sodipodi:cy="215.57646"
       sodipodi:rx="50.714287"
       sodipodi:ry="16.071428"
       d="m 246.42857,215.57646 a 50.714287,16.071428 0 1 1 -101.42858,0 50.714287,16.071428 0 1 1 101.42858,0 z" />
    <path
       style="fill:none;stroke:#000000;stroke-width:1.25000012;stroke-linecap:round;stroke-linejoin:round;stroke-miterlimit:4;stroke-opacity:1;stroke-dasharray:none"
       d="m 132.50139,163.65009 c -0.266,6.77958 22.6354,12.95948 39.54882,13.0832 16.85724,0.12331 38.3394,-6.18018 38.3394,-13.55151 m -2.94762,4.59499 c 0,-7.37134 -16.82358,-13.8153 -33.6814,-13.8153 -16.8578,0 -32.69463,9.66363 -32.69463,17.03496"
       id="path3788-1"
       inkscape:connector-curvature="0"
       sodipodi:nodetypes="csccsc" />
    <path
       style="fill:none;stroke:#000000;stroke-width:1.25000012;stroke-linecap:butt;stroke-linejoin:miter;stroke-miterlimit:4;stroke-opacity:1;stroke-dasharray:none;marker-start:none"
       d="m 769.52186,80.472726 c -0.86433,0 -1.56499,1.44741 -1.56499,3.232872 0,1.785466 0.70066,3.23289 1.56499,3.23289"
       id="path3266"
       inkscape:connector-curvature="0" />
    <path
       inkscape:connector-curvature="0"
       style="fill:none;stroke:#000000;stroke-width:1.25000012;stroke-linecap:butt;stroke-linejoin:miter;stroke-miterlimit:4;stroke-opacity:1;stroke-dasharray:none;marker-start:none"
       d="m 769.4254,80.585179 c 1.16372,0 2.10711,1.44741 2.10711,3.232872 0,1.785466 -0.94339,3.232887 -2.10711,3.232887"
       id="path3266-0" />
    <path
       style="fill:none;stroke:#000000;stroke-width:1.25000012;stroke-linecap:butt;stroke-linejoin:miter;stroke-miterlimit:4;stroke-opacity:1;stroke-dasharray:none;marker-start:none"
       d="m 767.06722,255.98441 c -0.86431,0 -1.56497,1.49448 -1.56497,3.33799 0,1.84353 0.70066,3.33801 1.56497,3.33801"
       id="path3266-8"
       inkscape:connector-curvature="0" />
    <path
       inkscape:connector-curvature="0"
       style="fill:none;stroke:#000000;stroke-width:1.25000012;stroke-linecap:butt;stroke-linejoin:miter;stroke-miterlimit:4;stroke-opacity:1;stroke-dasharray:none;marker-start:none"
       d="m 766.97077,256.10052 c 1.16373,0 2.1071,1.49447 2.1071,3.338 0,1.84351 -0.94337,3.338 -2.1071,3.338"
       id="path3266-0-1" />
    <path
       style="fill:none;stroke:#000000;stroke-width:1.25000012;stroke-linecap:butt;stroke-linejoin:miter;stroke-miterlimit:4;stroke-opacity:1;stroke-dasharray:none"
       d="m 525.29508,32.256093 c 7.41769,0 13.43093,25.63516 13.43093,57.257735 0,31.622572 -6.01324,57.257732 -13.43093,57.257732"
       id="path4112"
       inkscape:connector-curvature="0" />
    <path
       style="fill:none;stroke:#000000;stroke-width:1.25000012;stroke-linecap:butt;stroke-linejoin:miter;stroke-miterlimit:4;stroke-opacity:1;stroke-dasharray:none"
       d="m 524.29004,319.82861 c 7.41771,0 13.43096,-25.63516 13.43096,-57.25773 0,-31.62257 -6.01325,-57.25773 -13.43096,-57.25773 0,0 14.90439,-19.59357 15.13777,-30.89923 0.23336,-11.30566 -14.13273,-27.64236 -14.13273,-27.64236 -7.41771,0 -13.43094,-25.63516 -13.43094,-57.257732 0,-31.622575 6.96238,-57.425059 14.38009,-57.425059 64.76993,50.568922 103.86753,42.986105 149.94709,39.190549 46.0253,-3.791087 86.84441,5.079528 93.25104,9.114949"
       id="path4110"
       inkscape:connector-curvature="0"
       sodipodi:nodetypes="cscscscsc" />
    <path
       style="fill:none;stroke:#000000;stroke-width:1.25000012;stroke-linecap:butt;stroke-linejoin:miter;stroke-miterlimit:4;stroke-opacity:1;stroke-dasharray:none"
       d="m 768.04429,262.06808 c -16.48165,23.57457 -155.9203,-14.66845 -242.89672,57.76053 -7.4177,0 -14.28845,-25.63516 -14.28845,-57.25773 0,-31.62257 6.01324,-57.25773 13.43092,-57.25773"
       id="path3756-8"
       inkscape:connector-curvature="0"
       sodipodi:nodetypes="ccsc" />
    <path
       style="fill:none;stroke:#000000;stroke-width:0.99999994px;stroke-linecap:butt;stroke-linejoin:miter;stroke-opacity:1"
       d="m 770.53534,86.385069 c 0,0 -32.43686,17.106101 -45.25655,29.637641 -14.99991,14.66275 -34.4678,33.88048 -35.33295,51.62368 -0.9263,18.99735 15.96473,41.12961 30.63743,57.24805 12.55565,13.79278 46.87674,31.30777 46.87674,31.30777"
       id="path4114"
       inkscape:connector-curvature="0"
       sodipodi:nodetypes="casac" />
    <flowRoot
       xml:space="preserve"
       id="flowRoot4116"
       style="font-size:40px;font-style:normal;font-weight:normal;line-height:125%;letter-spacing:0px;word-spacing:0px;fill:#000000;fill-opacity:1;stroke:none;font-family:Sans"><flowRegion
         id="flowRegion4118"><rect
           id="rect4120"
           width="45.370201"
           height="48.730957"
           x="103.6233"
           y="-5.1556058" /></flowRegion><flowPara
         id="flowPara4122" /></flowRoot>    <text
       xml:space="preserve"
       style="font-size:40px;font-style:normal;font-weight:normal;line-height:125%;letter-spacing:0px;word-spacing:0px;fill:#000000;fill-opacity:1;stroke:none;font-family:Sans"
       x="45.943672"
       y="176.39799"
       id="text4124"
       sodipodi:linespacing="125%"><tspan
         sodipodi:role="line"
         id="tspan4126"
         x="45.943672"
         y="176.39799">$+$</tspan></text>
    <text
       xml:space="preserve"
       style="font-size:40px;font-style:normal;font-weight:normal;line-height:125%;letter-spacing:0px;word-spacing:0px;fill:#000000;fill-opacity:1;stroke:none;font-family:Sans"
       x="375.19873"
       y="38.479439"
       id="text4124-5"
       sodipodi:linespacing="125%"><tspan
         sodipodi:role="line"
         id="tspan4126-5"
         x="375.19873"
         y="38.479439">$-$</tspan></text>
    <path
       style="fill:none;stroke:#000000;stroke-width:1.25;stroke-linecap:butt;stroke-linejoin:miter;stroke-miterlimit:4;stroke-opacity:1;stroke-dasharray:4.99999998, 4.99999998;stroke-dashoffset:0"
       d="m 496.75419,29.241225 c 4.37823,0 7.92749,26.011476 7.92749,58.098242 0,32.086763 -3.54926,58.098233 -7.92749,58.098233 M 364.10805,-21.799286 c 4.37822,0 7.92748,19.5865543 7.92748,43.747794 0,24.161237 -3.54926,43.747802 -7.92748,43.747802 m -84.95049,80.26512 c 4.37822,0 9.5626,-24.67639 9.76133,-37.63495 0.19726,-12.862302 -4.16054,-37.634951 -8.53876,-37.634951 0,0 104.76885,27.208165 104.90661,18.570082 0.13773,-8.638101 -21.17869,-23.565301 -21.17869,-23.565301 -4.37824,0 -7.92749,-19.586565 -7.92749,-43.747802 0,-24.1612397 3.54925,-43.747794 7.92749,-43.747794 0,0 31.19818,26.357432 52.45918,35.044861 52.22739,21.340558 80.18696,15.99565 80.18696,15.99565 -4.37822,0 -13.42904,29.679184 -13.42904,61.76595 0,32.086765 9.05082,54.430525 13.42904,54.430525 0,0 -50.85175,-36.60122 -104.92527,-19.78438 -20.64904,6.42184 -111.44879,20.30811 -111.44879,20.30811 -4.37823,0 -7.92749,-24.81467 -7.92749,-37.63495 0,-12.820271 3.54926,-37.634951 7.92749,-37.634951"
       id="path3756-8-2-5"
       inkscape:connector-curvature="0"
       sodipodi:nodetypes="csccsccaczcscscscscac" />
    <path
       transform="matrix(1.2078531,0,0,1,321.02651,-38.712568)"
       sodipodi:type="arc"
       style="fill:none;stroke-width:1.25;stroke-miterlimit:4;stroke-dasharray:none"
       id="path3786-7-2"
       sodipodi:cx="195.71428"
       sodipodi:cy="215.57646"
       sodipodi:rx="50.714287"
       sodipodi:ry="16.071428"
       d="m 246.42857,215.57646 a 50.714287,16.071428 0 1 1 -101.42858,0 50.714287,16.071428 0 1 1 101.42858,0 z" />
    <path
       style="fill:none;stroke:#000000;stroke-width:1.25;stroke-linecap:butt;stroke-linejoin:miter;stroke-miterlimit:4;stroke-opacity:1;stroke-dasharray:4.99999998, 4.99999998;stroke-dashoffset:0"
       d="m 496.17081,205.64865 c 4.37823,0 7.92749,26.01147 7.92749,58.09823 0,32.08677 -3.54926,58.09824 -7.92749,58.09824 M 362.91339,166.22254 c 4.37822,0 8.37783,24.3595 8.53876,37.02367 0.16798,13.21824 -3.54926,38.85752 -7.92748,38.85752 m -82.95049,18.26512 c 4.37822,0 9.5626,-24.67639 9.76133,-37.63495 0.19726,-12.8623 -4.16054,-37.63495 -8.53876,-37.63495 0,0 91.76573,86.15174 91.90349,77.51366 0.13773,-8.6381 -10.17557,-20.50888 -10.17557,-20.50888 -4.37824,0 -10.7605,-25.39934 -10.98391,-38.85752 -0.21101,-12.71078 4.77182,-37.02367 9.15006,-37.02367 0,0 26.3079,26.35744 47.5689,35.04487 52.22739,21.34055 86.91109,4.38124 86.91109,4.38124 -4.37822,0 -13.42904,29.67918 -13.42904,61.76594 0,32.08677 9.05082,54.43053 13.42904,54.43053 0,0 -50.24047,-29.87709 -104.31399,-13.06025 -20.64904,6.42184 -110.06007,-48.41602 -110.06007,-48.41602 -4.37823,0 -7.92749,-24.81468 -7.92749,-37.63495 0,-12.82027 3.54926,-37.63495 7.92749,-37.63495"
       id="path3756-8-2-5-5"
       inkscape:connector-curvature="0"
       sodipodi:nodetypes="csccaccaczcacscscscac" />
    <path
       style="fill:none;stroke:#000000;stroke-width:1;stroke-linecap:butt;stroke-linejoin:miter;stroke-opacity:1;stroke-miterlimit:4;stroke-dasharray:2,4;stroke-dashoffset:0"
       d="m 716.68699,61.313785 28.09365,65.751105"
       id="path3012"
       inkscape:connector-curvature="0" />
    <path
       style="fill:none;stroke:#000000;stroke-width:0.99999994;stroke-linecap:butt;stroke-linejoin:miter;stroke-miterlimit:4;stroke-opacity:1;stroke-dasharray:2.00000007, 4.00000011;stroke-dashoffset:0"
       d="M 746.27046,220.31191 708.8198,287.85624"
       id="path3012-4"
       inkscape:connector-curvature="0" />
    <text
       xml:space="preserve"
       style="font-size:40px;font-style:normal;font-weight:normal;line-height:125%;letter-spacing:0px;word-spacing:0px;fill:#000000;fill-opacity:1;stroke:none;font-family:Sans"
       x="375.6853"
       y="221.9122"
       id="text4124-5-9"
       sodipodi:linespacing="125%"><tspan
         sodipodi:role="line"
         id="tspan4126-5-5"
         x="375.6853"
         y="221.9122">$-$</tspan></text>
    <text
       xml:space="preserve"
       style="font-size:40px;font-style:normal;font-weight:normal;line-height:125%;letter-spacing:0px;word-spacing:0px;fill:#000000;fill-opacity:1;stroke:none;font-family:Sans"
       x="293.68216"
       y="118.16424"
       id="text4124-5-9-7"
       sodipodi:linespacing="125%"><tspan
         sodipodi:role="line"
         id="tspan4126-5-5-3"
         x="293.68216"
         y="118.16424">$+$</tspan></text>
    <text
       xml:space="preserve"
       style="font-size:40px;font-style:normal;font-weight:normal;line-height:125%;letter-spacing:0px;word-spacing:0px;fill:#000000;fill-opacity:1;stroke:none;font-family:Sans"
       x="295.24957"
       y="243.15921"
       id="text4124-5-9-7-9"
       sodipodi:linespacing="125%"><tspan
         sodipodi:role="line"
         id="tspan4126-5-5-3-3"
         x="295.24957"
         y="243.15921">$+$</tspan></text>
    <text
       xml:space="preserve"
       style="font-size:40px;font-style:normal;font-weight:normal;line-height:125%;letter-spacing:0px;word-spacing:0px;fill:#000000;fill-opacity:1;stroke:none;font-family:Sans"
       x="739.02582"
       y="49.06242"
       id="text4124-5-9-7-9-4"
       sodipodi:linespacing="125%"><tspan
         sodipodi:role="line"
         id="tspan4126-5-5-3-3-4"
         x="739.02582"
         y="49.06242">$+$</tspan></text>
    <text
       xml:space="preserve"
       style="font-size:40px;font-style:normal;font-weight:normal;line-height:125%;letter-spacing:0px;word-spacing:0px;fill:#000000;fill-opacity:1;stroke:none;font-family:Sans"
       x="752.7738"
       y="236.15419"
       id="text4124-5-9-7-9-4-1"
       sodipodi:linespacing="125%"><tspan
         sodipodi:role="line"
         id="tspan4126-5-5-3-3-4-4"
         x="752.7738"
         y="236.15419">$+$</tspan></text>
    <text
       xml:space="preserve"
       style="font-size:40px;font-style:normal;font-weight:normal;line-height:125%;letter-spacing:0px;word-spacing:0px;fill:#000000;fill-opacity:1;stroke:none;font-family:Sans"
       x="221.95053"
       y="123.77958"
       id="text4124-5-9-8"
       sodipodi:linespacing="125%"><tspan
         sodipodi:role="line"
         id="tspan4126-5-5-0"
         x="221.95053"
         y="123.77958">$-$</tspan></text>
    <text
       xml:space="preserve"
       style="font-size:40px;font-style:normal;font-weight:normal;line-height:125%;letter-spacing:0px;word-spacing:0px;fill:#000000;fill-opacity:1;stroke:none;font-family:Sans"
       x="224.93922"
       y="230.77455"
       id="text4124-5-9-8-4"
       sodipodi:linespacing="125%"><tspan
         sodipodi:role="line"
         id="tspan4126-5-5-0-5"
         x="224.93922"
         y="230.77455">$-$</tspan></text>
  </g>
</svg>
